unna_bold-italic.sfdir
StartChar: exclam
Encoding: 33 33 271
Width: 284
Flags: MW
HStem: -10 150<115 151>
VStem: 41 185<50 78.5> 127 146
LayerCount: 2
Back
Fore
SplineSet
208 637 m 0xa0
 253 637 273 612 273 576 c 0
 273 552 266 530 254 494 c 1
 222 408 l 2
 201 350 178 286 169 221 c 0
 167 209 162 201 151 201 c 0
 141 201 138 206 138 214 c 0
 138 223 143 260 143 290 c 0
 143 335 138 367 135 408 c 2
 128 494 l 2
 127 512 126 527 127 539 c 0
 128 583 145 637 208 637 c 0xa0
41 56 m 0xc0
 41 101 86 140 144 140 c 0
 193 140 226 111 226 73 c 0
 226 27 179 -10 123 -10 c 0
 75 -10 41 18 41 56 c 0xc0
EndSplineSet
EndChar
StartChar: quotedbl
Encoding: 34 34 277
Width: 266
Flags: MW
HStem: 409 231<90 143 111.5 233>
VStem: 69 104
LayerCount: 2
Back
Fore
SplineSet
69 585 m 0
 73 619 95 640 128 640 c 0
 158 640 173 623 173 596 c 0
 173 579 163 553 149 521 c 0
 135 490 120 457 116 429 c 0
 114 416 108 409 96 409 c 0
 84 409 80 417 82 430 c 0
 83 437 83 444 83 450 c 0
 83 476 78 500 74 522 c 0
 70 545 67 566 69 585 c 0
200 585 m 0
 204 619 226 640 259 640 c 0
 289 640 304 623 304 596 c 0
 304 579 294 553 280 521 c 0
 266 490 251 457 247 429 c 0
 245 416 239 409 227 409 c 0
 215 409 211 417 213 430 c 0
 214 437 214 444 214 450 c 0
 214 476 209 500 205 522 c 0
 201 545 198 566 200 585 c 0
EndSplineSet
EndChar
StartChar: numbersign
Encoding: 35 35 273
Width: 500
Flags: MW
HStem: -9 21G<20 68 20 20 173 221 173 173> 191 47<33 107 13 127 175 260 33 155 329 404> 402 47<123 199 104 219 123 247 267 352 420 497>
VStem: 13 504<191 449>
LayerCount: 2
Back
Fore
SplineSet
504 639 m 1
 420 449 l 1
 517 449 l 1
 497 402 l 1
 400 402 l 1
 329 238 l 1
 425 238 l 1
 404 191 l 1
 308 191 l 1
 221 -9 l 1
 173 -9 l 1
 260 191 l 1
 155 191 l 1
 68 -9 l 1
 20 -9 l 1
 107 191 l 1
 13 191 l 1
 33 238 l 1
 127 238 l 1
 199 402 l 1
 104 402 l 1
 123 449 l 1
 219 449 l 1
 304 639 l 1
 352 639 l 1
 267 449 l 1
 372 449 l 1
 456 639 l 1
 504 639 l 1
352 402 m 1
 247 402 l 1
 175 238 l 1
 281 238 l 1
 352 402 l 1
EndSplineSet
EndChar
StartChar: dollar
Encoding: 36 36 305
Width: 449
Flags: MW
HStem: 117 30<186 235 231 231> 137 101.5 372 85<348 364 348 368 341 364> 444 203<262 286.5>
VStem: 97 102<320.5 413.5> 277 96<181 279.5>
LayerCount: 2
Back
Fore
SplineSet
281 351 m 1x9c
 354 334 373 300 373 259 c 0
 373 176 315 124 231 117 c 1
 202 -95 l 1
 157 -95 l 1
 186 117 l 1xac
 146 122 116 137 90 137 c 0
 78 137 69 135 63 132 c 1
 81 238 l 1
 111 239 l 1x6c
 106 184 154 147 218 147 c 0
 252 147 277 165 277 197 c 0
 277 217 265 227 233 236 c 2
 186 250 l 2
 123 268 97 298 97 343 c 0
 97 413 148 468 238 474 c 1
 262 647 l 1
 307 647 l 1x9c
 282 472 l 1
 313 467 336 457 360 457 c 0
 368 457 378 459 386 464 c 1
 368 372 l 1
 341 372 l 1xac
 346 408 317 444 256 444 c 0
 222 444 199 428 199 399 c 0
 199 382 209 368 235 363 c 1
 281 351 l 1x9c
EndSplineSet
EndChar
StartChar: percent
Encoding: 37 37 330
Width: 630
Flags: MW
HStem: -10 26<427.5 456 427.5 489.5> 247 24<454 482> 328 26<172 201 172 234> 584 24<198 226.5>
VStem: 49 101<412.5 462 391.5 494.5> 249 101<472.5 524 442 544.5> 304 102<74.5 124.5 54 157> 505 100<135.5 186.5 104.5 207>
LayerCount: 2
Back
Fore
SplineSet
558 609 m 1xfd
 596 582 l 1
 95 -8 l 1
 59 23 l 1
 558 609 l 1xfd
219 608 m 0
 305 608 350 560 350 488 c 0
 350 396 288 328 180 328 c 0
 92 328 49 378 49 447 c 0
 49 542 116 608 219 608 c 0
215 584 m 0
 181 584 150 509 150 415 c 0
 150 368 161 354 183 354 c 0
 219 354 249 425 249 520 c 0
 249 569 238 584 215 584 c 0
474 271 m 0
 561 271 605 222 605 151 c 0
 605 58 544 -10 435 -10 c 0
 347 -10 304 40 304 109 c 0xfb
 304 205 372 271 474 271 c 0
471 247 m 0xfb
 437 247 406 171 406 78 c 0
 406 30 417 16 438 16 c 0
 474 16 505 88 505 183 c 0
 505 231 493 247 471 247 c 0xfb
EndSplineSet
EndChar
StartChar: ampersand
Encoding: 38 38 341
Width: 590
Flags: MW
HStem: -9 38<244.5 313> 238 29.5 331 21<265 332> 577 30<326.5 353>
VStem: 17 131<120.5 202 120.5 213.5> 161 126<447.5 507 443 517> 232 121<147.5 172 147.5 196> 379 106<534.5 539.5> 448 35<123 183.5 113 188> 472 122<348 366 323.5 371.5>
LayerCount: 2
Back
Fore
SplineSet
594 353 m 0xfa40
 594 294 524 262 444 248 c 1
 468 230 483 203 483 164 c 0
 483 62 378 -9 248 -9 c 0
 119 -9 17 60 17 168 c 0xf880
 17 259 90 349 243 352 c 1
 200 376 161 420 161 475 c 0
 161 559 250 607 340 607 c 0
 437 607 485 563 485 516 c 0
 485 483 459 449 414 449 c 0
 377 449 364 470 364 489 c 0
 364 508 379 524 379 545 c 0
 379 566 362 577 344 577 c 0
 309 577 287 541 287 473 c 0
 287 413 313 376 368 358 c 1
 363 329 l 1xfd
 350 331 338 331 326 331 c 0
 204 331 148 241 148 163 c 0
 148 78 204 29 285 29 c 0
 377 29 448 83 448 163 c 0xf880
 448 213 416 238 380 238 c 0
 355 238 341 227 341 206 c 0
 341 190 353 184 353 160 c 0
 353 135 335 111 295 111 c 0
 268 111 232 126 232 168 c 0
 232 224 293 256 381 267 c 2
 389 268 l 2
 429 274 485 277 485 315 c 0
 485 329 472 337 472 359 c 0
 472 384 490 408 530 408 c 0
 574 408 594 379 594 353 c 0xfa40
EndSplineSet
EndChar
StartChar: quotesingle
Encoding: 39 39 278
Width: 134
Flags: MW
HStem: 409 231<89 142>
VStem: 68 104
LayerCount: 2
Back
Fore
SplineSet
68 585 m 0
 72 619 94 640 127 640 c 0
 157 640 172 623 172 596 c 0
 172 579 162 553 148 521 c 0
 134 490 119 457 115 429 c 0
 113 416 107 409 95 409 c 0
 83 409 79 417 81 430 c 0
 82 437 82 444 82 450 c 0
 82 476 77 500 73 522 c 0
 69 545 66 566 68 585 c 0
EndSplineSet
EndChar
StartChar: parenleft
Encoding: 40 40 286
Width: 277
Flags: MW
HStem: -231 942<164 347 164 347>
VStem: 17 141<85 218 40.5 290.5>
LayerCount: 2
Back
Fore
SplineSet
17 167 m 0
 17 414 138 552 296 711 c 1
 347 711 l 1
 231 554 158 334 158 102 c 0
 158 -21 177 -152 215 -231 c 1
 164 -231 l 1
 82 -116 17 3 17 167 c 0
EndSplineSet
Position2: "'cpsp' Capital Spacing lookup 0 per glyph data 0" dx=0 dy=20 dh=0 dv=0
EndChar
StartChar: parenright
Encoding: 41 41 287
Width: 278
Flags: MW
HStem: -231 942<-62 121 -62 121>
VStem: 127 141<262 395 189.5 439.5>
LayerCount: 2
Back
Fore
SplineSet
268 313 m 0
 268 66 147 -72 -11 -231 c 1
 -62 -231 l 1
 54 -74 127 146 127 378 c 0
 127 501 108 632 70 711 c 1
 121 711 l 1
 203 596 268 477 268 313 c 0
EndSplineSet
Position2: "'cpsp' Capital Spacing lookup 0 per glyph data 0" dx=0 dy=20 dh=0 dv=0
EndChar
StartChar: asterisk
Encoding: 42 42 264
Width: 327
Flags: MW
HStem: 477 31<159.5 175.5 282.5 298.5>
VStem: 113 85<385.5 417.5> 195.26 24.74 238 81<405.5 410 388 421> 260 85<568.5 598.5>
LayerCount: 2
Back
Fore
SplineSet
291 633 m 0xa8
 310 633 345 608 345 589 c 0
 345 573 332 559 316 556 c 0
 291 551 266 528 270 513 c 1
 274 510 279 508 286 508 c 0
 319 508 323 538 350 538 c 0
 370 538 379 530 379 506 c 0
 379 462 361 446 337 446 c 0
 311 446 315 477 282 477 c 0
 274 477 268 474 264 471 c 1xa8
 257 457 270 438 285 432 c 0
 305 425 319 421 319 399 c 0
 319 377 274 353 252 353 c 0
 241 353 229 362 229 374 c 0
 229 388 238 397 238 414 c 0
 238 428 233 446 223 448 c 1
 209 445 198 424 198 411 c 0
 198 402 200 394 200 386 c 0
 200 370 183 351 168 351 c 0
 149 351 113 376 113 395 c 0
 113 415 130 426 148 430 c 0
 171 435 192 456 187 471 c 0
 185 475 179 477 172 477 c 0
 139 477 135 446 108 446 c 0
 88 446 80 454 80 478 c 0
 80 523 97 538 121 538 c 0
 147 538 143 508 176 508 c 0xd0
 184 508 190 510 193 513 c 1
 201 533 188 549 167 554 c 0
 148 558 139 570 139 585 c 0
 139 608 185 632 206 632 c 0
 222 632 231 619 231 607 c 0
 231 593 220 582 220 570 c 0
 220 556 224 539 236 537 c 1
 249 539 260 564 260 573 c 0
 260 582 258 589 258 597 c 0
 258 614 274 633 291 633 c 0xa8
EndSplineSet
EndChar
StartChar: plus
Encoding: 43 43 332
Width: 455
Flags: MW
HStem: 255 52<32 205 25 212 269 442 32 262>
VStem: 25 424<255 307>
LayerCount: 2
Back
Fore
SplineSet
295 488 m 1
 269 307 l 1
 449 307 l 1
 442 255 l 1
 262 255 l 1
 236 73 l 1
 179 73 l 1
 205 255 l 1
 25 255 l 1
 32 307 l 1
 212 307 l 1
 238 488 l 1
 295 488 l 1
EndSplineSet
EndChar
StartChar: comma
Encoding: 44 44 269
Width: 275
Flags: MW
HStem: -7 134<53.5 141.5>
VStem: 103 99<-51 61>
LayerCount: 2
Back
Fore
SplineSet
112 127 m 0
 171 127 202 85 202 37 c 0
 202 -52 117 -124 41 -160 c 1
 24 -139 l 1
 62 -116 103 -71 103 -31 c 0
 103 -14 92 -7 70 -7 c 0
 37 -7 21 11 21 41 c 0
 21 85 55 127 112 127 c 0
EndSplineSet
EndChar
StartChar: hyphen
Encoding: 45 45 290
Width: 251
Flags: MW
HStem: 182 62<26 225 17 233>
VStem: 17 216<182 244>
LayerCount: 2
Back
Fore
SplineSet
233 244 m 1
 225 182 l 1
 17 182 l 1
 26 244 l 1
 233 244 l 1
EndSplineSet
Position2: "'cpsp' Capital Spacing lookup 0 per glyph data 0" dx=0 dy=20 dh=0 dv=0
EndChar
StartChar: period
Encoding: 46 46 274
Width: 273
Flags: MW
HStem: -10 150<97 134>
VStem: 23 185<48 81.5>
LayerCount: 2
Back
Fore
SplineSet
23 56 m 0
 23 107 68 140 126 140 c 0
 175 140 208 115 208 74 c 0
 208 22 163 -10 105 -10 c 0
 56 -10 23 14 23 56 c 0
EndSplineSet
EndChar
StartChar: slash
Encoding: 47 47 280
Width: 253
Flags: MW
HStem: -7 21G<11 11>
VStem: -34 350
LayerCount: 2
Back
Fore
SplineSet
271 635 m 1
 316 625 l 1
 11 -7 l 1
 -34 6 l 1
 271 635 l 1
EndSplineSet
EndChar
StartChar: zero
Encoding: 48 48 247
Width: 540
Flags: MW
HStem: -10 35<213.5 286 213.5 348.5> 575 32<279.5 351.5>
VStem: 25 127<153 172.5 104.5 305> 413 125<425 443.5 290.5 494>
LayerCount: 2
Back
Fore
SplineSet
324 607 m 0
 451 607 538 522 538 365 c 0
 538 216 459 -10 238 -10 c 0
 107 -10 25 77 25 229 c 0
 25 381 107 607 324 607 c 0
165 298 m 0
 157 239 152 191 152 154 c 0
 152 55 183 25 244 25 c 0
 328 25 370 85 400 298 c 0
 409 358 413 406 413 444 c 0
 413 544 382 575 321 575 c 0
 238 575 195 510 165 298 c 0
EndSplineSet
EndChar
StartChar: one
Encoding: 49 49 248
Width: 366
Flags: MW
HStem: 0 31<90 97 245 251>
VStem: 28 287
LayerCount: 2
Back
Fore
SplineSet
315 618 m 1
 236 51 l 2
 234 38 239 31 251 31 c 2
 308 32 l 1
 305 0 l 1
 28 0 l 1
 32 32 l 1
 90 31 l 2
 104 31 111 38 113 51 c 2
 174 484 l 2
 176 496 168 504 156 499 c 2
 87 476 l 1
 81 514 l 1
 143 528 196 555 233 577 c 0
 255 590 275 604 294 618 c 1
 315 618 l 1
EndSplineSet
Substitution2: "'sups' Superscript lookup 8 subtable" uni00B9
Substitution2: "'aalt' Access All Alternates lookup 0 subtable" uni00B9
EndChar
StartChar: two
Encoding: 50 50 249
Width: 499
Flags: MW
HStem: 0 96<106 294 294 329.5 106 351 14 294> 573 34<254.5 299.5>
VStem: 75 129<447.5 472 445 500> 350 133<438.5 514.5 432.5 519.5>
LayerCount: 2
Back
Fore
SplineSet
294 96 m 2
 365 96 401 113 416 169 c 1
 455 169 l 1
 430 93 414 21 409 -3 c 1
 403 -1 370 0 351 0 c 2
 14 0 l 1
 22 80 l 1
 159 193 l 2
 292 302 350 386 350 491 c 0
 350 548 321 573 278 573 c 0
 231 573 201 548 201 504 c 0
 201 490 204 479 204 465 c 0
 204 425 173 405 135 405 c 0
 95 405 75 430 75 465 c 0
 75 535 151 607 291 607 c 0
 402 607 483 554 483 475 c 0
 483 390 445 325 249 191 c 1
 106 96 l 1
 294 96 l 2
EndSplineSet
Substitution2: "'sups' Superscript lookup 8 subtable" uni00B2
Substitution2: "'aalt' Access All Alternates lookup 0 subtable" uni00B2
EndChar
StartChar: three
Encoding: 51 51 250
Width: 500
Flags: MW
HStem: -10 35<173.5 247 173.5 279> 573 34<254 300>
VStem: 1 116<67.5 80.5 55.5 121.5> 68 128<460.5 487 459 513.5> 342 135<153.5 219> 349 134<461.5 522.5>
LayerCount: 2
Back
Fore
SplineSet
260 324 m 1xd8
 259 321 l 1xd8
 400 319 477 275 477 190 c 0
 477 70 364 -10 194 -10 c 0
 77 -10 1 35 1 100 c 0
 1 143 30 177 80 177 c 0
 112 177 134 160 134 133 c 0
 134 117 117 89 117 72 c 0
 117 39 155 25 192 25 c 0
 302 25 342 124 342 183 c 0xe8
 342 255 285 287 148 298 c 1
 153 331 l 1
 273 334 349 421 349 502 c 0
 349 543 324 573 276 573 c 0
 232 573 192 550 192 514 c 0
 192 502 196 493 196 481 c 0
 196 437 159 421 129 421 c 0
 84 421 68 446 68 475 c 0
 68 552 161 607 293 607 c 0
 407 607 483 563 483 497 c 0xd4
 483 420 407 343 260 324 c 1xd8
EndSplineSet
Substitution2: "'sups' Superscript lookup 8 subtable" uni00B3
Substitution2: "'aalt' Access All Alternates lookup 0 subtable" uni00B3
EndChar
StartChar: four
Encoding: 52 52 251
Width: 486
Flags: MW
HStem: 0 31<228 235 383 389> 147 77<74 264 0 275 397 465> 584 20G<396 450 450 450>
VStem: 0 476<147 224>
LayerCount: 2
Back
Fore
SplineSet
450 604 m 1
 397 224 l 1
 476 224 l 1
 465 147 l 1
 386 147 l 1
 373 51 l 2
 371 38 377 31 389 31 c 2
 432 32 l 1
 429 0 l 1
 155 0 l 1
 159 32 l 1
 228 31 l 2
 242 31 248 38 250 51 c 2
 264 147 l 1
 0 147 l 1
 10 215 l 1
 21 223 32 233 45 245 c 2
 78 276 l 1
 350 554 l 1
 372 576 l 1
 396 604 l 1
 450 604 l 1
309 463 m 1
 74 224 l 1
 275 224 l 1
 309 463 l 1
EndSplineSet
EndChar
StartChar: five
Encoding: 53 53 252
Width: 487
Flags: MW
HStem: -10 34<176 250 176 266.5> 325 50<242.5 250.5> 501 96<146 406 406 432 123 460 146 146> 580 20G
VStem: 11 115<60.5 85 55 129.5> 323 133<183 251.5>
LayerCount: 2
Back
Fore
SplineSet
460 501 m 1xec
 146 501 l 1
 113 331 l 1
 153 356 214 375 271 375 c 0
 380 375 456 321 456 220 c 0
 456 87 343 -10 190 -10 c 0
 115 -10 11 16 11 105 c 0
 11 154 48 182 90 182 c 0
 122 182 145 163 145 136 c 0
 145 110 126 98 126 72 c 0
 126 38 158 24 194 24 c 0
 306 24 323 152 323 214 c 0
 323 289 286 325 215 325 c 0
 168 325 115 302 95 276 c 1
 65 276 l 1
 123 597 l 1
 406 597 l 2xec
 458 597 476 599 489 600 c 1xdc
 479 576 465 531 460 501 c 1xec
EndSplineSet
EndChar
StartChar: six
Encoding: 54 54 253
Width: 502
Flags: MW
HStem: -11 30<206 288 206 318> 363 32<276 311.5> 571 36<294.5 353.5>
VStem: 33 122<123.5 174 108.5 277> 355 130<220.5 285> 386 116<524.5 537 485 544.5>
LayerCount: 2
Back
Fore
SplineSet
299 395 m 0xf8
 419 395 485 336 485 234 c 0xf8
 485 113 406 -11 230 -11 c 0
 102 -11 33 59 33 188 c 0
 33 366 104 607 342 607 c 0
 429 607 502 566 502 508 c 0
 502 462 468 438 428 438 c 0
 394 438 370 453 370 477 c 0
 370 501 386 514 386 535 c 0
 386 554 372 571 335 571 c 0xf4
 254 571 208 475 184 354 c 1
 213 379 253 395 299 395 c 0xf8
235 19 m 0
 341 19 355 184 355 257 c 0
 355 313 340 363 283 363 c 0
 166 363 155 206 155 142 c 0
 155 75 177 19 235 19 c 0
EndSplineSet
EndChar
StartChar: seven
Encoding: 55 55 254
Width: 448
Flags: MW
HStem: 0 21G<108 239 108 108> 501 96<160.5 494 219 392> 581 20G
VStem: 56 438<447 597>
LayerCount: 2
Back
Fore
SplineSet
219 597 m 2xd0
 494 597 l 1
 493 551 l 1
 299 364 246 156 239 0 c 1
 108 0 l 1
 130 138 177 299 392 501 c 1
 189 501 l 2
 132 501 105 487 94 447 c 1
 56 447 l 1xd0
 67 492 91 577 94 601 c 1xb0
 107 597 155 597 219 597 c 2xd0
EndSplineSet
EndChar
StartChar: eight
Encoding: 56 56 255
Width: 515
Flags: MW
HStem: -10 34<195.5 265.5 195.5 286.5> 573 34<290 351.5>
VStem: 13 106<93.5 146.5 93.5 154> 81 129<457.5 478.5> 355 132<116 162> 411 100<470.5 519.5>
LayerCount: 2
Back
Fore
SplineSet
363 338 m 1xd8
 427 298 487 252 487 178 c 0
 487 54 358 -10 215 -10 c 0
 95 -10 13 25 13 110 c 0xe8
 13 198 87 255 183 295 c 1
 126 331 81 370 81 434 c 0
 81 523 156 607 324 607 c 0
 432 607 511 570 511 497 c 0xd4
 511 442 452 362 363 338 c 1xd8
324 573 m 0xd4
 256 573 210 534 210 484 c 0
 210 431 266 396 329 358 c 1
 385 392 411 446 411 495 c 0
 411 544 379 573 324 573 c 0xd4
231 24 m 0xe8
 300 24 355 61 355 128 c 0
 355 196 285 235 218 274 c 1
 156 238 119 171 119 122 c 0
 119 65 160 24 231 24 c 0xe8
EndSplineSet
EndChar
StartChar: nine
Encoding: 57 57 256
Width: 502
Flags: MW
HStem: -11 36<172.5 231.5 172.5 303> 201 32<214.5 250> 577 30<238 320>
VStem: 24 116<59 71.5 51.5 111> 41 130<311 375.5 311 422.5> 371 122<422 472.5 319 487.5>
LayerCount: 2
Back
Fore
SplineSet
296 607 m 0xec
 424 607 493 537 493 408 c 0
 493 230 422 -11 184 -11 c 0
 97 -11 24 30 24 88 c 0
 24 134 58 158 98 158 c 0
 132 158 156 143 156 119 c 0
 156 95 140 82 140 61 c 0
 140 42 154 25 191 25 c 0xf4
 272 25 318 121 342 242 c 1
 313 217 273 201 227 201 c 0
 107 201 41 260 41 362 c 0
 41 483 120 607 296 607 c 0xec
243 233 m 0
 360 233 371 390 371 454 c 0
 371 521 349 577 291 577 c 0
 185 577 171 412 171 339 c 0
 171 283 186 233 243 233 c 0
EndSplineSet
EndChar
StartChar: colon
Encoding: 58 58 268
Width: 276
Flags: MW
HStem: -10 150<97 134> 279 150<141 178>
VStem: 23 185<48 81.5> 67 185<337 370.5>
LayerCount: 2
Back
Fore
SplineSet
67 345 m 0xd0
 67 396 112 429 170 429 c 0
 219 429 252 404 252 363 c 0
 252 311 207 279 149 279 c 0
 100 279 67 303 67 345 c 0xd0
23 56 m 0xe0
 23 107 68 140 126 140 c 0
 175 140 208 115 208 74 c 0
 208 22 163 -10 105 -10 c 0
 56 -10 23 14 23 56 c 0xe0
EndSplineSet
EndChar
StartChar: semicolon
Encoding: 59 59 279
Width: 275
Flags: MW
HStem: -7 21G<58.5 86> -7 134<58.5 146.5> 279 150<131 168>
VStem: 57 185<337 370.5> 108 99<-51 61>
LayerCount: 2
Back
Fore
SplineSet
57 345 m 0xb0
 57 396 102 429 160 429 c 0
 209 429 242 404 242 363 c 0
 242 311 197 279 139 279 c 0
 90 279 57 303 57 345 c 0xb0
117 127 m 0x68
 176 127 207 85 207 37 c 0
 207 -52 122 -124 46 -160 c 1
 29 -139 l 1
 67 -116 108 -71 108 -31 c 0
 108 -14 97 -7 75 -7 c 0
 42 -7 26 11 26 41 c 0
 26 85 60 127 117 127 c 0x68
EndSplineSet
EndChar
StartChar: less
Encoding: 60 60 322
Width: 446
Flags: MW
HStem: -7 21G<375 375>
VStem: 55 383<204 441>
LayerCount: 2
Back
Fore
SplineSet
375 -7 m 1
 55 204 l 1
 58 228 l 1
 438 441 l 1
 430 385 l 1
 154 230 l 1
 121 217 l 1
 151 204 l 1
 383 50 l 1
 375 -7 l 1
EndSplineSet
EndChar
StartChar: equal
Encoding: 61 61 316
Width: 456
Flags: MW
HStem: 103 51<27 406 19 413> 295 50<53 433 46 439>
VStem: 19 420<103 345>
LayerCount: 2
Back
Fore
SplineSet
439 345 m 1
 433 295 l 1
 46 295 l 1
 53 345 l 1
 439 345 l 1
413 154 m 1
 406 103 l 1
 19 103 l 1
 27 154 l 1
 413 154 l 1
EndSplineSet
EndChar
StartChar: greater
Encoding: 62 62 317
Width: 457
Flags: MW
HStem: -5 21G<22 22>
VStem: 22 383<-5 232>
LayerCount: 2
Back
Fore
SplineSet
85 443 m 1
 405 232 l 1
 402 208 l 1
 22 -5 l 1
 30 51 l 1
 306 206 l 1
 339 219 l 1
 309 232 l 1
 77 386 l 1
 85 443 l 1
EndSplineSet
EndChar
StartChar: question
Encoding: 63 63 275
Width: 412
Flags: MW
HStem: -10 149<154.5 190.5> 636 34<226 259>
VStem: 64 127<558 575 551.5 607> 81 185<49 78.5> 131 83<298.5 355 293.5 374> 301 140<522.5 593>
LayerCount: 2
Back
Fore
SplineSet
229 216 m 1xcc
 190 226 131 270 131 327 c 0xcc
 131 421 301 470 301 575 c 0
 301 611 278 636 240 636 c 0
 212 636 188 622 188 599 c 0
 188 589 191 580 191 570 c 0
 191 533 156 517 124 517 c 0
 82 517 64 544 64 572 c 0xe4
 64 642 155 670 262 670 c 0
 378 670 441 635 441 572 c 0
 441 441 214 405 214 305 c 0
 214 282 225 257 249 242 c 1
 229 216 l 1xcc
162 -10 m 0xd4
 115 -10 81 17 81 56 c 0
 81 101 126 139 183 139 c 0
 232 139 266 111 266 73 c 0
 266 25 219 -10 162 -10 c 0xd4
EndSplineSet
EndChar
StartChar: at
Encoding: 64 64 340
Width: 773
Flags: MW
HStem: -153 36<264 342> -10 21G<215.5 276.5 438.5 519> -10 70<215.5 344> -10 85<438.5 564> 405 30<403 425.5 339 440> 567 37<365.5 561>
VStem: 14 49<62 236.5 62 251.5> 153 134<107.5 148 107.5 192> 727 40<267.5 399>
LayerCount: 2
Back
Fore
SplineSet
495 604 m 0xce80
 658 604 767 490 767 342 c 0
 767 153 583 -10 455 -10 c 0
 422 -10 415 3 415 31 c 0
 415 58 424 112 439 172 c 1
 380 36 308 -10 245 -10 c 0xaf80
 186 -10 153 36 153 112 c 0
 153 272 267 435 411 435 c 0
 440 435 466 423 479 396 c 1
 484 416 l 1
 619 433 l 1
 595 338 l 1
 571 238 552 128 552 92 c 0
 552 81 555 75 564 75 c 0x9f80
 618 80 727 200 727 335 c 0
 727 463 631 567 491 567 c 0
 232 567 63 337 63 136 c 0
 63 -12 171 -117 357 -117 c 1
 480 -118 576 -78 679 12 c 1
 698 -17 l 1
 586 -116 479 -154 342 -153 c 1
 138 -153 14 -41 14 134 c 0
 14 369 236 604 495 604 c 0xce80
427 405 m 0
 379 405 333 341 306 243 c 1
 294 204 287 165 287 131 c 0
 287 84 300 60 324 60 c 0xaf80
 364 60 467 241 467 353 c 0
 467 381 453 405 427 405 c 0
EndSplineSet
EndChar
StartChar: A
Encoding: 65 65 2
Width: 608
GlyphClass: 2
Flags: MW
HStem: 0 35<-10 5 -10 132 575 580> 186 35<156 345 156 355 137 345> 587 20G<330 379 379 379>
VStem: -48 654<0 37>
LayerCount: 2
Back
Fore
SplineSet
580 35 m 1
 606 37 l 1
 601 0 l 1
 302 0 l 1
 307 37 l 1
 354 35 l 1
 377 33 385 46 386 63 c 0
 386 74 383 86 380 98 c 2
 355 186 l 1
 137 186 l 1
 93 104 l 2
 82 84 73 63 73 49 c 0
 73 39 78 33 91 34 c 2
 137 37 l 1
 132 0 l 1
 -48 0 l 1
 -43 37 l 1
 -10 35 l 1
 20 35 43 76 62 112 c 2
 330 607 l 1
 379 607 l 1
 521 110 l 2
 534 64 544 35 575 35 c 2
 580 35 l 1
156 221 m 1
 345 221 l 1
 280 451 l 1
 156 221 l 1
EndSplineSet
Substitution2: "Single Substitution lookup 21 subtable" ordfeminine
Substitution2: "'aalt' Access All Alternates lookup 0 subtable" ordfeminine
Position2: "'cpsp' Capital Spacing lookup 0 per glyph data 2" dx=5 dy=0 dh=10 dv=0
EndChar
StartChar: B
Encoding: 66 66 13
Width: 577
GlyphClass: 2
Flags: MW
HStem: 0 36<228 276 276 302> 294 35<256 307 307 326 251 307> 562 35<135 140 297.5 301 301 338>
VStem: 405 140<141.5 219 121.5 231> 415 140<433 504.5>
LayerCount: 2
Back
Fore
SplineSet
401 597 m 2xe8
 501 597 555 556 555 476 c 0xe8
 555 390 489 333 397 317 c 1
 483 317 545 259 545 179 c 0xf0
 545 64 465 0 302 0 c 2
 8 0 l 1
 13 37 l 1
 61 35 l 2
 71 35 77 42 79 57 c 2
 148 542 l 2
 149 551 145 562 135 562 c 2
 87 560 l 1
 92 597 l 1
 401 597 l 2xe8
338 562 m 2
 301 562 l 2
 294 562 289 558 287 550 c 2
 256 329 l 1
 307 329 l 2
 384 329 415 382 415 475 c 0
 415 534 387 562 338 562 c 2
326 294 m 2xf0
 251 294 l 1
 216 49 l 2
 215 40 219 36 228 36 c 2
 276 36 l 2
 351 36 405 86 405 197 c 0
 405 265 378 294 326 294 c 2xf0
EndSplineSet
Position2: "'cpsp' Capital Spacing lookup 0 per glyph data 2" dx=5 dy=0 dh=10 dv=0
EndChar
StartChar: D
Encoding: 68 68 18
Width: 636
GlyphClass: 2
Flags: MW
HStem: 0 36<216 238 238 262> 562 35<123 129.5 286.5 290 290 313>
VStem: 476 144<333.5 423 247.5 432.5>
LayerCount: 2
Back
Fore
SplineSet
334 597 m 2
 528 597 620 506 620 340 c 0
 620 155 509 0 262 0 c 2
 8 0 l 1
 13 37 l 1
 52 35 l 2
 63 34 68 45 70 57 c 2
 138 541 l 2
 139 550 136 562 123 562 c 2
 87 560 l 1
 92 597 l 1
 334 597 l 2
313 562 m 2
 290 562 l 2
 283 562 278 558 277 549 c 2
 206 49 l 2
 205 40 208 36 216 36 c 2
 238 36 l 2
 365 36 424 107 453 202 c 0
 469 251 476 307 476 360 c 0
 476 505 428 562 313 562 c 2
EndSplineSet
Position2: "'cpsp' Capital Spacing lookup 0 per glyph data 2" dx=5 dy=0 dh=10 dv=0
EndChar
StartChar: F
Encoding: 70 70 31
Width: 525
GlyphClass: 2
Flags: MW
HStem: 0 35<49 55 217.5 223> 280 35<244 305 239 310> 443 154<500 535 500 500> 562 35<125 130 286.5 290 290 376>
VStem: 403 35<417 417> 502.42 32.58
LayerCount: 2
Back
Fore
SplineSet
557 598 m 1xdc
 535 443 l 1
 500 443 l 1xec
 513 526 474 562 376 562 c 2
 290 562 l 2
 283 562 278 558 277 549 c 2
 244 315 l 1
 310 315 l 2
 357 315 394 353 403 417 c 1
 438 417 l 1
 404 180 l 1
 369 180 l 1
 378 241 352 280 305 280 c 2
 239 280 l 1
 207 56 l 2
 205 44 212 35 223 35 c 2
 276 38 l 1
 270 0 l 1
 8 0 l 1
 14 38 l 1
 49 35 l 1
 61 35 68 42 70 57 c 2
 138 541 l 2
 140 555 135 562 125 562 c 2
 87 560 l 1
 92 597 l 1
 541 597 l 2
 548 597 553 597 557 598 c 1xdc
EndSplineSet
Position2: "'cpsp' Capital Spacing lookup 0 per glyph data 2" dx=5 dy=0 dh=10 dv=0
EndChar
StartChar: H
Encoding: 72 72 35
Width: 691
GlyphClass: 2
Flags: MW
HStem: 0 35<48 48 217.5 224 417 423> 287 35<245 471 240 475> 562 35<123 123 292 298 491 498.5 659.5 666>
VStem: 8 698<0 597>
LayerCount: 2
Back
Fore
SplineSet
706 597 m 1
 701 560 l 1
 666 562 l 2
 653 562 646 553 645 541 c 2
 576 57 l 2
 574 42 579 34 591 35 c 2
 627 37 l 1
 622 0 l 1
 363 0 l 1
 368 37 l 1
 417 35 l 2
 429 35 436 42 438 57 c 2
 471 287 l 1
 240 287 l 1
 207 57 l 2
 205 42 211 35 224 35 c 2
 273 37 l 1
 268 0 l 1
 8 0 l 1
 13 37 l 1
 48 35 l 2
 61 34 68 42 70 57 c 2
 138 541 l 2
 139 552 137 563 123 562 c 2
 87 560 l 1
 92 597 l 1
 352 597 l 1
 347 560 l 1
 298 562 l 2
 286 562 277 553 276 541 c 2
 245 322 l 1
 475 322 l 1
 507 541 l 2
 508 552 506 562 491 562 c 2
 441 560 l 1
 447 597 l 1
 706 597 l 1
EndSplineSet
Position2: "'cpsp' Capital Spacing lookup 0 per glyph data 2" dx=5 dy=0 dh=10 dv=0
EndChar
StartChar: I
Encoding: 73 73 36
Width: 323
GlyphClass: 2
Flags: MW
HStem: 0 36 562 35<123 129 292.5 298>
VStem: 8 330
LayerCount: 2
Back
Fore
SplineSet
338 597 m 1
 333 560 l 1
 298 562 l 2
 287 562 277 553 276 541 c 2
 207 57 l 2
 205 42 211 34 224 35 c 2
 259 37 l 1
 254 0 l 1
 8 0 l 1
 13 37 l 1
 48 35 l 2
 61 34 68 42 70 57 c 2
 138 541 l 2
 139 552 135 562 123 562 c 2
 87 560 l 1
 92 597 l 1
 338 597 l 1
EndSplineSet
Position2: "'cpsp' Capital Spacing lookup 0 per glyph data 2" dx=5 dy=0 dh=10 dv=0
EndChar
StartChar: J
Encoding: 74 74 45
Width: 455
GlyphClass: 2
Flags: MW
HStem: -10 34<116.5 153 92 206.5> -2 21G<-7 -7> 5 167<23.5 42.5> 562 35<261 266 430 436>
VStem: 17 41.34
LayerCount: 2
Back
Fore
SplineSet
475 597 m 1x98
 470 560 l 1
 436 562 l 2
 424 562 415 553 414 542 c 2
 363 179 l 2
 345 51 270 -10 143 -10 c 0
 90 -10 56 5 29 5 c 0x98
 18 5 2 5 -7 -2 c 1x58
 17 172 l 1x38
 61 172 l 1
 53 116 59 24 125 24 c 0
 181 24 208 64 225 179 c 2
 276 541 l 2
 277 553 271 562 261 562 c 2
 191 560 l 1
 196 597 l 1
 475 597 l 1x98
EndSplineSet
Position2: "'cpsp' Capital Spacing lookup 0 per glyph data 2" dx=5 dy=0 dh=10 dv=0
EndChar
StartChar: K
Encoding: 75 75 46
Width: 634
GlyphClass: 2
Flags: MW
HStem: 0 36 562 35<123 129 292 298 493 495.5 600 600>
VStem: 8 632<0 597>
AnchorPoint: "Anchor-0" 293 0 basechar 0
LayerCount: 2
Back
Fore
SplineSet
600 562 m 2
 581 563 564 558 539 533 c 2
 380 373 l 1
 551 48 l 2
 556 39 564 34 573 34 c 0
 583 34 593 35 603 37 c 1
 598 0 l 1
 315 0 l 1
 319 37 l 1
 363 34 l 2
 380 33 389 42 380 59 c 2
 272 265 l 1
 230 223 l 1
 207 57 l 2
 205 42 211 34 224 35 c 2
 269 37 l 1
 264 0 l 1
 8 0 l 1
 13 37 l 1
 48 35 l 2
 61 34 68 42 70 57 c 2
 138 541 l 2
 139 553 135 562 123 562 c 2
 87 560 l 1
 92 597 l 1
 352 597 l 1
 347 560 l 1
 298 562 l 2
 286 562 278 555 275 540 c 2
 238 278 l 1
 484 529 l 1
 498 545 500 551 500 555 c 0
 500 560 498 562 493 562 c 2
 456 560 l 1
 461 597 l 1
 640 597 l 1
 635 560 l 1
 600 562 l 2
EndSplineSet
Position2: "'cpsp' Capital Spacing lookup 0 per glyph data 2" dx=5 dy=0 dh=10 dv=0
EndChar
StartChar: L
Encoding: 76 76 48
Width: 510
GlyphClass: 2
Flags: MW
HStem: 0 36<216 298 298 335> 562 35<123 128 292.5 298>
VStem: 8 474<0 171>
AnchorPoint: "Anchor-0" 210 0 basechar 0
LayerCount: 2
Back
Fore
SplineSet
352 597 m 1
 347 560 l 1
 298 562 l 2
 287 562 277 553 276 541 c 2
 206 49 l 2
 205 40 208 36 216 36 c 2
 298 36 l 2
 384 36 436 83 448 171 c 1
 482 171 l 1
 458 -3 l 1
 446 -1 405 0 335 0 c 2
 8 0 l 1
 14 38 l 1
 52 35 l 2
 63 35 68 45 70 57 c 2
 138 541 l 2
 139 552 133 562 123 562 c 2
 87 560 l 1
 92 597 l 1
 352 597 l 1
EndSplineSet
Position2: "Single Positioning lookup 4 subtable" dx=0 dy=0 dh=-40 dv=0
Position2: "'cpsp' Capital Spacing lookup 0 per glyph data 2" dx=5 dy=0 dh=10 dv=0
EndChar
StartChar: M
Encoding: 77 77 54
Width: 877
GlyphClass: 2
Flags: MW
HStem: -10 21G<357 389 357 357> 0 35<47 53.5 120.5 127 603 609> 562 35<132 135 847 853>
VStem: 3 885<0 597>
LayerCount: 2
Back
Fore
SplineSet
888 597 m 1x70
 882 560 l 1
 853 562 l 2
 841 562 832 553 830 542 c 2
 762 57 l 2
 760 42 766 34 778 35 c 2
 814 37 l 1
 809 0 l 1
 549 0 l 1
 554 37 l 1
 603 35 l 2
 615 35 623 42 625 57 c 2x70
 688 502 l 1
 389 -10 l 1
 357 -10 l 1xb0
 177 525 l 1
 111 57 l 2
 109 42 114 35 127 35 c 2
 176 37 l 1
 171 0 l 1
 3 0 l 1
 8 37 l 1
 47 35 l 2
 60 35 67 42 69 57 c 2
 140 556 l 2
 140 560 138 562 132 562 c 2
 89 560 l 1
 94 597 l 1
 300 597 l 1
 444 160 l 1
 702 597 l 1
 888 597 l 1x70
EndSplineSet
Position2: "'cpsp' Capital Spacing lookup 0 per glyph data 2" dx=5 dy=0 dh=10 dv=0
EndChar
StartChar: N
Encoding: 78 78 55
Width: 672
GlyphClass: 2
Flags: MW
HStem: -6 21G<489 550 489 489> 0 27<46 52.5 119.5 126> 569 28<122 122 572 577.5 642 647>
VStem: 3 689<0 597>
AnchorPoint: "Anchor-0" 318 0 basechar 0
LayerCount: 2
Back
Fore
SplineSet
692 597 m 1x70
 688 567 l 1
 647 569 l 2
 637 569 630 562 628 548 c 2
 550 -6 l 1
 489 -6 l 1xb0
 177 524 l 1
 111 49 l 2
 109 34 113 27 126 27 c 2
 175 29 l 1
 171 0 l 1
 3 0 l 1
 7 29 l 1
 46 27 l 2
 59 27 67 34 69 49 c 2
 139 553 l 1
 138 562 133 570 122 569 c 2
 83 567 l 1
 87 597 l 1
 292 597 l 1
 535 184 l 1
 586 549 l 2
 588 562 583 569 572 569 c 2
 520 567 l 1
 524 597 l 1
 692 597 l 1x70
EndSplineSet
Position2: "'cpsp' Capital Spacing lookup 0 per glyph data 2" dx=5 dy=0 dh=10 dv=0
EndChar
StartChar: O
Encoding: 79 79 60
Width: 677
GlyphClass: 2
Flags: MW
HStem: -10 35<266 363 266 406> 573 34<339 437.5>
VStem: 39 146<188 223.5 188 370> 516 146
LayerCount: 2
Back
Fore
SplineSet
39 254 m 0
 39 486 199 607 393 607 c 0
 551 607 662 531 662 345 c 0
 662 116 504 -10 308 -10 c 0
 152 -10 39 66 39 254 c 0
185 188 m 0
 186 92 214 25 318 25 c 0
 408 25 450 82 478 161 c 1
 504 238 517 335 516 409 c 0
 515 499 489 573 386 573 c 0
 292 573 247 510 220 425 c 0
 197 350 185 259 185 188 c 0
EndSplineSet
Substitution2: "Single Substitution lookup 21 subtable" ordmasculine
Substitution2: "'aalt' Access All Alternates lookup 0 subtable" ordmasculine
Position2: "'cpsp' Capital Spacing lookup 0 per glyph data 2" dx=5 dy=0 dh=10 dv=0
EndChar
StartChar: P
Encoding: 80 80 70
Width: 544
GlyphClass: 2
Flags: MW
HStem: 0 35<48 48 217.5 224> 248 36<239 293 293 323 239 331 234 293> 562 35<119 119 288 290 290 330>
VStem: 407 145<407.5 487>
LayerCount: 2
Back
Fore
SplineSet
353 597 m 2
 488 597 552 550 552 456 c 0
 552 332 463 248 331 248 c 2
 234 248 l 1
 207 57 l 2
 205 42 211 35 224 35 c 2
 273 37 l 1
 268 0 l 1
 8 0 l 1
 13 37 l 1
 48 35 l 2
 61 34 68 42 70 57 c 2
 137 540 l 1
 140 554 137 563 119 562 c 2
 87 560 l 1
 92 597 l 1
 353 597 l 2
330 562 m 2
 290 562 l 2
 286 562 278 557 277 550 c 2
 239 284 l 1
 293 284 l 2
 353 284 407 360 407 455 c 0
 407 519 379 562 330 562 c 2
EndSplineSet
Position2: "'cpsp' Capital Spacing lookup 0 per glyph data 2" dx=5 dy=0 dh=10 dv=0
EndChar
StartChar: Q
Encoding: 81 81 72
Width: 677
GlyphClass: 2
Flags: MW
HStem: -179 81<464 561> -10 35<266 308> 1 21G 573 34<339 437.5>
VStem: 39 146<188 223.5 188 370> 516 146
LayerCount: 2
Back
Fore
SplineSet
549 -98 m 0xdc
 573 -98 598 -93 627 -86 c 1
 634 -112 l 1
 582 -157 538 -179 496 -179 c 0
 432 -179 375 -126 308 -10 c 1xdc
 152 -10 39 66 39 254 c 0
 39 486 199 607 393 607 c 0
 551 607 662 531 662 345 c 0
 662 156 554 37 406 1 c 1xbc
 461 -75 502 -98 549 -98 c 0xdc
185 188 m 0
 186 92 214 25 318 25 c 0
 408 25 450 82 478 161 c 1
 504 238 517 335 516 409 c 0
 515 499 489 573 386 573 c 0
 292 573 247 510 220 425 c 0
 197 350 185 259 185 188 c 0
EndSplineSet
Position2: "'cpsp' Capital Spacing lookup 0 per glyph data 2" dx=5 dy=0 dh=10 dv=0
EndChar
StartChar: R
Encoding: 82 82 73
Width: 587
GlyphClass: 2
Flags: MW
HStem: -10 21G<408 454.5> -10 44 0 35<48 48 218 224> 271 35<243 274 237 305> 562 35<119 127.5 287 291 291 322>
VStem: 363 131<159 191.5> 404 135<425 499.5>
AnchorPoint: "Anchor-0" 266 0 basechar 0
LayerCount: 2
Back
Fore
SplineSet
350 597 m 2x3a
 478 597 539 556 539 470 c 0x3a
 539 380 480 320 392 295 c 1
 464 286 494 238 494 170 c 0
 494 148 490 93 490 74 c 0
 490 46 498 34 519 34 c 0
 527 34 534 36 540 40 c 1x5c
 548 17 l 1
 522 4 475 -10 434 -10 c 0
 382 -10 356 10 356 61 c 0
 356 89 363 139 363 163 c 0
 363 220 349 270 274 271 c 1x9c
 237 271 l 1
 207 55 l 2
 206 41 212 35 224 35 c 2
 273 37 l 1
 268 0 l 1
 8 0 l 1
 13 37 l 1
 48 35 l 2
 61 34 68 42 70 57 c 2
 138 539 l 2
 139 552 136 562 119 562 c 1
 87 560 l 1
 92 597 l 1
 350 597 l 2x3a
322 562 m 2
 291 562 l 2
 283 562 278 559 277 552 c 2
 243 306 l 1
 305 306 l 2
 360 306 404 370 404 466 c 0
 404 533 376 562 322 562 c 2
EndSplineSet
Position2: "'cpsp' Capital Spacing lookup 0 per glyph data 2" dx=5 dy=0 dh=10 dv=0
EndChar
StartChar: S
Encoding: 83 83 77
Width: 496
GlyphClass: 2
Flags: MW
HStem: -10 36<207 252 173 301.5> 434 138<458 467.5 458 475 441 467.5> 573 34<283.5 330 228.5 357>
VStem: 39 32<139 203> 75 120<461.5 471> 340 127<135 146>
AnchorPoint: "Anchor-0" 234 0 basechar 0
LayerCount: 2
Back
Fore
SplineSet
303 607 m 0
 357 607 385 595 435 578 c 0
 446 574 453 572 463 572 c 0
 472 572 484 573 492 576 c 1
 488 560 473 507 473 459 c 0
 473 449 474 440 475 434 c 1xd0
 441 434 l 1
 452 515 400 573 314 573 c 0
 253 573 195 545 195 484 c 0
 195 439 226 412 282 382 c 1xa8
 343 347 l 1
 421 304 467 267 467 189 c 0
 467 81 381 -10 222 -10 c 0
 192 -10 167 -6 132 3 c 0
 94 13 73 18 58 18 c 0
 41 18 17 13 15 12 c 1
 24 40 39 100 39 178 c 0
 39 182 39 199 38 200 c 1
 71 203 l 1xb4
 68 84 128 26 218 26 c 0
 286 26 340 65 340 122 c 0
 340 170 306 200 250 229 c 2
 182 265 l 2
 119 298 75 343 75 420 c 0xac
 75 522 154 607 303 607 c 0
EndSplineSet
Position2: "'cpsp' Capital Spacing lookup 0 per glyph data 2" dx=5 dy=0 dh=10 dv=0
EndChar
StartChar: T
Encoding: 84 84 82
Width: 540
GlyphClass: 2
Flags: MW
HStem: 0 35<158 163.5 327 333> 444 154<47 532 47 532 523 532 532 545.5 117 557 523 523> 562 36<177 221 221 239 396.5 400 400 419>
VStem: 525.58 31.42
AnchorPoint: "Anchor-0" 235 0 basechar 0
LayerCount: 2
Back
Fore
SplineSet
579 600 m 1xb0
 557 444 l 1
 523 444 l 1xd0
 535 524 507 562 419 562 c 2
 400 562 l 2
 393 562 388 558 387 551 c 2
 317 57 l 2
 315 42 321 35 333 35 c 2
 386 37 l 1
 382 0 l 1
 99 0 l 1
 104 37 l 1
 158 35 l 2
 169 35 178 47 180 60 c 2
 249 550 l 2
 250 558 247 562 239 562 c 2
 221 562 l 2xb0
 133 562 92 524 81 444 c 1
 47 444 l 1xd0
 69 600 l 1
 78 599 94 598 117 598 c 2
 532 598 l 2
 559 598 575 599 579 600 c 1xb0
EndSplineSet
Position2: "'cpsp' Capital Spacing lookup 0 per glyph data 2" dx=5 dy=0 dh=10 dv=0
EndChar
StartChar: U
Encoding: 85 85 86
Width: 654
GlyphClass: 2
Flags: MW
HStem: -10 42<308 402> 562 35<123 128 292.5 298 560 565 633.5 639>
VStem: 87.04 137.92
LayerCount: 2
Back
Fore
SplineSet
683 597 m 1
 678 560 l 1
 639 562 l 2
 628 562 619 554 617 542 c 2
 569 203 l 2
 550 68 479 -10 325 -10 c 0
 154 -10 69 55 90 199 c 2
 138 541 l 2
 139 552 133 562 123 562 c 2
 84 560 l 1
 89 597 l 1
 352 597 l 1
 347 560 l 1
 298 562 l 2
 287 562 277 554 276 542 c 2
 228 199 l 2
 212 85 260 32 356 32 c 0
 467 32 512 99 527 203 c 2
 574 541 l 2
 575 554 570 562 560 562 c 2
 510 560 l 1
 515 597 l 1
 683 597 l 1
EndSplineSet
Position2: "'cpsp' Capital Spacing lookup 0 per glyph data 2" dx=5 dy=0 dh=10 dv=0
EndChar
StartChar: V
Encoding: 86 86 95
Width: 602
GlyphClass: 2
Flags: MW
HStem: -4 21G<250 303 250 250> 562 35<75 79 246.5 251 559 566 630 635>
VStem: 568.87 104.63
LayerCount: 2
Back
Fore
SplineSet
515 597 m 1
 676 597 l 1
 671 560 l 1
 635 562 l 2
 625 562 621 554 611 539 c 1
 303 -4 l 1
 250 -4 l 1
 94 539 l 2
 89 554 83 562 75 562 c 2
 46 560 l 1
 52 597 l 1
 306 597 l 1
 300 560 l 1
 251 562 l 2
 242 562 236 549 239 538 c 2
 350 160 l 1
 560 530 l 2
 571 551 573 562 559 562 c 2
 510 560 l 1
 515 597 l 1
EndSplineSet
Position2: "'cpsp' Capital Spacing lookup 0 per glyph data 2" dx=5 dy=0 dh=10 dv=0
EndChar
StartChar: W
Encoding: 87 87 96
Width: 904
GlyphClass: 2
Flags: MW
HStem: -10 21G<218 267 218 218 609 656 609 609> 562 35<77 81.5 241.5 249 457 464 614 619 865 871 936.5 943>
VStem: 875.54 99.96
LayerCount: 2
Back
Fore
SplineSet
819 597 m 1
 978 597 l 1
 973 560 l 1
 943 562 l 2
 930 562 920 550 916 541 c 2
 656 -10 l 1
 609 -10 l 1
 493 467 l 1
 267 -10 l 1
 218 -10 l 1
 94 540 l 2
 91 555 86 562 77 562 c 2
 46 560 l 1
 52 597 l 1
 305 597 l 1
 300 560 l 1
 249 562 l 2
 234 562 234 552 237 540 c 2
 315 183 l 1
 479 526 l 1
 477 534 l 2
 473 549 471 562 457 562 c 2
 415 560 l 1
 421 597 l 1
 666 597 l 1
 661 560 l 1
 619 562 l 2
 609 562 605 549 606 540 c 1
 693 161 l 1
 873 542 l 2
 878 552 877 562 865 562 c 2
 813 560 l 1
 819 597 l 1
EndSplineSet
Position2: "'cpsp' Capital Spacing lookup 0 per glyph data 2" dx=5 dy=0 dh=10 dv=0
EndChar
StartChar: X
Encoding: 88 88 101
Width: 581
GlyphClass: 2
Flags: MW
HStem: 0 35.5 562 35<106 111 298.5 307 488 494.5 567 573>
VStem: 498.25 111.25
LayerCount: 2
Back
Fore
SplineSet
450 597 m 1
 612 597 l 1
 607 560 l 1
 573 562 l 2
 561 562 549 555 539 542 c 2
 379 331 l 1
 505 51 l 2
 509 42 518 32 532 34 c 2
 564 37 l 1
 559 0 l 1
 284 0 l 1
 289 37 l 1
 338 34 l 2
 352 33 353 45 347 57 c 2
 261 250 l 1
 113 55 l 2
 104 43 107 35 115 35 c 2
 161 38 l 1
 156 0 l 1
 -11 0 l 1
 -5 38 l 1
 31 36 l 2
 44 36 56 43 67 58 c 2
 246 293 l 1
 134 543 l 2
 127 558 116 562 106 562 c 2
 80 560 l 1
 86 597 l 1
 354 597 l 1
 348 560 l 1
 307 562 l 2
 290 562 286 550 290 541 c 2
 361 373 l 1
 492 542 l 2
 501 553 501 562 488 562 c 2
 444 560 l 1
 450 597 l 1
EndSplineSet
Position2: "'cpsp' Capital Spacing lookup 0 per glyph data 2" dx=5 dy=0 dh=10 dv=0
EndChar
StartChar: Y
Encoding: 89 89 102
Width: 555
GlyphClass: 2
Flags: MW
HStem: 0 35<178 184.5 346.5 354> 562 35<77 81.5 257 264 507 513 579 584>
VStem: 515.37 101.13
LayerCount: 2
Back
Fore
SplineSet
460 597 m 1
 619 597 l 1
 614 560 l 1
 584 562 l 2
 574 562 564 554 554 541 c 2
 368 274 l 1
 337 56 l 2
 335 44 339 35 354 35 c 2
 402 37 l 1
 397 0 l 1
 124 0 l 1
 129 37 l 1
 178 35 l 2
 191 35 198 42 200 57 c 2
 228 256 l 1
 97 543 l 2
 91 556 86 562 77 562 c 2
 48 560 l 1
 54 597 l 1
 322 597 l 1
 317 560 l 1
 264 562 l 2
 250 562 250 548 254 538 c 2
 354 318 l 1
 511 542 l 2
 516 549 519 562 507 562 c 2
 455 560 l 1
 460 597 l 1
EndSplineSet
Position2: "'cpsp' Capital Spacing lookup 0 per glyph data 2" dx=5 dy=0 dh=10 dv=0
EndChar
StartChar: Z
Encoding: 90 90 107
Width: 543
GlyphClass: 2
Flags: MW
HStem: 0 35<176 315 315 360> 443 154<87 561 87 561> 562 35<231 278 278 389>
VStem: 1 560
LayerCount: 2
Back
Fore
SplineSet
561 597 m 1xb0
 558 573 l 1
 176 35 l 1
 315 35 l 2
 405 35 470 84 481 167 c 1
 516 167 l 1
 484 -4 l 1
 476 -1 439 0 373 0 c 2
 1 0 l 1
 5 27 l 1
 389 562 l 1
 278 562 l 2xb0
 184 562 134 525 122 443 c 1
 87 443 l 1xd0
 109 600 l 1
 128 600 178 597 217 597 c 2
 561 597 l 1xb0
EndSplineSet
Position2: "'cpsp' Capital Spacing lookup 0 per glyph data 2" dx=5 dy=0 dh=10 dv=0
EndChar
StartChar: bracketleft
Encoding: 91 91 284
Width: 277
Flags: MW
HStem: -147 34<117 193> 641 34<223 304 223 223>
VStem: -6 315
LayerCount: 2
Back
Fore
SplineSet
309 675 m 1
 304 641 l 1
 223 641 l 1
 117 -113 l 1
 198 -113 l 1
 193 -147 l 1
 -6 -147 l 1
 110 675 l 1
 309 675 l 1
EndSplineSet
Position2: "'cpsp' Capital Spacing lookup 0 per glyph data 0" dx=0 dy=20 dh=0 dv=0
EndChar
StartChar: backslash
Encoding: 92 92 265
Width: 256
Flags: MW
HStem: -5 21G<177 177>
VStem: 50 179
LayerCount: 2
Back
Fore
SplineSet
100 638 m 1
 229 9 l 1
 177 -5 l 1
 50 626 l 1
 100 638 l 1
EndSplineSet
EndChar
StartChar: bracketright
Encoding: 93 93 285
Width: 278
Flags: MW
HStem: -147 34<-17 69 -12 69 -12 182> 641 34<99 175 94 298>
VStem: -17 315
LayerCount: 2
Back
Fore
SplineSet
-17 -147 m 1
 -12 -113 l 1
 69 -113 l 1
 175 641 l 1
 94 641 l 1
 99 675 l 1
 298 675 l 1
 182 -147 l 1
 -17 -147 l 1
EndSplineSet
Position2: "'cpsp' Capital Spacing lookup 0 per glyph data 0" dx=0 dy=20 dh=0 dv=0
EndChar
StartChar: asciicircum
Encoding: 94 94 350
Width: 456
Flags: MW
HStem: 321 336<33 303 33 303 279 453 279 399>
VStem: 33 420<321 321>
LayerCount: 2
Back
Fore
SplineSet
303 657 m 1
 453 321 l 1
 399 321 l 1
 290 566 l 1
 282 596 l 1
 267 566 l 1
 87 321 l 1
 33 321 l 1
 279 657 l 1
 303 657 l 1
EndSplineSet
EndChar
StartChar: underscore
Encoding: 95 95 281
Width: 496
Flags: MW
HStem: -191 48<-50 439 -57 446>
VStem: -57 503<-191 -143>
LayerCount: 2
Back
Fore
SplineSet
446 -143 m 1
 439 -191 l 1
 -57 -191 l 1
 -50 -143 l 1
 446 -143 l 1
EndSplineSet
EndChar
StartChar: grave
Encoding: 96 96 360
Width: 266
Flags: MW
HStem: 487 166<142.5 268.5>
VStem: 82 196
LayerCount: 2
Back
Fore
SplineSet
155 653 m 0
 170 653 172 648 186 629 c 2
 267 523 l 2
 276 511 279 505 278 497 c 0
 278 491 273 487 264 487 c 0
 256 487 247 492 242 496 c 2
 92 599 l 2
 84 604 81 609 82 616 c 0
 83 630 130 653 155 653 c 0
EndSplineSet
Substitution2: "'case' Case-Sensitive Forms lookup 11 subtable" grave.case
Substitution2: "'aalt' Access All Alternates lookup 0 subtable" grave.case
EndChar
StartChar: a
Encoding: 97 97 111
Width: 511
GlyphClass: 2
Flags: MW
HStem: -10 78<88.5 216.5> 398 37<269.5 294 208 309.5>
VStem: 26 134<110 148 110 192> 294 128<20.5 110>
LayerCount: 2
Back
Fore
SplineSet
435 75 m 0
 446 75 460 79 473 88 c 1
 485 60 l 1
 442 19 376 -10 330 -10 c 0
 299 -10 294 5 294 36 c 0
 294 61 302 110 311 165 c 1
 253 34 181 -10 118 -10 c 0
 59 -10 26 36 26 112 c 0
 26 272 137 435 279 435 c 0
 309 435 338 422 353 397 c 1
 359 420 l 1
 488 434 l 1
 465 338 l 2
 442 238 422 128 422 92 c 0
 422 81 426 75 435 75 c 0
192 68 m 0
 241 68 340 255 340 353 c 0
 340 378 324 398 295 398 c 0
 244 398 200 333 176 241 c 0
 166 203 160 165 160 131 c 0
 160 89 173 68 192 68 c 0
EndSplineSet
Substitution2: "Single Substitution lookup 21 subtable" ordfeminine
Substitution2: "'aalt' Access All Alternates lookup 0 subtable" ordfeminine
EndChar
StartChar: b
Encoding: 98 98 122
Width: 487
GlyphClass: 2
Flags: MW
HStem: -7 35<201 237 201 267.5> 358 77<283.5 405.5>
VStem: 50 114<72.5 132.5 64 147> 116 138<594.5 714.5> 342 134<275 314>
LayerCount: 2
Back
Fore
SplineSet
208 730 m 0xd8
 236 730 254 726 254 703 c 0
 254 676 206 440 183 247 c 1xd8
 230 375 305 435 374 435 c 0
 437 435 476 386 476 309 c 0
 476 170 356 -7 179 -7 c 0
 83 -7 50 43 50 102 c 0xe8
 50 192 116 550 116 639 c 0
 116 660 106 668 83 668 c 0
 76 668 66 667 59 666 c 1
 53 698 l 1
 112 720 170 730 208 730 c 0xd8
309 358 m 0xe8
 258 358 164 177 164 88 c 0
 164 40 191 28 211 28 c 0
 263 28 304 105 324 176 c 0
 336 216 342 260 342 290 c 0
 342 338 325 358 309 358 c 0xe8
EndSplineSet
EndChar
StartChar: c
Encoding: 99 99 123
Width: 416
GlyphClass: 2
Flags: MW
HStem: -9 71<205.5 213> 400 35<249.5 280>
VStem: 18 134<132.5 194 132.5 236.5> 310 105<350.5 367 321 374>
AnchorPoint: "Anchor-0" 188 0 basechar 0
LayerCount: 2
Back
Fore
SplineSet
278 435 m 0
 356 435 415 395 415 339 c 0
 415 303 390 268 342 268 c 0
 322 268 294 275 294 306 c 0
 294 330 310 339 310 362 c 0
 310 386 292 400 268 400 c 0
 231 400 203 369 181 316 c 0
 161 269 152 219 152 169 c 0
 152 96 182 62 229 62 c 0
 268 62 314 82 351 112 c 1
 373 92 l 1
 327 32 250 -9 176 -9 c 0
 75 -9 18 54 18 158 c 0
 18 315 144 435 278 435 c 0
EndSplineSet
EndChar
StartChar: d
Encoding: 100 100 127
Width: 511
GlyphClass: 2
Flags: MW
HStem: -10 78<85.5 204.5> 398 37<252.5 277.5 190.5 290.5>
VStem: 12 134<113.5 152.5 113.5 194> 291 131<22 102>
LayerCount: 2
Back
Fore
SplineSet
508 701 m 0
 508 686 498 634 486 567 c 0
 462 424 424 189 422 102 c 0
 422 91 425 75 441 75 c 0
 445 75 458 77 472 86 c 1
 485 59 l 1
 432 14 376 -10 339 -10 c 0
 309 -10 291 7 291 37 c 0
 291 82 296 125 304 173 c 1
 251 37 175 -10 114 -10 c 0
 57 -10 12 38 12 114 c 0
 12 274 120 435 261 435 c 0
 294 435 326 421 339 393 c 1
 355 494 370 613 370 644 c 0
 370 660 357 668 336 668 c 0
 329 668 320 668 312 666 c 1
 307 698 l 1
 366 721 420 730 464 730 c 0
 490 730 508 726 508 701 c 0
181 68 m 0
 228 68 326 251 326 348 c 0
 326 381 304 398 277 398 c 0
 228 398 186 334 162 244 c 0
 152 207 146 169 146 136 c 0
 146 91 161 68 181 68 c 0
EndSplineSet
EndChar
StartChar: f
Encoding: 102 102 140
Width: 301
GlyphClass: 2
Flags: MW
HStem: -245 34<-25.5 5.5 -25.5 38> 389 39<51 102 33 107 238 293> 405 23<313 313> 696 34<312 340>
VStem: -154 107<-183.5 -169.5 -193 -143> 358 107<655 665 626.5 675>
LayerCount: 2
Back
Fore
SplineSet
340 730 m 0xdc
 415 730 465 689 465 641 c 0
 465 612 445 573 394 573 c 0
 364 573 343 587 343 609 c 0
 343 628 358 644 358 666 c 0
 358 684 350 696 330 696 c 0
 294 696 256 652 241 454 c 1
 238 428 l 1
 313 428 l 1xdc
 313 405 l 1xbc
 293 389 l 1
 234 389 l 1
 202 102 l 1
 178 -90 108 -245 -32 -245 c 0
 -100 -245 -154 -208 -154 -159 c 0
 -154 -127 -132 -91 -83 -91 c 0
 -55 -91 -33 -103 -33 -128 c 0
 -33 -147 -47 -158 -47 -181 c 0
 -47 -205 -32 -211 -19 -211 c 0
 30 -211 51 -123 67 72 c 1
 102 389 l 1
 33 389 l 1
 51 428 l 1
 107 428 l 1
 108 440 l 1
 126 605 208 730 340 730 c 0xdc
EndSplineSet
Substitution2: "Single Substitution lookup 27 subtable" f.ss04
Substitution2: "Single Substitution lookup 26 subtable" f.ss06
Substitution2: "Single Substitution lookup 25 subtable" f.ss02
Substitution2: "Single Substitution lookup 24 subtable" f.ss01
Substitution2: "Single Substitution lookup 23 subtable" f.ss07
Substitution2: "Single Substitution lookup 22 subtable" f.ss03
Substitution2: "Single Substitution lookup 21 subtable" f.ss05
Substitution2: "'ss04' Style Set 4 lookup 19 subtable" f.ss04
Substitution2: "'ss03' Style Set 3 lookup 18 subtable" f.ss03
Substitution2: "'ss02' Style Set 2 lookup 17 subtable" f.ss02
Substitution2: "'ss01' Style Set 1 lookup 16 subtable" f.ss01
Substitution2: "'salt' Stylistic Alternatives lookup 15 subtable" f.ss01
AlternateSubs2: "'aalt' Access All Alternates lookup 1 subtable" f.ss01 f.ss02 f.ss03 f.ss04
Position2: "Single Positioning lookup 4 subtable" dx=0 dy=0 dh=50 dv=0
EndChar
StartChar: g
Encoding: 103 103 141
Width: 481
GlyphClass: 2
Flags: MW
HStem: -245 33<130 214 130 238.5> 127 31<202.5 236 202.5 276.5> 405 30<247 280> 410 20G 449 61<419 491>
VStem: -31 94<-163.5 -127> 20 104<18.5 104> 42 131<222 238.5 200 293> 308 132<323.5 341.5 269.5 361.5> 322 115<-141 -108>
LayerCount: 2
Back
Fore
SplineSet
475 510 m 0xe940
 507 510 530 495 530 465 c 0
 530 446 517 414 480 414 c 0
 441 414 451 449 425 449 c 0
 413 449 391 440 372 420 c 1
 419 401 440 363 440 320 c 0
 440 219 356 127 197 127 c 0
 176 127 158 129 141 132 c 1
 131 122 124 110 124 98 c 0xea80
 124 64 187 57 257 43 c 0
 342 26 437 4 437 -90 c 0
 437 -192 319 -245 158 -245 c 0
 32 -245 -31 -212 -31 -152 c 0xe440
 -31 -102 17 -62 91 -36 c 1
 50 -22 20 -1 20 38 c 0
 20 68 39 95 78 125 c 2xe240
 104 145 l 1
 61 165 42 201 42 243 c 0
 42 343 125 435 286 435 c 0xe140
 307 435 325 433 341 430 c 1xd140
 379 473 428 510 475 510 c 0xe940
294 237 m 0xe180
 305 268 308 308 308 339 c 0
 308 384 293 405 267 405 c 0
 227 405 203 371 188 326 c 0
 178 294 173 254 173 223 c 0
 173 177 188 158 217 158 c 0
 255 158 279 191 294 237 c 0xe180
322 -130 m 0xe440
 322 -86 262 -72 196 -59 c 0
 174 -55 151 -51 129 -46 c 1
 96 -62 63 -102 63 -144 c 0
 63 -183 92 -212 168 -212 c 0
 260 -212 322 -173 322 -130 c 0xe440
EndSplineSet
EndChar
StartChar: h
Encoding: 104 104 144
Width: 520
GlyphClass: 2
Flags: MW
HStem: -10 21G<328.5 358.5> 0 21G<31 155 31 31> 350 85<292.5 415.5>
VStem: 118 139<608.5 713.5> 348 129<314.5 327>
LayerCount: 2
Back
Fore
SplineSet
484 88 m 1x78
 496 60 l 1
 441 16 377 -10 340 -10 c 0
 317 -10 298 7 298 35 c 0xb8
 298 87 348 266 348 316 c 0
 348 338 337 350 318 350 c 0
 267 350 197 228 170 126 c 1
 170 123 l 1
 155 0 l 1
 31 0 l 1
 45 86 118 573 118 644 c 0
 118 660 105 668 85 668 c 0
 78 668 70 668 61 666 c 1
 56 698 l 1
 118 722 177 730 208 730 c 0
 239 730 257 726 257 701 c 0
 257 693 253 670 247 640 c 0
 238 589 226 518 218 464 c 2
 187 250 l 1
 228 337 297 435 388 435 c 0
 443 435 477 398 477 345 c 0
 477 284 429 140 428 98 c 0
 428 91 430 75 447 75 c 0
 453 75 467 77 484 88 c 1x78
EndSplineSet
EndChar
StartChar: i
Encoding: 105 105 145
Width: 276
GlyphClass: 2
Flags: MW
HStem: -10 21G<84.5 118> 411 20G<164 197.5> 532 125<162 194>
VStem: 50 130<20.5 113> 88 139<335 415> 100 156<581 607>
LayerCount: 2
Back
Fore
SplineSet
186 657 m 0xe4
 228 657 256 636 256 604 c 0
 256 558 219 532 169 532 c 0
 128 532 100 553 100 585 c 0
 100 629 138 657 186 657 c 0xe4
244 60 m 1xf0
 189 16 137 -10 99 -10 c 0
 70 -10 50 5 50 36 c 0xf0
 50 68 65 146 76 223 c 0
 84 283 88 324 88 346 c 0
 88 367 72 371 58 371 c 0
 53 371 46 370 42 369 c 1
 37 405 l 1
 88 421 142 431 186 431 c 0
 209 431 227 428 227 402 c 0xe8
 227 388 209 310 195 230 c 0
 186 176 180 124 180 102 c 0
 180 91 181 75 197 75 c 0
 202 75 216 77 233 88 c 1
 244 60 l 1xf0
EndSplineSet
Substitution2: "'locl' Localized Forms in Latin lookup 7 subtable" i.loclTRK
Substitution2: "'locl' Localized Forms in Latin lookup 6 subtable" i.loclTRK
Substitution2: "'locl' Localized Forms in Latin lookup 4 subtable" i.loclTRK
Substitution2: "'locl' Localized Forms in Latin lookup 3 subtable" i.loclTRK
Substitution2: "'locl' Localized Forms in Latin lookup 2 subtable" i.loclTRK
Substitution2: "'aalt' Access All Alternates lookup 0 subtable" i.loclTRK
EndChar
StartChar: j
Encoding: 106 106 155
Width: 263
GlyphClass: 2
Flags: MW
HStem: -245 34<-29 -3.5 -29 27> 411 20G<163 196.5> 532 125<162 194>
VStem: -157 107<-183.5 -169.5 -193 -143> 100 156<581 607>
LayerCount: 2
Back
Fore
SplineSet
186 657 m 0
 228 657 256 636 256 604 c 0
 256 558 219 532 169 532 c 0
 128 532 100 553 100 585 c 0
 100 629 138 657 186 657 c 0
185 431 m 0
 208 431 226 428 226 402 c 0
 226 384 198 226 178 73 c 0
 155 -110 89 -245 -35 -245 c 0
 -103 -245 -157 -208 -157 -159 c 0
 -157 -127 -135 -91 -86 -91 c 0
 -58 -91 -36 -103 -36 -128 c 0
 -36 -147 -50 -158 -50 -181 c 0
 -50 -205 -35 -211 -23 -211 c 0
 16 -211 24 -159 47 36 c 1
 73 224 l 2
 82 285 87 324 87 344 c 0
 87 368 71 371 57 371 c 0
 52 371 45 370 41 369 c 1
 36 405 l 1
 87 421 141 431 185 431 c 0
EndSplineSet
Substitution2: "Single Substitution lookup 23 subtable" j.ss01
EndChar
StartChar: k
Encoding: 107 107 157
Width: 506
GlyphClass: 2
Flags: MW
HStem: -6 21G<338 377> 0 21G<31 155 31 31> 364 71<308 425>
VStem: 31 463<0 65> 359 124<336 344.5>
AnchorPoint: "Anchor-0" 256 0 basechar 0
LayerCount: 2
Back
Fore
SplineSet
479 91 m 1x70
 494 65 l 1
 446 22 395 -6 359 -6 c 0
 317 -6 299 14 287 45 c 1xb0
 235 196 l 1
 329 237 359 298 359 335 c 0
 359 354 350 364 336 364 c 0
 280 364 205 258 174 154 c 1
 170 123 l 1
 155 0 l 1
 31 0 l 1
 45 86 118 573 118 644 c 0
 118 660 105 668 85 668 c 0
 78 668 70 668 61 666 c 1
 56 698 l 1
 118 722 177 730 208 730 c 0
 239 730 257 726 257 701 c 0
 257 693 252 670 247 640 c 0
 238 589 226 518 218 464 c 2
 189 261 l 1
 232 348 298 435 399 435 c 0
 451 435 483 402 483 362 c 0x68
 483 310 430 264 352 228 c 1
 400 96 l 2
 405 83 411 74 425 74 c 0
 437 74 455 79 479 91 c 1x70
EndSplineSet
EndChar
StartChar: l
Encoding: 108 108 159
Width: 261
GlyphClass: 2
Flags: MW
HStem: -10 21G<72.5 107.5>
VStem: 37 131<20.5 102>
AnchorPoint: "Anchor-0" 99 0 basechar 0
LayerCount: 2
Back
Fore
SplineSet
116 644 m 0
 116 660 103 668 83 668 c 0
 76 668 68 668 59 666 c 1
 54 698 l 1
 114 720 169 730 212 730 c 0
 237 730 255 726 255 701 c 0
 255 684 242 621 228 539 c 0
 203 387 171 180 168 102 c 0
 168 91 169 75 187 75 c 0
 192 75 211 77 228 88 c 1
 241 60 l 1
 187 16 128 -10 87 -10 c 0
 58 -10 37 5 37 36 c 0
 37 63 61 219 83 370 c 0
 100 488 116 602 116 644 c 0
EndSplineSet
EndChar
StartChar: m
Encoding: 109 109 165
Width: 781
GlyphClass: 2
Flags: MW
HStem: -10 21G<589 622.5> 0 21G<35 158 35 35 298 421 298 298> 350 85<293 413.5> 411 20G<144.5 181>
VStem: 343 128<282.5 371.5> 609 129<314 325.5>
LayerCount: 2
Back
Fore
SplineSet
746 88 m 1x6c
 757 60 l 1
 703 16 641 -10 604 -10 c 0
 574 -10 560 7 560 35 c 0xac
 560 87 609 264 609 314 c 0
 609 337 598 350 580 350 c 0
 528 350 460 223 436 119 c 1
 421 0 l 1
 298 0 l 1
 315 93 343 254 343 311 c 0
 343 338 334 350 317 350 c 0x6c
 269 350 203 234 175 134 c 1
 174 130 l 1
 158 0 l 1
 35 0 l 1
 52 101 82 277 82 339 c 0
 82 359 73 371 53 371 c 0
 48 371 41 370 37 369 c 1
 33 405 l 1
 74 418 120 431 169 431 c 0
 193 431 218 427 218 405 c 0x5c
 218 390 204 319 193 257 c 1
 235 343 301 435 390 435 c 0
 437 435 471 398 471 345 c 0
 471 328 468 304 463 278 c 1
 505 357 567 435 649 435 c 0
 704 435 738 398 738 345 c 0
 738 283 691 140 690 98 c 0
 690 91 692 75 709 75 c 0
 715 75 729 77 746 88 c 1x6c
EndSplineSet
EndChar
StartChar: n
Encoding: 110 110 166
Width: 524
GlyphClass: 2
Flags: MW
HStem: -10 21G<332.5 362.5> 0 21G<36 159 36 36> 350 85<296.5 419.5> 411 20G<144.5 181>
VStem: 352 129<314.5 327>
AnchorPoint: "Anchor-0" 247 0 basechar 0
LayerCount: 2
Back
Fore
SplineSet
488 88 m 1x58
 500 60 l 1
 445 16 381 -10 344 -10 c 0
 321 -10 302 7 302 35 c 0
 302 87 352 266 352 316 c 0
 352 338 341 350 322 350 c 0xa8
 271 350 201 227 174 124 c 1
 159 0 l 1
 36 0 l 1
 53 101 82 277 82 339 c 0
 82 359 73 371 53 371 c 0
 48 371 41 370 37 369 c 1
 33 405 l 1
 74 418 120 431 169 431 c 0
 193 431 218 427 218 405 c 0x58
 218 390 204 317 193 253 c 1
 234 340 302 435 392 435 c 0
 447 435 481 398 481 345 c 0x68
 481 284 433 140 432 98 c 0
 432 91 434 75 451 75 c 0
 457 75 471 77 488 88 c 1x58
EndSplineSet
EndChar
StartChar: o
Encoding: 111 111 171
Width: 462
GlyphClass: 2
Flags: MW
HStem: -10 43<185 224.5 185 267.5> 393 42<238.5 278>
VStem: 18 131<111 155.5 97.5 229.5> 313 131<270.5 314.5 196 327.5>
LayerCount: 2
Back
Fore
SplineSet
282 435 m 0
 396 435 444 362 444 267 c 0
 444 125 355 -10 180 -10 c 0
 66 -10 18 64 18 158 c 0
 18 301 107 435 282 435 c 0
262 393 m 0
 215 393 187 340 169 278 c 0
 156 231 149 178 149 133 c 0
 149 62 169 33 201 33 c 0
 248 33 277 87 295 152 c 0
 307 197 313 249 313 292 c 0
 313 363 294 393 262 393 c 0
EndSplineSet
Substitution2: "Single Substitution lookup 21 subtable" ordmasculine
Substitution2: "'aalt' Access All Alternates lookup 0 subtable" ordmasculine
EndChar
StartChar: p
Encoding: 112 112 181
Width: 498
GlyphClass: 2
Flags: MW
HStem: -239 31<-4 -4 138 141> -10 38<220 245.5 207 307> 358 77<293.5 411.5> 411 20G<143.5 180>
VStem: 352 133<274 312>
LayerCount: 2
Back
Fore
SplineSet
383 435 m 0xe8
 440 435 485 388 485 311 c 0
 485 151 378 -10 236 -10 c 0
 204 -10 173 3 159 30 c 1
 145 -65 133 -161 132 -196 c 0
 132 -204 135 -208 141 -208 c 2
 204 -206 l 1
 199 -239 l 1
 -40 -239 l 1
 -35 -206 l 1
 -4 -208 l 1
 4 -207 8 -201 10 -188 c 0
 27 -86 81 286 81 338 c 0
 81 358 72 370 52 370 c 0
 47 370 40 369 36 368 c 1
 32 405 l 1
 73 418 119 431 168 431 c 0
 192 431 217 427 217 406 c 0xd8
 217 390 202 310 190 244 c 1
 243 387 321 435 383 435 c 0xe8
336 183 m 0
 346 220 352 258 352 290 c 0
 352 334 337 358 317 358 c 0
 270 358 171 174 171 78 c 0
 171 44 194 28 220 28 c 0
 271 28 313 93 336 183 c 0
EndSplineSet
EndChar
StartChar: q
Encoding: 113 113 183
Width: 478
GlyphClass: 2
Flags: MW
HStem: -239 31<237 237 383 386> -10 78<85.5 205> 398 37<253 276 190.5 291.5>
VStem: 12 135<113.5 152 113.5 194>
LayerCount: 2
Back
Fore
SplineSet
475 434 m 1
 423 230 377 -160 377 -195 c 0
 377 -204 380 -208 386 -208 c 2
 449 -206 l 1
 444 -239 l 1
 201 -239 l 1
 206 -206 l 1
 237 -208 l 1
 245 -207 249 -201 251 -188 c 0
 267 -73 287 64 307 184 c 1
 255 39 177 -10 114 -10 c 0
 57 -10 12 38 12 114 c 0
 12 274 120 435 261 435 c 0
 291 435 318 424 334 401 c 1
 341 420 l 1
 475 434 l 1
181 68 m 0
 229 68 327 251 327 348 c 0
 327 381 305 398 278 398 c 0
 228 398 186 333 163 244 c 0
 153 206 147 168 147 136 c 0
 147 91 162 68 181 68 c 0
EndSplineSet
EndChar
StartChar: r
Encoding: 114 114 184
Width: 421
GlyphClass: 2
Flags: MW
HStem: 0 21G<36 159 36 36> 268 160<343.5 378.5> 351 77<282 378.5> 411 20G<144.5 181>
VStem: 33 394<331 405> 306 121<289 368.5>
AnchorPoint: "Anchor-0" 98 0 basechar 0
LayerCount: 2
Back
Fore
SplineSet
353 428 m 0xa4
 404 428 427 387 427 350 c 0
 427 312 404 268 353 268 c 0
 334 268 306 274 306 304 c 0xc4
 306 320 313 328 313 339 c 0
 313 346 309 351 303 351 c 0xa4
 261 351 197 226 173 115 c 1
 159 0 l 1
 36 0 l 1
 53 101 82 277 82 339 c 0
 82 359 73 371 53 371 c 0
 48 371 41 370 37 369 c 1
 33 405 l 1
 74 418 120 431 169 431 c 0
 193 431 218 427 218 405 c 0x98
 218 391 206 324 195 263 c 1
 229 349 284 428 353 428 c 0xa4
EndSplineSet
EndChar
StartChar: t
Encoding: 116 116 194
Width: 348
GlyphClass: 2
Flags: MW
HStem: -9 21G<111 176> -9 79<111 232> 387 38<54 109 31 115 244 312> 403 22<341 341>
VStem: 31 310<387 425> 59 134<39 117>
AnchorPoint: "Anchor-0" 154 0 basechar 0
LayerCount: 2
Back
Fore
SplineSet
237 387 m 1xa8
 228 341 219 294 214 262 c 0
 205 210 193 130 193 104 c 0
 193 84 201 70 221 70 c 0
 243 70 269 87 291 106 c 1x64
 314 84 l 1
 268 31 211 -9 141 -9 c 0
 81 -9 59 21 59 57 c 0
 59 86 69 143 82 226 c 2
 109 387 l 1
 31 387 l 1
 54 425 l 1
 115 425 l 1
 130 517 l 1xa4
 265 540 l 1
 264 532 254 482 244 425 c 1
 341 425 l 1xa8
 341 403 l 1x98
 312 387 l 1
 237 387 l 1xa8
EndSplineSet
EndChar
StartChar: u
Encoding: 117 117 198
Width: 525
GlyphClass: 2
Flags: MW
HStem: -10 93<98 221> 411 20G<157.5 193.5> 413 20G<494 494>
VStem: 44 125<48 149> 304 132<20.5 113>
LayerCount: 2
Back
Fore
SplineSet
487 88 m 1xb8
 498 60 l 1
 434 7 375 -10 336 -10 c 0
 311 -10 304 5 304 36 c 0
 304 63 311 109 319 165 c 1
 247 34 188 -10 126 -10 c 0
 70 -10 44 26 44 70 c 0
 44 131 93 302 94 342 c 0
 95 366 78 371 57 371 c 0
 49 371 41 370 37 369 c 1
 33 405 l 1
 84 418 132 431 183 431 c 0
 204 431 224 426 224 405 c 0xd8
 224 377 169 176 169 122 c 0
 169 100 177 83 196 83 c 0
 246 83 319 211 338 295 c 1
 357 416 l 1
 494 433 l 1
 455 229 436 134 436 92 c 0
 436 81 440 75 449 75 c 0
 457 75 470 77 487 88 c 1xb8
EndSplineSet
EndChar
StartChar: v
Encoding: 118 118 207
Width: 432
GlyphClass: 2
Flags: MW
HStem: -5 21G<167 201 167 167> 324 111<343 344.5> 411 20G<118.5 149.5> 415 20G<343 386>
VStem: 366 68<303 309>
LayerCount: 2
Back
Fore
SplineSet
364 435 m 0x98
 408 435 434 407 434 361 c 0x98
 434 245 294 65 201 -5 c 1
 167 -5 l 1
 75 341 l 1
 76 341 l 1
 70 366 62 374 47 374 c 0
 42 374 34 373 24 371 c 1
 18 405 l 1
 55 418 103 431 134 431 c 0
 165 431 188 420 200 364 c 1
 199 364 l 1xa8
 257 102 l 1
 315 166 366 242 366 299 c 0
 366 319 353 324 336 324 c 0xc8
 310 324 296 343 296 375 c 0
 296 411 322 435 364 435 c 0x98
EndSplineSet
EndChar
StartChar: x
Encoding: 120 120 213
Width: 488
GlyphClass: 2
Flags: MW
HStem: -10 120<53 70 53 76.5> -6 21G<299.5 326.5> 314 119<424.5 442 418.5 458> 342 91<373 442> 374 57
VStem: -3 500<26 397.5>
LayerCount: 2
Back
Fore
SplineSet
378 342 m 0x54
 368 342 358 339 344 319 c 2
 300 252 l 1
 366 95 l 2
 371 83 377 80 386 80 c 0
 397 80 415 86 442 97 c 1
 456 73 l 1
 398 23 343 -6 310 -6 c 0
 289 -6 276 0 264 21 c 1x54
 213 139 l 1
 169 70 l 2
 134 14 100 -10 53 -10 c 0
 20 -10 -3 9 -3 43 c 0
 -4 81 20 109 53 110 c 1
 87 110 93 81 117 82 c 0
 126 82 136 85 150 105 c 2
 197 177 l 1
 127 341 l 2
 116 366 112 374 94 374 c 0
 81 374 67 373 49 371 c 1x8c
 42 405 l 1
 84 418 146 431 184 431 c 0
 212 431 229 419 245 381 c 2
 284 289 l 1
 325 353 l 2
 360 409 395 433 442 433 c 1
 475 434 497 415 497 380 c 0
 498 343 474 314 442 314 c 0x64
 407 314 401 342 378 342 c 0x54
EndSplineSet
EndChar
StartChar: y
Encoding: 121 121 214
Width: 417
GlyphClass: 2
Flags: MW
HStem: -239 131<-64 -30 -71 -1.5> 325 111<308 371> 412 20G<103.5 134.5> 416 20G<328 371>
VStem: 352 67<277.5 384.5>
LayerCount: 2
Back
Fore
SplineSet
349 436 m 0x98
 393 436 419 408 419 361 c 0x98
 419 286 343 147 260 26 c 1
 152 -135 36 -239 -39 -239 c 0
 -89 -239 -113 -208 -113 -169 c 0
 -113 -134 -87 -108 -55 -108 c 0
 -5 -108 -7 -156 24 -157 c 0
 54 -157 106 -111 166 -36 c 1
 62 342 l 2
 55 367 47 375 32 375 c 0
 27 375 19 374 9 372 c 1
 3 406 l 1
 40 419 88 432 119 432 c 0
 150 432 171 422 185 365 c 2xa8
 253 87 l 1
 307 171 352 255 352 300 c 0
 352 320 339 324 321 325 c 1xc8
 295 325 281 344 281 376 c 0
 281 412 307 436 349 436 c 0x98
EndSplineSet
Substitution2: "Single Substitution lookup 23 subtable" y.ss01
Substitution2: "'ss01' Style Set 1 lookup 16 subtable" y.ss01
Substitution2: "'salt' Stylistic Alternatives lookup 15 subtable" y.ss01
Substitution2: "'aalt' Access All Alternates lookup 0 subtable" y.ss01
EndChar
StartChar: braceleft
Encoding: 123 123 282
Width: 279
Flags: MW
HStem: -146 37<108.5 205 177 199> 638 37<271.5 282 282 309>
VStem: 39 113<-87.5 -65.5> 77 111<189.5 218.5 179.5 222>
LayerCount: 2
Back
Fore
SplineSet
315 675 m 1xd0
 309 638 l 1
 282 638 l 2
 261 638 249 621 245 589 c 2
 212 358 l 2
 204 296 176 280 88 267 c 1
 162 253 188 241 188 196 c 0xd0
 188 163 152 -51 152 -77 c 0
 152 -98 159 -109 177 -109 c 2
 205 -109 l 1
 199 -146 l 1
 150 -146 l 2
 67 -146 39 -131 39 -82 c 0xe0
 39 -49 77 172 77 207 c 0
 77 237 66 243 36 253 c 1
 40 281 l 1
 78 289 93 309 100 358 c 2
 132 582 l 2
 142 654 171 675 266 675 c 2
 315 675 l 1xd0
EndSplineSet
Position2: "'cpsp' Capital Spacing lookup 0 per glyph data 0" dx=0 dy=20 dh=0 dv=0
EndChar
StartChar: bar
Encoding: 124 124 338
Width: 226
Flags: MW
HStem: -239 969<30 212 30 212>
VStem: 30 182
LayerCount: 2
Back
Fore
SplineSet
166 730 m 1
 212 730 l 1
 76 -239 l 1
 30 -239 l 1
 166 730 l 1
EndSplineSet
EndChar
StartChar: braceright
Encoding: 125 125 283
Width: 281
Flags: MW
HStem: -146 37<-19 14 -13 14 14 24.5 -13 30> 638 37<97 119 91 146>
VStem: 108 111<310.5 339.5 307 349.5> 144 113<594.5 616.5>
LayerCount: 2
Back
Fore
SplineSet
-19 -146 m 1xe0
 -13 -109 l 1
 14 -109 l 2
 35 -109 47 -92 51 -60 c 2
 84 171 l 2
 92 233 120 249 208 262 c 1
 134 276 108 288 108 333 c 0xe0
 108 366 144 580 144 606 c 0
 144 627 137 638 119 638 c 2
 91 638 l 1
 97 675 l 1
 146 675 l 2
 229 675 257 660 257 611 c 0xd0
 257 578 219 357 219 322 c 0
 219 292 230 286 260 276 c 1
 256 248 l 1
 218 240 203 220 196 171 c 2
 164 -53 l 2
 154 -125 125 -146 30 -146 c 2
 -19 -146 l 1xe0
EndSplineSet
Position2: "'cpsp' Capital Spacing lookup 0 per glyph data 0" dx=0 dy=20 dh=0 dv=0
EndChar
StartChar: asciitilde
Encoding: 126 126 312
Width: 447
Flags: MW
HStem: 211 56<294 336.5> 276 56<123 166>
VStem: 23 418<256 293>
LayerCount: 2
Back
Fore
SplineSet
413 328 m 1
 441 293 l 1
 406 241 358 211 315 211 c 0xe0
 253 211 195 276 137 276 c 0
 106 276 87 267 50 221 c 1
 23 256 l 1
 58 308 101 332 145 332 c 0x60
 209 332 265 267 323 267 c 0
 353 267 377 281 413 328 c 1
EndSplineSet
EndChar
StartChar: exclamdown
Encoding: 161 161 272
Width: 262
Flags: MW
HStem: 296 149<146 182.5>
VStem: 18 147<-200 -112> 71 185<356.5 385>
LayerCount: 2
Back
Fore
SplineSet
174 445 m 0xa0
 223 445 256 417 256 379 c 0
 256 334 211 296 154 296 c 0
 104 296 71 324 71 362 c 0
 71 408 118 445 174 445 c 0xa0
145 234 m 0
 157 234 159 226 158 214 c 0
 155 185 150 132 150 80 c 0
 151 19 165 -88 165 -136 c 0
 165 -195 142 -242 82 -242 c 0
 38 -242 18 -218 18 -182 c 0
 18 -150 34 -104 61 -30 c 1xc0
 79 23 118 140 127 214 c 0
 128 226 134 234 145 234 c 0
EndSplineSet
Position2: "'cpsp' Capital Spacing lookup 0 per glyph data 1" dx=0 dy=35 dh=0 dv=0
EndChar
StartChar: cent
Encoding: 162 162 303
Width: 411
Flags: MW
HStem: 113 32<237 237> 440 29<242 242 242 275.5>
VStem: 45 129<208.5 320 207.5 329> 304 99<401 411 375 421>
LayerCount: 2
Back
Fore
SplineSet
338 331 m 0
 311 331 290 342 290 367 c 0
 290 388 304 391 304 411 c 0
 304 431 286 440 265 440 c 0
 214 440 174 389 174 251 c 0
 174 164 208 145 245 145 c 0
 279 145 318 161 350 218 c 1
 377 208 l 1
 344 141 293 117 237 113 c 1
 208 -95 l 1
 163 -95 l 1
 191 113 l 1
 112 119 45 157 45 260 c 0
 45 398 133 461 242 469 c 1
 267 647 l 1
 311 647 l 1
 286 469 l 1
 360 464 403 431 403 391 c 0
 403 359 377 331 338 331 c 0
EndSplineSet
EndChar
StartChar: sterling
Encoding: 163 163 308
Width: 503
Flags: MW
HStem: -3 21G<-1 -1 412.5 420> 0 97<94.5 289 157 289 289 338 157 343> 299 30<52 122 48 126 271 386> 577 30<338.5 362.5>
VStem: 130.5 140.5 385 106<539.5 548.5 506 559.5>
LayerCount: 2
Back
Fore
SplineSet
422 461 m 0x7c
 392 461 370 477 370 500 c 0
 370 519 385 529 385 550 c 0
 385 569 373 577 352 577 c 0
 325 577 301 560 288 532 c 0
 269 490 281 405 271 329 c 1
 390 329 l 1
 386 299 l 1
 267 299 l 1
 260 241 l 1
 251 186 204 130 157 97 c 1
 289 97 l 2
 387 97 413 114 421 168 c 1
 454 168 l 1
 420 -3 l 1
 405 -3 375 0 343 0 c 2
 111 0 l 2x7c
 78 0 24 -2 -1 -3 c 1
 -1 16 l 1xbc
 56 46 98 100 106 156 c 1
 122 299 l 1
 48 299 l 1
 52 329 l 1
 126 329 l 1
 135 410 l 1
 154 547 222 607 371 607 c 0
 447 607 491 571 491 526 c 0
 491 486 457 461 422 461 c 0x7c
EndSplineSet
EndChar
StartChar: currency
Encoding: 164 164 304
Width: 439
Flags: MW
HStem: 94 40<184 222> 396 39<232 271 232 278> 415 20G<232 271>
VStem: 57 39<230.5 270> 358 41<259.5 299.5 259.5 312>
LayerCount: 2
Back
Fore
SplineSet
376 368 m 1xb8
 391 344 399 315 399 284 c 0
 399 235 379 191 347 158 c 1
 387 110 l 1
 352 79 l 1
 312 128 l 1
 279 106 241 94 203 94 c 0
 165 94 132 108 107 130 c 1
 49 80 l 1
 23 111 l 1
 80 162 l 1
 65 186 57 215 57 246 c 0
 57 294 76 337 107 370 c 1
 67 417 l 1
 102 447 l 1xb8
 142 401 l 1
 174 422 213 435 251 435 c 0
 291 435 324 421 350 399 c 1
 404 446 l 1xd8
 430 416 l 1
 376 368 l 1xb8
209 134 m 0xd8
 286 134 358 201 358 280 c 0
 358 344 311 396 245 396 c 0
 168 396 96 329 96 250 c 0
 96 186 143 134 209 134 c 0xd8
EndSplineSet
EndChar
StartChar: yen
Encoding: 165 165 309
Width: 555
Flags: MW
HStem: 0 35<178 184.5 346.5 354> 195 36<90 219 85 224 362 495> 305 36<106 189 106 206 100 189 415 509> 562 35<77 81.5 257 264 507 513 579 584>
VStem: 515.37 101.13
LayerCount: 2
Back
Fore
SplineSet
460 597 m 1
 619 597 l 1
 614 560 l 1
 584 562 l 2
 574 562 564 554 554 541 c 2
 415 341 l 1
 515 341 l 1
 509 305 l 1
 389 305 l 1
 368 274 l 1
 362 231 l 1
 499 231 l 1
 495 195 l 1
 357 195 l 1
 337 56 l 2
 335 44 339 35 354 35 c 2
 402 37 l 1
 397 0 l 1
 124 0 l 1
 129 37 l 1
 178 35 l 2
 191 35 198 42 200 57 c 2
 219 195 l 1
 85 195 l 1
 90 231 l 1
 224 231 l 1
 228 256 l 1
 206 305 l 1
 100 305 l 1
 106 341 l 1
 189 341 l 1
 97 543 l 2
 91 556 86 562 77 562 c 2
 48 560 l 1
 54 597 l 1
 322 597 l 1
 317 560 l 1
 264 562 l 2
 250 562 250 548 254 538 c 2
 354 318 l 1
 511 542 l 2
 516 549 519 562 507 562 c 2
 455 560 l 1
 460 597 l 1
EndSplineSet
EndChar
StartChar: brokenbar
Encoding: 166 166 339
Width: 234
Flags: MW
HStem: 587 20G<149 197 197 197>
VStem: 31 166
LayerCount: 2
Back
Fore
SplineSet
149 607 m 1
 197 607 l 1
 149 265 l 1
 101 265 l 1
 149 607 l 1
127 113 m 1
 79 -231 l 1
 31 -231 l 1
 79 113 l 1
 127 113 l 1
EndSplineSet
EndChar
StartChar: section
Encoding: 167 167 345
Width: 441
Flags: MW
HStem: -135 30<155.5 197 155.5 232.5> 577 30<251.5 293.5>
VStem: -2 106<-73.5 -54 -79 -21> 27 112<181 279.5> 69 113<425 528> 267 113<-56 47.5> 309 112<192.5 291.5> 345 105<526 545.5 493 551>
LayerCount: 2
Back
Fore
SplineSet
374 442 m 0xc9
 341 442 326 460 326 483 c 0
 326 510 345 515 345 537 c 0xc9
 345 565 310 577 277 577 c 0
 226 577 182 550 182 506 c 0
 182 479 202 461 231 445 c 2
 345 379 l 1
 401 348 421 311 421 272 c 0xca
 421 216 389 169 319 135 c 1
 363 103 380 67 380 28 c 0
 380 -69 298 -135 167 -135 c 0
 82 -135 -2 -105 -2 -42 c 0
 -2 0 29 30 74 30 c 0
 108 30 122 12 122 -11 c 0
 122 -38 104 -43 104 -65 c 0xe4
 104 -93 139 -105 172 -105 c 0
 222 -105 267 -78 267 -34 c 0
 267 -7 247 11 218 28 c 2
 104 93 l 2
 48 124 27 161 27 201 c 0xd4
 27 256 60 303 130 337 c 1
 85 369 69 406 69 444 c 0
 69 541 151 607 281 607 c 0
 367 607 450 577 450 514 c 0
 450 472 420 442 374 442 c 0xc9
248 265 m 1xd2
 160 317 l 1
 146 305 139 289 139 270 c 0
 139 245 158 231 201 208 c 1
 288 155 l 1
 303 168 309 183 309 202 c 0
 309 227 291 241 248 265 c 1xd2
EndSplineSet
EndChar
StartChar: dieresis
Encoding: 168 168 358
Width: 348
Flags: MW
HStem: 532 125<114 146 308 340>
VStem: 52 156<581 607> 246 156<581 607>
LayerCount: 2
Back
Fore
SplineSet
138 657 m 0
 180 657 208 636 208 604 c 0
 208 558 171 532 121 532 c 0
 80 532 52 553 52 585 c 0
 52 629 90 657 138 657 c 0
332 657 m 0
 374 657 402 636 402 604 c 0
 402 558 365 532 315 532 c 0
 274 532 246 553 246 585 c 0
 246 629 284 657 332 657 c 0
EndSplineSet
Substitution2: "'case' Case-Sensitive Forms lookup 11 subtable" dieresis.case
Substitution2: "'aalt' Access All Alternates lookup 0 subtable" dieresis.case
EndChar
StartChar: copyright
Encoding: 169 169 343
Width: 684
Flags: MW
HStem: -10 38<251.5 432.5 251.5 443> 130 31<347 366> 158 75<460 473 473 476> 372 72 441 29<358 419 320 419.5> 570 37<273 454.5>
VStem: 43 40<198.5 319.5 198.5 326.5> 179 119<231 290.5 223 328.5> 474 25<371 382> 623 41<276.5 398>
LayerCount: 2
Back
Fore
SplineSet
391 607 m 0xcfc0
 548 607 664 488 664 336 c 0
 664 203 571 -10 315 -10 c 0
 159 -10 43 109 43 260 c 0
 43 393 136 607 391 607 c 0xcfc0
83 265 m 0
 83 132 184 28 319 28 c 0
 546 28 623 222 623 331 c 0
 623 465 523 570 386 570 c 0
 160 570 83 374 83 265 c 0
385 470 m 0
 453 470 465 444 508 444 c 1
 502 418 499 391 499 373 c 1xd7c0
 474 371 l 1
 471 409 437 441 402 441 c 0
 314 441 298 325 298 256 c 0
 298 190 325 161 369 161 c 0xcfc0
 407 161 446 193 460 233 c 1
 487 233 l 1xafc0
 478 190 476 178 476 158 c 1
 473 158 l 2
 431 158 392 130 340 130 c 0
 245 130 179 189 179 273 c 0
 179 384 255 470 385 470 c 0
EndSplineSet
EndChar
StartChar: ordfeminine
Encoding: 170 170 241
Width: 320
GlyphClass: 2
Flags: MW
HStem: 342 42<86 174.5> 350 31<306 308 306 329> 467 31<187.5 217> 585 30<184.5 208.5>
VStem: 36 102<403.5 429 403.5 433> 68 95<540 562.5 540 571> 228 96<550.5 565.5>
LayerCount: 2
Back
Fore
SplineSet
36 400 m 0xba
 36 466 85 498 221 498 c 1
 225 524 l 2
 226 531 228 545 228 556 c 0
 228 575 218 585 199 585 c 0
 170 585 163 573 163 552 c 0
 163 528 140 514 110 514 c 0
 88 514 68 526 68 551 c 0
 68 591 111 615 200 615 c 0
 284 615 324 593 324 545 c 0
 324 535 322 521 321 515 c 2
 303 388 l 2
 302 383 304 381 308 381 c 2
 334 382 l 1
 329 350 l 1
 201 350 l 1x76
 209 387 l 1
 190 357 152 342 111 342 c 0
 61 342 36 362 36 400 c 0xba
138 412 m 0x7a
 138 395 146 384 162 384 c 0
 187 384 209 414 214 451 c 1
 217 467 l 1
 158 467 138 446 138 412 c 0x7a
EndSplineSet
EndChar
StartChar: guillemotleft
Encoding: 171 171 292
Width: 491
Flags: MW
HStem: 35 342<185 277 185 277 233 368 233 412>
VStem: 24 436<206 377>
LayerCount: 2
Back
Fore
SplineSet
277 377 m 1
 156 206 l 1
 229 35 l 1
 185 35 l 1
 24 206 l 1
 233 377 l 1
 277 377 l 1
460 377 m 1
 339 206 l 1
 412 35 l 1
 368 35 l 1
 207 206 l 1
 416 377 l 1
 460 377 l 1
EndSplineSet
Position2: "'cpsp' Capital Spacing lookup 0 per glyph data 0" dx=0 dy=20 dh=0 dv=0
EndChar
StartChar: logicalnot
Encoding: 172 172 324
Width: 455
Flags: MW
HStem: 312 48<41 398 33 456>
VStem: 33 423<312 360>
LayerCount: 2
Back
Fore
SplineSet
456 360 m 1
 426 146 l 1
 375 146 l 1
 398 312 l 1
 33 312 l 1
 41 360 l 1
 456 360 l 1
EndSplineSet
EndChar
StartChar: uni00AD
Encoding: 173 173 291
Width: 253
Flags: MW
HStem: 182 62<26 225 17 233>
VStem: 17 216<182 244>
LayerCount: 2
Back
Fore
SplineSet
233 244 m 1
 225 182 l 1
 17 182 l 1
 26 244 l 1
 233 244 l 1
EndSplineSet
EndChar
StartChar: registered
Encoding: 174 174 344
Width: 477
Flags: MW
HStem: 215 31<216.5 315.5 216.5 325.5> 316 27<159 177 177 179 263 277 159 177> 387 30<254 266 266 272 254 266> 486 27<159 174 159 290 257.5 259 259 269> 576 31<216.5 315.5>
VStem: 64 34<362 460 362 469> 183 71<350 387 347.5 417 417 479 479 481> 295 71<451 465.5> 296 92<316 361 316 373> 434 35<362 460>
LayerCount: 2
Back
Fore
SplineSet
267 607 m 0xfec0
 384 607 469 527 469 411 c 0
 469 296 384 215 267 215 c 0
 149 215 64 296 64 411 c 0
 64 527 149 607 267 607 c 0xfec0
266 576 m 0
 167 576 98 509 98 411 c 0
 98 313 167 246 266 246 c 0
 365 246 434 313 434 411 c 0
 434 509 365 576 266 576 c 0
159 513 m 1
 290 513 l 2
 342 513 366 498 366 466 c 0
 366 436 346 413 305 407 c 1xff40
 335 407 369 390 370 360 c 0
 370 352 373 340 388 343 c 1
 388 316 l 1
 339 316 l 2
 309 316 296 329 296 355 c 2
 296 361 l 2
 296 385 282 387 272 387 c 2
 254 387 l 1
 254 350 l 2
 254 345 257 343 263 343 c 2
 277 343 l 1
 277 316 l 1
 159 316 l 1
 159 343 l 1
 177 343 l 2
 181 343 183 345 183 350 c 2
 183 479 l 2
 183 483 181 486 174 486 c 2
 159 486 l 1
 159 513 l 1
269 486 m 2
 259 486 l 2
 256 486 254 485 254 483 c 2
 254 417 l 1
 266 417 l 2
 286 417 295 435 295 453 c 0
 295 478 281 486 269 486 c 2
EndSplineSet
EndChar
StartChar: macron
Encoding: 175 175 362
Width: 442
Flags: MW
HStem: 560 47<157 390 150 397>
VStem: 150 247<560 607>
LayerCount: 2
Back
Fore
SplineSet
397 607 m 1
 390 560 l 1
 150 560 l 1
 157 607 l 1
 397 607 l 1
EndSplineSet
Substitution2: "'case' Case-Sensitive Forms lookup 11 subtable" macron.case
Substitution2: "'aalt' Access All Alternates lookup 0 subtable" macron.case
EndChar
StartChar: degree
Encoding: 176 176 347
Width: 362
Flags: MW
HStem: 404 49<201.5 231 201.5 241> 565 50<213.5 243>
VStem: 119 51<487.5 519.5 487.5 530.5> 273 52<498.5 530.5>
LayerCount: 2
Back
Fore
SplineSet
119 498 m 0
 119 563 171 615 236 615 c 0
 289 615 325 577 325 519 c 0
 325 456 273 404 209 404 c 0
 155 404 119 442 119 498 c 0
170 502 m 0
 170 473 188 453 215 453 c 0
 247 453 273 481 273 516 c 0
 273 545 256 565 230 565 c 0
 197 565 170 537 170 502 c 0
EndSplineSet
EndChar
StartChar: plusminus
Encoding: 177 177 333
Width: 457
Flags: MW
HStem: 0 49<-4 407 -11 413> 273 49<35 210 28 217 270 445 35 262>
VStem: -11 463<0 322>
LayerCount: 2
Back
Fore
SplineSet
295 506 m 1
 270 322 l 1
 452 322 l 1
 445 273 l 1
 262 273 l 1
 237 87 l 1
 184 87 l 1
 210 273 l 1
 28 273 l 1
 35 322 l 1
 217 322 l 1
 242 506 l 1
 295 506 l 1
413 49 m 1
 407 0 l 1
 -11 0 l 1
 -4 49 l 1
 413 49 l 1
EndSplineSet
EndChar
StartChar: uni00B2
Encoding: 178 178 262
Width: 293
Flags: MW
HStem: 403 66<105 241 241 254 50 241> 656 22<191.5 209.5>
VStem: 69 101<625 626.5> 228 106<597.5 632.5>
LayerCount: 2
Back
Fore
SplineSet
241 469 m 2
 271 469 286 480 291 495 c 1
 315 495 l 1
 304 466 294 417 291 401 c 1
 287 402 266 403 254 403 c 2
 50 403 l 1
 56 467 l 1
 141 509 l 1
 204 542 228 573 228 622 c 0
 228 643 217 656 202 656 c 0
 181 656 170 644 170 629 c 0
 170 621 172 614 172 605 c 0
 171 579 144 566 116 566 c 0
 81 566 69 584 69 606 c 0
 69 647 115 678 205 678 c 0
 279 678 334 657 334 611 c 0
 334 562 284 530 192 497 c 1
 105 469 l 1
 241 469 l 2
EndSplineSet
EndChar
StartChar: uni00B3
Encoding: 179 179 263
Width: 292
Flags: MW
HStem: 397 23<161.5 181.5 161.5 202.5> 530 21<117 143.5> 656 22<189.5 204.5>
VStem: 41 103<458.5 463> 69 103<620 623 620 635> 217 103<466 500> 221 101<600 637>
LayerCount: 2
Back
Fore
SplineSet
204 678 m 0xea
 267 678 322 662 322 621 c 0xea
 322 578 274 553 211 547 c 1
 210 544 l 1
 280 544 320 525 320 487 c 0
 320 433 250 397 155 397 c 0
 85 397 41 413 41 450 c 0
 41 476 65 497 98 497 c 0
 126 497 144 483 144 463 c 0
 144 454 139 444 139 437 c 0xf4
 139 423 157 420 166 420 c 0
 197 420 217 447 217 485 c 0
 217 515 195 526 117 530 c 1xec
 120 551 l 1
 167 551 221 572 221 628 c 0
 221 646 212 656 197 656 c 0
 182 656 171 646 171 635 c 0
 171 630 172 626 172 620 c 0
 171 591 143 578 115 578 c 0
 83 578 69 596 69 614 c 0
 69 656 132 678 204 678 c 0xea
EndSplineSet
EndChar
StartChar: acute
Encoding: 180 180 353
Width: 266
Flags: MW
HStem: 487 166<75.5 248>
VStem: 69 230<493 624>
LayerCount: 2
Back
Fore
SplineSet
299 617 m 0
 299 610 294 605 283 599 c 2
 104 496 l 2
 99 492 87 487 79 487 c 0
 72 487 69 490 69 496 c 0
 69 504 74 510 89 524 c 2
 198 629 l 2
 216 647 221 653 236 653 c 0
 260 653 299 631 299 617 c 0
EndSplineSet
Substitution2: "'case' Case-Sensitive Forms lookup 11 subtable" acute.case
Substitution2: "'aalt' Access All Alternates lookup 0 subtable" acute.case
EndChar
StartChar: uni00B5
Encoding: 181 181 325
Width: 559
Flags: MW
HStem: -239 32<12 12 162.5 168> -10 21G<357.5 389.5> 394 31<97 101.5> 413 20G<528 528>
VStem: 338 132<20.5 113>
LayerCount: 2
Back
Fore
SplineSet
521 88 m 1xd8
 532 60 l 1
 468 7 409 -10 370 -10 c 0
 345 -10 338 5 338 36 c 0
 338 63 345 109 353 165 c 1
 290 51 237 3 184 -8 c 1
 158 -188 l 2
 157 -196 157 -207 168 -207 c 2
 226 -206 l 1
 221 -239 l 1
 -26 -239 l 1
 -21 -206 l 1
 12 -207 l 1
 20 -206 26 -200 28 -188 c 2
 107 375 l 2
 109 388 106 394 97 394 c 2
 64 392 l 1
 69 425 l 1
 245 425 l 1xe8
 205 140 l 2
 203 131 203 120 203 115 c 0
 203 98 210 83 229 83 c 0
 280 83 353 211 372 295 c 1
 391 416 l 1
 528 433 l 1
 489 229 470 134 470 92 c 0
 470 81 474 75 483 75 c 0
 491 75 504 77 521 88 c 1xd8
EndSplineSet
EndChar
StartChar: paragraph
Encoding: 182 182 342
Width: 484
Flags: MW
HStem: 559 38<338.5 349 349 379 424 513 424 424>
VStem: 59 459<378.5 597>
LayerCount: 2
Back
Fore
SplineSet
59 421 m 0
 59 528 143 597 275 597 c 2
 518 597 l 1
 513 559 l 1
 424 559 l 1
 307 -269 l 1
 262 -269 l 1
 379 559 l 1
 349 559 l 2
 328 559 312 548 308 521 c 2
 197 -269 l 1
 152 -269 l 1
 230 288 l 1
 121 288 59 336 59 421 c 0
EndSplineSet
EndChar
StartChar: periodcentered
Encoding: 183 183 266
Width: 274
Flags: MW
HStem: 119 150<116 153>
VStem: 42 185<177 210.5>
LayerCount: 2
Back
Fore
SplineSet
42 185 m 0
 42 236 87 269 145 269 c 0
 194 269 227 244 227 203 c 0
 227 151 182 119 124 119 c 0
 75 119 42 143 42 185 c 0
EndSplineSet
EndChar
StartChar: cedilla
Encoding: 184 184 356
Width: 227
Flags: MW
HStem: -214 35<23.5 29.5 8.5 60.5>
VStem: 14 61<-67.5 -63.5> 72 89<-142.5 -122.5>
LayerCount: 2
Back
Fore
SplineSet
110 0 m 1xc0
 83 -36 l 2
 78 -44 75 -52 75 -56 c 0xc0
 75 -79 161 -63 161 -116 c 0
 161 -181 89 -214 32 -214 c 0
 15 -214 -14 -213 -35 -198 c 1
 -17 -165 l 1
 -10 -175 1 -179 16 -179 c 0
 43 -179 72 -155 72 -130 c 0
 72 -115 57 -102 44 -94 c 2xa0
 23 -80 l 2
 17 -75 14 -71 14 -66 c 0
 14 -61 16 -57 22 -52 c 1
 69 0 l 1
 110 0 l 1xc0
EndSplineSet
EndChar
StartChar: uni00B9
Encoding: 185 185 261
Width: 224
Flags: MW
HStem: 403 25<91 94.5 210.5 214>
VStem: 51 190<403 429>
LayerCount: 2
Back
Fore
SplineSet
240 682 m 1
 206 439 l 2
 205 432 207 428 214 428 c 2
 241 429 l 1
 237 403 l 1
 51 403 l 1
 55 429 l 1
 91 428 l 2
 98 428 101 432 103 439 c 1
 125 601 l 2
 126 607 124 610 119 610 c 0
 114 610 93 605 77 602 c 1
 75 633 l 1
 130 641 192 668 217 682 c 1
 240 682 l 1
EndSplineSet
EndChar
StartChar: ordmasculine
Encoding: 186 186 242
Width: 350
GlyphClass: 2
Flags: MW
HStem: 344 32<187.5 224 187.5 246> 587 31<198 234.5>
VStem: 57 105<428 461 412.5 509.5> 261 106<497 538 452.5 548.5>
LayerCount: 2
Back
Fore
SplineSet
57 461 m 0
 57 558 126 618 231 618 c 0
 315 618 367 576 367 500 c 0
 367 405 300 344 192 344 c 0
 99 344 57 395 57 461 c 0
162 432 m 0
 162 393 175 376 200 376 c 0
 248 376 261 467 261 527 c 0
 261 570 247 587 222 587 c 0
 174 587 162 490 162 432 c 0
EndSplineSet
EndChar
StartChar: guillemotright
Encoding: 187 187 293
Width: 480
Flags: MW
HStem: 35 342<26 118 26 118 74 253 74 209>
VStem: 26 436<35 206>
LayerCount: 2
Back
Fore
SplineSet
26 35 m 1
 147 206 l 1
 74 377 l 1
 118 377 l 1
 279 206 l 1
 70 35 l 1
 26 35 l 1
209 35 m 1
 330 206 l 1
 257 377 l 1
 301 377 l 1
 462 206 l 1
 253 35 l 1
 209 35 l 1
EndSplineSet
Position2: "'cpsp' Capital Spacing lookup 0 per glyph data 0" dx=0 dy=20 dh=0 dv=0
EndChar
StartChar: onequarter
Encoding: 188 188 259
Width: 580
Flags: MW
HStem: -8 21G<83 83> 0 26<329 364 364 367.5 489 505 325 364> 61 41<300 379 490 521> 332 25<110 113.5 229.5 233> 589 20G<546 546>
VStem: 47 537
LayerCount: 2
Back
Fore
SplineSet
260 358 m 1x7c
 256 332 l 1
 70 332 l 1
 74 358 l 1
 110 357 l 2
 117 357 120 361 122 368 c 1
 144 530 l 2
 145 536 143 539 138 539 c 0
 133 539 112 534 96 531 c 1
 94 562 l 1
 149 570 211 597 236 611 c 1
 259 611 l 1
 225 368 l 2
 224 361 226 357 233 357 c 2
 260 358 l 1x7c
546 609 m 1
 584 582 l 1
 83 -8 l 1
 47 23 l 1xbc
 546 609 l 1
514 274 m 1
 490 102 l 1
 527 102 l 1
 521 61 l 1
 485 61 l 1
 481 35 l 2
 480 29 482 26 489 26 c 2
 508 26 l 1
 505 0 l 1
 325 0 l 1
 329 26 l 1
 364 26 l 2
 371 26 374 29 375 35 c 2x7c
 379 61 l 1
 251 61 l 1
 256 98 l 1
 457 274 l 1
 514 274 l 1
300 102 m 1
 385 102 l 1
 396 184 l 1
 300 102 l 1
EndSplineSet
Ligature2: "'frac' Diagonal Fractions lookup 9 subtable" one slash four
EndChar
StartChar: onehalf
Encoding: 189 189 258
Width: 660
Flags: MW
HStem: -8 21G<83 83> 0 66<396 532 532 545 341 532> 253 22<482.5 500.5> 332 25<110 113.5 229.5 233> 589 20G<546 546>
VStem: 360 101<222 223.5> 519 106<194.5 229.5>
LayerCount: 2
Back
Fore
SplineSet
260 358 m 1x7e
 256 332 l 1
 70 332 l 1
 74 358 l 1
 110 357 l 2
 117 357 120 361 122 368 c 1
 144 530 l 2
 145 536 143 539 138 539 c 0
 133 539 112 534 96 531 c 1
 94 562 l 1
 149 570 211 597 236 611 c 1
 259 611 l 1
 225 368 l 2
 224 361 226 357 233 357 c 2
 260 358 l 1x7e
546 609 m 1
 584 582 l 1
 83 -8 l 1
 47 23 l 1xbe
 546 609 l 1
532 66 m 2x7e
 562 66 577 77 582 92 c 1
 606 92 l 1
 595 63 585 14 582 -2 c 1
 578 -1 557 0 545 0 c 2
 341 0 l 1
 347 64 l 1
 432 106 l 1
 495 139 519 170 519 219 c 0
 519 240 508 253 493 253 c 0
 472 253 461 241 461 226 c 0
 461 218 463 211 463 202 c 0
 462 176 435 163 407 163 c 0
 372 163 360 181 360 203 c 0
 360 244 406 275 496 275 c 0
 570 275 625 254 625 208 c 0
 625 159 575 127 483 94 c 1
 396 66 l 1
 532 66 l 2x7e
EndSplineSet
Ligature2: "'frac' Diagonal Fractions lookup 9 subtable" one slash two
EndChar
StartChar: threequarters
Encoding: 190 190 260
Width: 580
Flags: MW
HStem: -8 21G<99 99> 0 26<335 370 370 373.5 495 511 331 370> 61 41<306 385 496 527> 326 23<175.5 195.5 175.5 216.5> 406 20G<95.5 126> 459 21<131 157.5> 585 22<203.5 218.5>
VStem: 55 103<387.5 392> 83 103<549 552 549 564> 231 103<395 429> 235 101<529 566>
LayerCount: 2
Back
Fore
SplineSet
562 609 m 1x7ea0
 600 582 l 1
 99 -8 l 1
 63 23 l 1xbf40
 562 609 l 1x7ea0
169 326 m 0
 99 326 55 342 55 379 c 0
 55 405 79 426 112 426 c 0
 140 426 158 412 158 392 c 0
 158 383 153 373 153 366 c 0x7f20
 153 352 171 349 180 349 c 0
 211 349 231 376 231 414 c 0
 231 444 209 455 131 459 c 1x7ec0
 134 480 l 1
 181 480 235 501 235 557 c 0
 235 575 226 585 211 585 c 0
 196 585 185 575 185 564 c 0
 185 559 186 555 186 549 c 0
 185 520 157 507 129 507 c 0
 97 507 83 525 83 543 c 0
 83 585 146 607 218 607 c 0
 281 607 336 591 336 550 c 0x7ea0
 336 507 288 482 225 476 c 1
 224 473 l 1
 294 473 334 454 334 416 c 0
 334 362 264 326 169 326 c 0
520 274 m 1
 496 102 l 1
 533 102 l 1
 527 61 l 1
 491 61 l 1
 487 35 l 2
 486 29 488 26 495 26 c 2
 514 26 l 1
 511 0 l 1
 331 0 l 1
 335 26 l 1
 370 26 l 2
 377 26 380 29 381 35 c 2
 385 61 l 1
 257 61 l 1
 262 98 l 1x7ec0
 463 274 l 1
 520 274 l 1
306 102 m 1
 391 102 l 1
 402 184 l 1
 306 102 l 1
EndSplineSet
Ligature2: "'frac' Diagonal Fractions lookup 9 subtable" three slash four
EndChar
StartChar: questiondown
Encoding: 191 191 276
Width: 412
Flags: MW
HStem: -235 34<154 187 154 204.5> 296 149<222.5 258.5>
VStem: -28 140<-158 -87.5 -158 -71.5> 147 185<356.5 386> 199 83<80 136.5 61 141.5> 222 127<-140 -123 -172 -116.5>
LayerCount: 2
Back
Fore
SplineSet
251 445 m 0xf0
 298 445 332 418 332 379 c 0
 332 334 287 296 230 296 c 0
 181 296 147 324 147 362 c 0
 147 410 194 445 251 445 c 0xf0
184 219 m 1xa8
 223 209 282 165 282 108 c 0xa8
 282 14 112 -35 112 -140 c 0
 112 -176 135 -201 173 -201 c 0
 201 -201 225 -187 225 -164 c 0
 225 -154 222 -145 222 -135 c 0
 222 -98 257 -82 289 -82 c 0
 331 -82 349 -109 349 -137 c 0xa4
 349 -207 258 -235 151 -235 c 0
 35 -235 -28 -200 -28 -137 c 0
 -28 -6 199 30 199 130 c 0
 199 153 188 178 164 193 c 1
 184 219 l 1xa8
EndSplineSet
Position2: "'cpsp' Capital Spacing lookup 0 per glyph data 1" dx=0 dy=35 dh=0 dv=0
EndChar
StartChar: Agrave
Encoding: 192 192 7
Width: 608
GlyphClass: 2
Flags: MW
HStem: 0 35<-10 5 -10 132 575 580> 186 35<156 345 156 355 137 345> 587 20G<330 379 379 379>
VStem: -48 654<0 37>
LayerCount: 2
Back
Fore
SplineSet
244 772 m 2
 236 777 233 782 234 789 c 0
 235 803 282 826 307 826 c 0
 322 826 324 821 338 802 c 2
 419 696 l 2
 428 684 431 678 430 670 c 0
 430 664 425 660 416 660 c 0
 408 660 399 665 394 669 c 2
 244 772 l 2
580 35 m 1
 606 37 l 1
 601 0 l 1
 302 0 l 1
 307 37 l 1
 354 35 l 1
 377 33 385 46 386 63 c 0
 386 74 383 86 380 98 c 2
 355 186 l 1
 137 186 l 1
 93 104 l 2
 82 84 73 63 73 49 c 0
 73 39 78 33 91 34 c 2
 137 37 l 1
 132 0 l 1
 -48 0 l 1
 -43 37 l 1
 -10 35 l 1
 20 35 43 76 62 112 c 2
 330 607 l 1
 379 607 l 1
 521 110 l 2
 534 64 544 35 575 35 c 2
 580 35 l 1
156 221 m 1
 345 221 l 1
 280 451 l 1
 156 221 l 1
EndSplineSet
Position2: "'cpsp' Capital Spacing lookup 0 per glyph data 2" dx=5 dy=0 dh=10 dv=0
EndChar
StartChar: Acircumflex
Encoding: 194 194 5
Width: 608
GlyphClass: 2
Flags: MW
HStem: 0 35<-10 5 -10 132 575 580> 186 35<156 345 156 355 137 345> 587 20G<330 379 379 379> 744 60<346 370>
VStem: -48 654<0 37>
LayerCount: 2
Back
Fore
SplineSet
218 666 m 0
 209 666 207 670 207 673 c 0
 207 682 245 709 293 756 c 1
 346 804 l 2
 359 816 372 822 382 822 c 0
 392 822 403 816 412 804 c 2
 451 756 l 1
 485 710 515 684 515 675 c 0
 515 672 513 666 501 666 c 0
 490 666 477 673 470 678 c 2
 370 744 l 1
 252 678 l 2
 244 673 230 666 218 666 c 0
580 35 m 1
 606 37 l 1
 601 0 l 1
 302 0 l 1
 307 37 l 1
 354 35 l 1
 377 33 385 46 386 63 c 0
 386 74 383 86 380 98 c 2
 355 186 l 1
 137 186 l 1
 93 104 l 2
 82 84 73 63 73 49 c 0
 73 39 78 33 91 34 c 2
 137 37 l 1
 132 0 l 1
 -48 0 l 1
 -43 37 l 1
 -10 35 l 1
 20 35 43 76 62 112 c 2
 330 607 l 1
 379 607 l 1
 521 110 l 2
 534 64 544 35 575 35 c 2
 580 35 l 1
156 221 m 1
 345 221 l 1
 280 451 l 1
 156 221 l 1
EndSplineSet
Position2: "'cpsp' Capital Spacing lookup 0 per glyph data 2" dx=5 dy=0 dh=10 dv=0
EndChar
StartChar: Atilde
Encoding: 195 195 11
Width: 608
GlyphClass: 2
Flags: MW
HStem: 0 35<-10 5 -10 132 575 580> 186 35<156 345 156 355 137 345> 587 20G<330 379 379 379> 671 61<432 460.5 432 461> 711 60<274.5 303>
VStem: 218 28<672 672> 489 28<770 770>
LayerCount: 2
Back
Fore
SplineSet
284 711 m 0xee
 265 711 249 696 246 672 c 1
 218 672 l 1
 226 729 251 771 296 771 c 0xee
 344 771 413 732 451 732 c 0
 470 732 486 747 489 770 c 1
 517 770 l 1
 509 713 483 671 439 671 c 0xf6
 390 671 322 711 284 711 c 0xee
580 35 m 1
 606 37 l 1
 601 0 l 1
 302 0 l 1
 307 37 l 1
 354 35 l 1
 377 33 385 46 386 63 c 0
 386 74 383 86 380 98 c 2
 355 186 l 1
 137 186 l 1
 93 104 l 2
 82 84 73 63 73 49 c 0
 73 39 78 33 91 34 c 2
 137 37 l 1
 132 0 l 1
 -48 0 l 1
 -43 37 l 1
 -10 35 l 1
 20 35 43 76 62 112 c 2
 330 607 l 1
 379 607 l 1
 521 110 l 2
 534 64 544 35 575 35 c 2
 580 35 l 1
156 221 m 1
 345 221 l 1
 280 451 l 1
 156 221 l 1
EndSplineSet
Position2: "'cpsp' Capital Spacing lookup 0 per glyph data 2" dx=5 dy=0 dh=10 dv=0
EndChar
StartChar: Adieresis
Encoding: 196 196 6
Width: 608
GlyphClass: 2
Flags: MW
HStem: 0 35<-10 5 -10 132 575 580> 186 35<156 345 156 355 137 345> 587 20G<330 379 379 379> 677 125<257 289 451 483>
VStem: 195 156<726 752> 389 156<726 752>
LayerCount: 2
Back
Fore
SplineSet
264 677 m 0
 223 677 195 698 195 730 c 0
 195 774 233 802 281 802 c 0
 323 802 351 781 351 749 c 0
 351 703 314 677 264 677 c 0
458 677 m 0
 417 677 389 698 389 730 c 0
 389 774 427 802 475 802 c 0
 517 802 545 781 545 749 c 0
 545 703 508 677 458 677 c 0
580 35 m 1
 606 37 l 1
 601 0 l 1
 302 0 l 1
 307 37 l 1
 354 35 l 1
 377 33 385 46 386 63 c 0
 386 74 383 86 380 98 c 2
 355 186 l 1
 137 186 l 1
 93 104 l 2
 82 84 73 63 73 49 c 0
 73 39 78 33 91 34 c 2
 137 37 l 1
 132 0 l 1
 -48 0 l 1
 -43 37 l 1
 -10 35 l 1
 20 35 43 76 62 112 c 2
 330 607 l 1
 379 607 l 1
 521 110 l 2
 534 64 544 35 575 35 c 2
 580 35 l 1
156 221 m 1
 345 221 l 1
 280 451 l 1
 156 221 l 1
EndSplineSet
Position2: "'cpsp' Capital Spacing lookup 0 per glyph data 2" dx=5 dy=0 dh=10 dv=0
EndChar
StartChar: Aring
Encoding: 197 197 10
Width: 608
GlyphClass: 2
Flags: MW
HStem: 0 35<-10 5 -10 132 575 580> 186 35<156 345 156 355 137 345> 587 20G<330 379 379 379> 665 41<356 378.5 356 388> 789 42<365 387>
VStem: 285 50<730.5 755 730.5 763.5> 409 51<740 764.5>
LayerCount: 2
Back
Fore
SplineSet
360 665 m 0
 314 665 285 694 285 737 c 0
 285 790 330 831 383 831 c 0
 430 831 460 801 460 759 c 0
 460 704 416 665 360 665 c 0
377 789 m 0
 353 789 335 769 335 741 c 0
 335 720 346 706 366 706 c 0
 391 706 409 726 409 754 c 0
 409 775 397 789 377 789 c 0
580 35 m 1
 606 37 l 1
 601 0 l 1
 302 0 l 1
 307 37 l 1
 354 35 l 1
 377 33 385 46 386 63 c 0
 386 74 383 86 380 98 c 2
 355 186 l 1
 137 186 l 1
 93 104 l 2
 82 84 73 63 73 49 c 0
 73 39 78 33 91 34 c 2
 137 37 l 1
 132 0 l 1
 -48 0 l 1
 -43 37 l 1
 -10 35 l 1
 20 35 43 76 62 112 c 2
 330 607 l 1
 379 607 l 1
 521 110 l 2
 534 64 544 35 575 35 c 2
 580 35 l 1
156 221 m 1
 345 221 l 1
 280 451 l 1
 156 221 l 1
EndSplineSet
Position2: "'cpsp' Capital Spacing lookup 0 per glyph data 2" dx=5 dy=0 dh=10 dv=0
EndChar
StartChar: AE
Encoding: 198 198 12
Width: 846
GlyphClass: 2
Flags: MW
HStem: 0 34<560 603 603 649> 0 36.5 186 35<192 390 192 392 165 390> 289 35<529 584 529 588> 406 20G<677 713 713 713> 443 154<780 795 795 804 329 814 780 780> 562 35<519 657 519 519>
VStem: -45 119.5 384.5 139.5 398 137.5 677 36<426 426> 782.33 31.67
LayerCount: 2
Back
Fore
SplineSet
836 599 m 1xbbb0
 814 443 l 1
 780 443 l 1xbdb0
 793 526 752 562 657 562 c 2
 519 562 l 1
 529 324 l 1xbbb0
 588 324 l 2
 631 324 668 365 677 426 c 1
 713 426 l 1
 680 191 l 1
 646 191 l 1
 653 247 627 289 584 289 c 2
 529 289 l 1
 542 53 l 2
 543 42 549 34 560 34 c 2
 603 34 l 2
 695 34 749 82 761 171 c 1
 796 171 l 1
 772 -3 l 1
 733 0 693 0 677 0 c 2
 311 0 l 1xbb70
 316 38 l 1
 372 35 l 2
 388 34 398 47 398 58 c 2
 392 186 l 1
 165 186 l 1
 93 88 l 2
 79 68 61 32 90 35 c 1
 143 38 l 1x7b70
 137 0 l 1
 -48 0 l 1xbbb0
 -42 38 l 1
 -11 35 l 1
 7 32 25 52 56 94 c 2x7bb0
 386 536 l 2
 394 547 385 560 374 560 c 2
 323 558 l 1
 329 597 l 1
 795 597 l 2
 813 597 828 598 836 599 c 1xbbb0
379 472 m 1
 192 221 l 1
 390 221 l 1
 379 472 l 1
EndSplineSet
Position2: "'cpsp' Capital Spacing lookup 0 per glyph data 2" dx=5 dy=0 dh=10 dv=0
EndChar
StartChar: Ccedilla
Encoding: 199 199 17
Width: 593
GlyphClass: 2
Flags: MW
HStem: -214 35<246.5 252.5 231.5 283.5> -9 34<284 376 326 326> 35 132<522 531 531 537> 433 131<560 582 550 599> 575 32<335.5 440>
VStem: 38 150<174 340.5> 237 61<-67.5 -63.5> 295 89<-142.5 -122.5>
AnchorPoint: "Anchor-0" 307 0 basechar 0
LayerCount: 2
Back
Fore
SplineSet
400 575 m 0xcd
 271 575 188 443 188 238 c 0
 188 102 243 25 334 25 c 0xcd
 418 25 494 87 522 167 c 1
 558 167 l 1
 543 107 537 80 537 49 c 2
 537 35 l 1
 531 35 l 2
 471 35 410 -4 326 -9 c 1
 306 -36 l 2
 301 -44 298 -52 298 -56 c 0xee
 298 -79 384 -63 384 -116 c 0
 384 -181 312 -214 255 -214 c 0
 238 -214 209 -213 188 -198 c 1
 206 -165 l 1
 213 -175 224 -179 239 -179 c 0
 266 -179 295 -155 295 -130 c 0
 295 -115 280 -102 267 -94 c 2xcd
 246 -80 l 2
 240 -75 237 -71 237 -66 c 0
 237 -61 239 -57 245 -52 c 1
 284 -9 l 1
 128 -1 38 97 38 251 c 0
 38 471 174 607 391 607 c 0xce
 505 607 521 564 599 564 c 1
 587 519 581 469 581 450 c 0
 581 442 582 434 582 433 c 1xdd
 550 433 l 1
 543 511 480 575 400 575 c 0xcd
EndSplineSet
Position2: "'cpsp' Capital Spacing lookup 0 per glyph data 2" dx=5 dy=0 dh=10 dv=0
EndChar
StartChar: Ecircumflex
Encoding: 202 202 25
Width: 566
GlyphClass: 2
Flags: MW
HStem: 0 36<216 325 325 370> 290 35<246 311 240 316> 406 20G<405 440 440 440> 443 154<490 525 490 490> 562 35<122 127.5 286.5 290 290 367> 744 60<334 358>
VStem: 405 35<426 426> 492.13 32.87
AnchorPoint: "Anchor-0" 230 0 basechar 0
LayerCount: 2
Back
Fore
SplineSet
206 666 m 0xef
 197 666 195 670 195 673 c 0
 195 682 233 709 281 756 c 1
 334 804 l 2
 347 816 360 822 370 822 c 0
 380 822 391 816 400 804 c 2
 439 756 l 1
 473 710 503 684 503 675 c 0
 503 672 501 666 489 666 c 0
 478 666 465 673 458 678 c 2
 358 744 l 1
 240 678 l 2
 232 673 218 666 206 666 c 0xef
547 598 m 1
 525 443 l 1
 490 443 l 1xf7
 502 527 464 562 367 562 c 2
 290 562 l 2
 283 562 278 557 277 548 c 2
 246 325 l 1
 316 325 l 2
 359 325 396 362 405 426 c 1
 440 426 l 1
 407 191 l 1
 372 191 l 1
 379 248 351 290 311 290 c 2
 240 290 l 1
 206 49 l 2
 205 40 208 36 216 36 c 2
 325 36 l 2
 415 36 469 87 482 179 c 1
 517 179 l 1
 492 -3 l 1
 477 -1 440 0 397 0 c 2
 8 0 l 1
 14 38 l 1
 49 35 l 1
 61 35 68 42 70 57 c 2
 138 541 l 2
 139 553 133 562 122 562 c 2
 87 560 l 1
 92 597 l 1
 529 597 l 2
 537 597 543 597 547 598 c 1
EndSplineSet
Position2: "'cpsp' Capital Spacing lookup 0 per glyph data 2" dx=5 dy=0 dh=10 dv=0
EndChar
StartChar: Edieresis
Encoding: 203 203 26
Width: 566
GlyphClass: 2
Flags: MW
HStem: 0 36<216 325 325 370> 290 35<246 311 240 316> 406 20G<405 440 440 440> 443 154<490 525 490 490> 562 35<122 127.5 286.5 290 290 367> 677 125<245 277 439 471>
VStem: 183 156<726 752> 377 156<726 752> 405 35<426 426> 492.13 32.87
AnchorPoint: "Anchor-0" 230 0 basechar 0
LayerCount: 2
Back
Fore
SplineSet
269 802 m 0xeec0
 311 802 339 781 339 749 c 0
 339 703 302 677 252 677 c 0
 211 677 183 698 183 730 c 0
 183 774 221 802 269 802 c 0xeec0
463 802 m 0xef
 505 802 533 781 533 749 c 0
 533 703 496 677 446 677 c 0
 405 677 377 698 377 730 c 0
 377 774 415 802 463 802 c 0xef
547 598 m 1
 525 443 l 1
 490 443 l 1xf6c0
 502 527 464 562 367 562 c 2
 290 562 l 2
 283 562 278 557 277 548 c 2
 246 325 l 1
 316 325 l 2
 359 325 396 362 405 426 c 1
 440 426 l 1
 407 191 l 1
 372 191 l 1xeec0
 379 248 351 290 311 290 c 2
 240 290 l 1
 206 49 l 2
 205 40 208 36 216 36 c 2
 325 36 l 2
 415 36 469 87 482 179 c 1
 517 179 l 1
 492 -3 l 1
 477 -1 440 0 397 0 c 2
 8 0 l 1
 14 38 l 1
 49 35 l 1
 61 35 68 42 70 57 c 2
 138 541 l 2
 139 553 133 562 122 562 c 2
 87 560 l 1
 92 597 l 1
 529 597 l 2
 537 597 543 597 547 598 c 1
EndSplineSet
Position2: "'cpsp' Capital Spacing lookup 0 per glyph data 2" dx=5 dy=0 dh=10 dv=0
EndChar
StartChar: Igrave
Encoding: 204 204 42
Width: 323
GlyphClass: 2
Flags: MW
HStem: 0 36 562 35<123 129 292.5 298>
VStem: 8 330
LayerCount: 2
Back
Fore
SplineSet
164 826 m 0
 179 826 181 821 195 802 c 2
 276 696 l 2
 285 684 288 678 287 670 c 0
 287 664 282 660 273 660 c 0
 265 660 256 665 251 669 c 2
 101 772 l 2
 93 777 90 782 91 789 c 0
 92 803 139 826 164 826 c 0
338 597 m 1
 333 560 l 1
 298 562 l 2
 287 562 277 553 276 541 c 2
 207 57 l 2
 205 42 211 34 224 35 c 2
 259 37 l 1
 254 0 l 1
 8 0 l 1
 13 37 l 1
 48 35 l 2
 61 34 68 42 70 57 c 2
 138 541 l 2
 139 552 135 562 123 562 c 2
 87 560 l 1
 92 597 l 1
 338 597 l 1
EndSplineSet
Position2: "'cpsp' Capital Spacing lookup 0 per glyph data 2" dx=5 dy=0 dh=10 dv=0
EndChar
StartChar: Iacute
Encoding: 205 205 38
Width: 323
GlyphClass: 2
Flags: MW
HStem: 0 36 562 35<123 129 292.5 298>
VStem: 8 369
LayerCount: 2
Back
Fore
SplineSet
377 790 m 0
 377 783 372 778 361 772 c 2
 182 669 l 2
 177 665 165 660 157 660 c 0
 150 660 147 663 147 669 c 0
 147 677 152 683 167 697 c 2
 276 802 l 2
 294 820 299 826 314 826 c 0
 338 826 377 804 377 790 c 0
338 597 m 1
 333 560 l 1
 298 562 l 2
 287 562 277 553 276 541 c 2
 207 57 l 2
 205 42 211 34 224 35 c 2
 259 37 l 1
 254 0 l 1
 8 0 l 1
 13 37 l 1
 48 35 l 2
 61 34 68 42 70 57 c 2
 138 541 l 2
 139 552 135 562 123 562 c 2
 87 560 l 1
 92 597 l 1
 338 597 l 1
EndSplineSet
Position2: "'cpsp' Capital Spacing lookup 0 per glyph data 2" dx=5 dy=0 dh=10 dv=0
EndChar
StartChar: Icircumflex
Encoding: 206 206 39
Width: 323
GlyphClass: 2
Flags: MW
HStem: 0 36 562 35<123 129 292.5 298> 744 60<203 227>
VStem: 8 364
LayerCount: 2
Back
Fore
SplineSet
75 666 m 0
 66 666 64 670 64 673 c 0
 64 682 102 709 150 756 c 1
 203 804 l 2
 216 816 229 822 239 822 c 0
 249 822 260 816 269 804 c 2
 308 756 l 1
 342 710 372 684 372 675 c 0
 372 672 370 666 358 666 c 0
 347 666 334 673 327 678 c 2
 227 744 l 1
 109 678 l 2
 101 673 87 666 75 666 c 0
338 597 m 1
 333 560 l 1
 298 562 l 2
 287 562 277 553 276 541 c 2
 207 57 l 2
 205 42 211 34 224 35 c 2
 259 37 l 1
 254 0 l 1
 8 0 l 1
 13 37 l 1
 48 35 l 2
 61 34 68 42 70 57 c 2
 138 541 l 2
 139 552 135 562 123 562 c 2
 87 560 l 1
 92 597 l 1
 338 597 l 1
EndSplineSet
Position2: "'cpsp' Capital Spacing lookup 0 per glyph data 2" dx=5 dy=0 dh=10 dv=0
EndChar
StartChar: Idieresis
Encoding: 207 207 40
Width: 323
GlyphClass: 2
Flags: MW
HStem: 0 36 562 35<123 129 292.5 298> 677 125<114 146 308 340>
VStem: 52 156<726 752> 246 156<726 752>
LayerCount: 2
Back
Fore
SplineSet
138 802 m 0
 180 802 208 781 208 749 c 0
 208 703 171 677 121 677 c 0
 80 677 52 698 52 730 c 0
 52 774 90 802 138 802 c 0
332 802 m 0
 374 802 402 781 402 749 c 0
 402 703 365 677 315 677 c 0
 274 677 246 698 246 730 c 0
 246 774 284 802 332 802 c 0
338 597 m 1
 333 560 l 1
 298 562 l 2
 287 562 277 553 276 541 c 2
 207 57 l 2
 205 42 211 34 224 35 c 2
 259 37 l 1
 254 0 l 1
 8 0 l 1
 13 37 l 1
 48 35 l 2
 61 34 68 42 70 57 c 2
 138 541 l 2
 139 552 135 562 123 562 c 2
 87 560 l 1
 92 597 l 1
 338 597 l 1
EndSplineSet
Position2: "'cpsp' Capital Spacing lookup 0 per glyph data 2" dx=5 dy=0 dh=10 dv=0
EndChar
StartChar: Eth
Encoding: 208 208 19
Width: 636
GlyphClass: 2
Flags: MW
HStem: 0 36<216 238 238 262> 286 43<56 102 50 108 246 390> 562 35<123 129.5 286.5 290 290 313>
VStem: 476 144<333.5 423 247.5 432.5>
LayerCount: 2
Back
Fore
SplineSet
334 597 m 2
 528 597 620 506 620 340 c 0
 620 155 509 0 262 0 c 2
 8 0 l 1
 13 37 l 1
 52 35 l 2
 63 34 68 45 70 57 c 2
 102 286 l 1
 50 286 l 1
 56 329 l 1
 108 329 l 1
 138 541 l 2
 139 550 136 562 123 562 c 2
 87 560 l 1
 92 597 l 1
 334 597 l 2
453 202 m 0
 469 251 476 307 476 360 c 0
 476 505 428 562 313 562 c 2
 290 562 l 2
 283 562 278 558 277 549 c 2
 246 329 l 1
 396 329 l 1
 390 286 l 1
 240 286 l 1
 206 49 l 2
 205 40 208 36 216 36 c 2
 238 36 l 2
 365 36 424 107 453 202 c 0
EndSplineSet
Position2: "'cpsp' Capital Spacing lookup 0 per glyph data 2" dx=5 dy=0 dh=10 dv=0
EndChar
StartChar: Ntilde
Encoding: 209 209 59
Width: 672
GlyphClass: 2
Flags: MW
HStem: -6 21G<489 550 489 489> 0 27<46 52.5 119.5 126> 569 28<122 122 572 577.5 642 647> 671 61<458 486.5 458 487> 711 60<300.5 329>
VStem: 244 28<672 672> 515 28<770 770>
AnchorPoint: "Anchor-0" 318 0 basechar 0
LayerCount: 2
Back
Fore
SplineSet
322 771 m 0x6e
 370 771 439 732 477 732 c 0
 496 732 512 747 515 770 c 1
 543 770 l 1
 535 713 509 671 465 671 c 0x76
 416 671 348 711 310 711 c 0
 291 711 275 696 272 672 c 1
 244 672 l 1
 252 729 277 771 322 771 c 0x6e
692 597 m 1
 688 567 l 1
 647 569 l 2
 637 569 630 562 628 548 c 2
 550 -6 l 1
 489 -6 l 1xae
 177 524 l 1
 111 49 l 2
 109 34 113 27 126 27 c 2
 175 29 l 1
 171 0 l 1
 3 0 l 1
 7 29 l 1
 46 27 l 2
 59 27 67 34 69 49 c 2
 139 553 l 1
 138 562 133 570 122 569 c 2
 83 567 l 1
 87 597 l 1
 292 597 l 1
 535 184 l 1
 586 549 l 2
 588 562 583 569 572 569 c 2
 520 567 l 1
 524 597 l 1
 692 597 l 1
EndSplineSet
Position2: "'cpsp' Capital Spacing lookup 0 per glyph data 2" dx=5 dy=0 dh=10 dv=0
EndChar
StartChar: Ograve
Encoding: 210 210 64
Width: 677
GlyphClass: 2
Flags: MW
HStem: -10 35<266 363 266 406> 573 34<339 437.5>
VStem: 39 146<188 223.5 188 370> 516 146
LayerCount: 2
Back
Fore
SplineSet
340 826 m 0
 355 826 357 821 371 802 c 2
 452 696 l 2
 461 684 464 678 463 670 c 0
 463 664 458 660 449 660 c 0
 441 660 432 665 427 669 c 2
 277 772 l 2
 269 777 266 782 267 789 c 0
 268 803 315 826 340 826 c 0
39 254 m 0
 39 486 199 607 393 607 c 0
 551 607 662 531 662 345 c 0
 662 116 504 -10 308 -10 c 0
 152 -10 39 66 39 254 c 0
185 188 m 0
 186 92 214 25 318 25 c 0
 408 25 450 82 478 161 c 1
 504 238 517 335 516 409 c 0
 515 499 489 573 386 573 c 0
 292 573 247 510 220 425 c 0
 197 350 185 259 185 188 c 0
EndSplineSet
Position2: "'cpsp' Capital Spacing lookup 0 per glyph data 2" dx=5 dy=0 dh=10 dv=0
EndChar
StartChar: Oacute
Encoding: 211 211 61
Width: 677
GlyphClass: 2
Flags: MW
HStem: -10 35<266 363 266 406> 573 34<339 437.5>
VStem: 39 146<188 223.5 188 370> 516 146
LayerCount: 2
Back
Fore
SplineSet
553 790 m 0
 553 783 548 778 537 772 c 2
 358 669 l 2
 353 665 341 660 333 660 c 0
 326 660 323 663 323 669 c 0
 323 677 328 683 343 697 c 2
 452 802 l 2
 470 820 475 826 490 826 c 0
 514 826 553 804 553 790 c 0
39 254 m 0
 39 486 199 607 393 607 c 0
 551 607 662 531 662 345 c 0
 662 116 504 -10 308 -10 c 0
 152 -10 39 66 39 254 c 0
185 188 m 0
 186 92 214 25 318 25 c 0
 408 25 450 82 478 161 c 1
 504 238 517 335 516 409 c 0
 515 499 489 573 386 573 c 0
 292 573 247 510 220 425 c 0
 197 350 185 259 185 188 c 0
EndSplineSet
Position2: "'cpsp' Capital Spacing lookup 0 per glyph data 2" dx=5 dy=0 dh=10 dv=0
EndChar
StartChar: Ocircumflex
Encoding: 212 212 62
Width: 677
GlyphClass: 2
Flags: MW
HStem: -10 35<266 363 266 406> 573 34<339 437.5> 744 60<379 403>
VStem: 39 146<188 223.5 188 370> 516 146
LayerCount: 2
Back
Fore
SplineSet
251 666 m 0
 242 666 240 670 240 673 c 0
 240 682 278 709 326 756 c 1
 379 804 l 2
 392 816 405 822 415 822 c 0
 425 822 436 816 445 804 c 2
 484 756 l 1
 518 710 548 684 548 675 c 0
 548 672 546 666 534 666 c 0
 523 666 510 673 503 678 c 2
 403 744 l 1
 285 678 l 2
 277 673 263 666 251 666 c 0
39 254 m 0
 39 486 199 607 393 607 c 0
 551 607 662 531 662 345 c 0
 662 116 504 -10 308 -10 c 0
 152 -10 39 66 39 254 c 0
185 188 m 0
 186 92 214 25 318 25 c 0
 408 25 450 82 478 161 c 1
 504 238 517 335 516 409 c 0
 515 499 489 573 386 573 c 0
 292 573 247 510 220 425 c 0
 197 350 185 259 185 188 c 0
EndSplineSet
Position2: "'cpsp' Capital Spacing lookup 0 per glyph data 2" dx=5 dy=0 dh=10 dv=0
EndChar
StartChar: Otilde
Encoding: 213 213 68
Width: 677
GlyphClass: 2
Flags: MW
HStem: -10 35<266 363 266 406> 573 34<339 437.5> 671 61<465 493.5 465 494> 711 60<307.5 336>
VStem: 39 146<188 223.5 188 370> 251 28<672 672> 516 146 522 28<770 770>
LayerCount: 2
Back
Fore
SplineSet
329 771 m 0xde
 377 771 446 732 484 732 c 0
 503 732 519 747 522 770 c 1
 550 770 l 1
 542 713 516 671 472 671 c 0xed
 423 671 355 711 317 711 c 0
 298 711 282 696 279 672 c 1
 251 672 l 1
 259 729 284 771 329 771 c 0xde
39 254 m 0
 39 486 199 607 393 607 c 0
 551 607 662 531 662 345 c 0
 662 116 504 -10 308 -10 c 0
 152 -10 39 66 39 254 c 0
185 188 m 0
 186 92 214 25 318 25 c 0
 408 25 450 82 478 161 c 1
 504 238 517 335 516 409 c 0
 515 499 489 573 386 573 c 0
 292 573 247 510 220 425 c 0
 197 350 185 259 185 188 c 0
EndSplineSet
Position2: "'cpsp' Capital Spacing lookup 0 per glyph data 2" dx=5 dy=0 dh=10 dv=0
EndChar
StartChar: Odieresis
Encoding: 214 214 63
Width: 677
GlyphClass: 2
Flags: MW
HStem: -10 35<266 363 266 406> 573 34<339 437.5> 677 125<290 322 484 516>
VStem: 39 146<188 223.5 188 370> 228 156<726 752> 422 156<726 752> 516 146
LayerCount: 2
Back
Fore
SplineSet
314 802 m 0xfa
 356 802 384 781 384 749 c 0
 384 703 347 677 297 677 c 0
 256 677 228 698 228 730 c 0
 228 774 266 802 314 802 c 0xfa
508 802 m 0xfc
 550 802 578 781 578 749 c 0
 578 703 541 677 491 677 c 0
 450 677 422 698 422 730 c 0
 422 774 460 802 508 802 c 0xfc
39 254 m 0
 39 486 199 607 393 607 c 0
 551 607 662 531 662 345 c 0xfa
 662 116 504 -10 308 -10 c 0
 152 -10 39 66 39 254 c 0
185 188 m 0
 186 92 214 25 318 25 c 0
 408 25 450 82 478 161 c 1
 504 238 517 335 516 409 c 0xfa
 515 499 489 573 386 573 c 0
 292 573 247 510 220 425 c 0
 197 350 185 259 185 188 c 0
EndSplineSet
Position2: "'cpsp' Capital Spacing lookup 0 per glyph data 2" dx=5 dy=0 dh=10 dv=0
EndChar
StartChar: multiply
Encoding: 215 215 327
Width: 456
Flags: MW
HStem: 416 20G<130 130>
VStem: 49 374<135 400>
LayerCount: 2
Back
Fore
SplineSet
391 437 m 1
 423 400 l 1
 273 268 l 1
 386 134 l 1
 346 98 l 1
 231 231 l 1
 82 99 l 1
 49 135 l 1
 201 268 l 1
 88 400 l 1
 130 436 l 1
 240 304 l 1
 391 437 l 1
EndSplineSet
EndChar
StartChar: Oslash
Encoding: 216 216 67
Width: 676
GlyphClass: 2
Flags: MW
HStem: -10 35<290.5 363 290.5 406> 573 34<339 408.5>
VStem: 39 146<203.5 223.5 178 370> 516 146<230.5 423>
LayerCount: 2
Back
Fore
SplineSet
563 564 m 1
 625 523 662 453 662 345 c 0
 662 116 504 -10 308 -10 c 0
 255 -10 208 -1 167 17 c 1
 86 -95 l 1
 44 -71 l 1
 126 42 l 1
 72 84 39 153 39 254 c 0
 39 486 199 607 393 607 c 0
 440 607 482 600 519 586 c 1
 593 689 l 1
 634 662 l 1
 563 564 l 1
185 188 m 0
 185 168 187 148 190 131 c 1
 482 535 l 1
 462 559 431 573 386 573 c 0
 292 573 247 510 220 425 c 0
 197 350 185 259 185 188 c 0
478 161 m 1
 504 238 517 335 516 409 c 0
 516 437 513 463 506 486 c 1
 210 76 l 1
 229 44 263 25 318 25 c 0
 408 25 450 82 478 161 c 1
EndSplineSet
Position2: "'cpsp' Capital Spacing lookup 0 per glyph data 2" dx=5 dy=0 dh=10 dv=0
EndChar
StartChar: Ugrave
Encoding: 217 217 90
Width: 654
GlyphClass: 2
Flags: MW
HStem: -10 42<308 402> 562 35<123 128 292.5 298 560 565 633.5 639>
VStem: 87.04 137.92
LayerCount: 2
Back
Fore
SplineSet
356 826 m 0
 371 826 373 821 387 802 c 2
 468 696 l 2
 477 684 480 678 479 670 c 0
 479 664 474 660 465 660 c 0
 457 660 448 665 443 669 c 2
 293 772 l 2
 285 777 282 782 283 789 c 0
 284 803 331 826 356 826 c 0
683 597 m 1
 678 560 l 1
 639 562 l 2
 628 562 619 554 617 542 c 2
 569 203 l 2
 550 68 479 -10 325 -10 c 0
 154 -10 69 55 90 199 c 2
 138 541 l 2
 139 552 133 562 123 562 c 2
 84 560 l 1
 89 597 l 1
 352 597 l 1
 347 560 l 1
 298 562 l 2
 287 562 277 554 276 542 c 2
 228 199 l 2
 212 85 260 32 356 32 c 0
 467 32 512 99 527 203 c 2
 574 541 l 2
 575 554 570 562 560 562 c 2
 510 560 l 1
 515 597 l 1
 683 597 l 1
EndSplineSet
Position2: "'cpsp' Capital Spacing lookup 0 per glyph data 2" dx=5 dy=0 dh=10 dv=0
EndChar
StartChar: Uacute
Encoding: 218 218 87
Width: 654
GlyphClass: 2
Flags: MW
HStem: -10 42<308 402> 562 35<123 128 292.5 298 560 565 633.5 639>
VStem: 87.04 137.92
LayerCount: 2
Back
Fore
SplineSet
569 790 m 0
 569 783 564 778 553 772 c 2
 374 669 l 2
 369 665 357 660 349 660 c 0
 342 660 339 663 339 669 c 0
 339 677 344 683 359 697 c 2
 468 802 l 2
 486 820 491 826 506 826 c 0
 530 826 569 804 569 790 c 0
683 597 m 1
 678 560 l 1
 639 562 l 2
 628 562 619 554 617 542 c 2
 569 203 l 2
 550 68 479 -10 325 -10 c 0
 154 -10 69 55 90 199 c 2
 138 541 l 2
 139 552 133 562 123 562 c 2
 84 560 l 1
 89 597 l 1
 352 597 l 1
 347 560 l 1
 298 562 l 2
 287 562 277 554 276 542 c 2
 228 199 l 2
 212 85 260 32 356 32 c 0
 467 32 512 99 527 203 c 2
 574 541 l 2
 575 554 570 562 560 562 c 2
 510 560 l 1
 515 597 l 1
 683 597 l 1
EndSplineSet
Position2: "'cpsp' Capital Spacing lookup 0 per glyph data 2" dx=5 dy=0 dh=10 dv=0
EndChar
StartChar: Ucircumflex
Encoding: 219 219 88
Width: 654
GlyphClass: 2
Flags: MW
HStem: -10 42<308 402> 562 35<123 128 292.5 298 560 565 633.5 639> 744 60<395 419>
VStem: 87.04 137.92
LayerCount: 2
Back
Fore
SplineSet
267 666 m 0
 258 666 256 670 256 673 c 0
 256 682 294 709 342 756 c 1
 395 804 l 2
 408 816 421 822 431 822 c 0
 441 822 452 816 461 804 c 2
 500 756 l 1
 534 710 564 684 564 675 c 0
 564 672 562 666 550 666 c 0
 539 666 526 673 519 678 c 2
 419 744 l 1
 301 678 l 2
 293 673 279 666 267 666 c 0
683 597 m 1
 678 560 l 1
 639 562 l 2
 628 562 619 554 617 542 c 2
 569 203 l 2
 550 68 479 -10 325 -10 c 0
 154 -10 69 55 90 199 c 2
 138 541 l 2
 139 552 133 562 123 562 c 2
 84 560 l 1
 89 597 l 1
 352 597 l 1
 347 560 l 1
 298 562 l 2
 287 562 277 554 276 542 c 2
 228 199 l 2
 212 85 260 32 356 32 c 0
 467 32 512 99 527 203 c 2
 574 541 l 2
 575 554 570 562 560 562 c 2
 510 560 l 1
 515 597 l 1
 683 597 l 1
EndSplineSet
Position2: "'cpsp' Capital Spacing lookup 0 per glyph data 2" dx=5 dy=0 dh=10 dv=0
EndChar
StartChar: Udieresis
Encoding: 220 220 89
Width: 654
GlyphClass: 2
Flags: MW
HStem: -10 42<308 402> 562 35<123 128 292.5 298 560 565 633.5 639> 677 125<306 338 500 532>
VStem: 87.04 137.92 244 156 438 156<726 752>
LayerCount: 2
Back
Fore
SplineSet
330 802 m 0
 372 802 400 781 400 749 c 0
 400 703 363 677 313 677 c 0
 272 677 244 698 244 730 c 0
 244 774 282 802 330 802 c 0
524 802 m 0
 566 802 594 781 594 749 c 0
 594 703 557 677 507 677 c 0
 466 677 438 698 438 730 c 0
 438 774 476 802 524 802 c 0
683 597 m 1
 678 560 l 1
 639 562 l 2
 628 562 619 554 617 542 c 2
 569 203 l 2
 550 68 479 -10 325 -10 c 0
 154 -10 69 55 90 199 c 2
 138 541 l 2
 139 552 133 562 123 562 c 2
 84 560 l 1
 89 597 l 1
 352 597 l 1
 347 560 l 1
 298 562 l 2
 287 562 277 554 276 542 c 2
 228 199 l 2xd0
 212 85 260 32 356 32 c 0
 467 32 512 99 527 203 c 2
 574 541 l 2
 575 554 570 562 560 562 c 2
 510 560 l 1
 515 597 l 1
 683 597 l 1
EndSplineSet
Position2: "'cpsp' Capital Spacing lookup 0 per glyph data 2" dx=5 dy=0 dh=10 dv=0
EndChar
StartChar: Thorn
Encoding: 222 222 71
Width: 540
GlyphClass: 2
Flags: MW
HStem: 0 28 162 26<239 284 284 312 223 284> 471 25<270 309 266 343> 569 28<123 123 293.5 299>
VStem: 394 141<312 398.5>
LayerCount: 2
Back
Fore
SplineSet
352 597 m 1
 348 567 l 1
 299 569 l 2
 288 569 279 559 277 548 c 2
 270 496 l 1
 343 496 l 2
 473 496 535 460 535 364 c 0
 535 234 452 162 317 162 c 2
 223 162 l 1
 207 49 l 2
 205 36 209 26 223 27 c 2
 272 29 l 1
 268 0 l 1
 8 0 l 1
 12 29 l 1
 47 27 l 2
 60 26 67 36 69 49 c 2
 139 548 l 2
 141 559 136 570 123 569 c 2
 88 567 l 1
 92 597 l 1
 352 597 l 1
309 471 m 2
 266 471 l 1
 228 201 l 2
 227 194 232 188 239 188 c 2
 284 188 l 2
 340 188 394 260 394 364 c 0
 394 433 364 471 309 471 c 2
EndSplineSet
Position2: "'cpsp' Capital Spacing lookup 0 per glyph data 2" dx=5 dy=0 dh=10 dv=0
EndChar
StartChar: germandbls
Encoding: 223 223 193
Width: 593
GlyphClass: 2
Flags: MW
HStem: -245 34<-25.5 5.5 -25.5 38> -9 29<358.5 386.5 358.5 420> 696 33<334 385>
VStem: -154 107<-183.5 -169.5 -193 -143> 247 94<41.5 50 35.5 82.5> 285 108<350 387> 421 125<591 639.5> 433 128<97 166.5>
LayerCount: 2
Back
Fore
SplineSet
108 440 m 2xf5
 127 603 215 729 389 729 c 0
 479 729 546 692 546 629 c 0xf6
 546 553 474 516 433 481 c 0
 411 462 393 441 393 414 c 0xf5
 393 286 561 286 561 146 c 0
 561 48 476 -9 364 -9 c 0
 289 -9 247 19 247 64 c 0
 247 101 272 128 314 128 c 0
 344 128 355 114 355 95 c 0
 355 73 341 59 341 41 c 0xf9
 341 30 347 20 370 20 c 0
 403 20 433 46 433 103 c 0
 433 230 285 222 285 347 c 0xf5
 285 427 342 446 380 494 c 0
 404 524 421 565 421 614 c 0
 421 665 409 696 361 696 c 0xf6
 307 696 256 652 241 454 c 1
 202 102 l 1
 178 -90 108 -245 -32 -245 c 0
 -100 -245 -154 -208 -154 -159 c 0
 -154 -127 -132 -91 -83 -91 c 0
 -55 -91 -33 -103 -33 -128 c 0
 -33 -147 -47 -158 -47 -181 c 0
 -47 -205 -32 -211 -19 -211 c 0
 30 -211 51 -123 67 72 c 1
 108 440 l 2xf5
EndSplineSet
EndChar
StartChar: agrave
Encoding: 224 224 116
Width: 511
GlyphClass: 2
Flags: MW
HStem: -10 78<88.5 216.5> 398 37<269.5 294 208 309.5>
VStem: 26 134<110 148 110 192> 294 128<20.5 110>
LayerCount: 2
Back
Fore
SplineSet
197 599 m 2
 189 604 186 609 187 616 c 0
 188 630 235 653 260 653 c 0
 275 653 277 648 291 629 c 2
 372 523 l 2
 381 511 384 505 383 497 c 0
 383 491 378 487 369 487 c 0
 361 487 352 492 347 496 c 2
 197 599 l 2
435 75 m 0
 446 75 460 79 473 88 c 1
 485 60 l 1
 442 19 376 -10 330 -10 c 0
 299 -10 294 5 294 36 c 0
 294 61 302 110 311 165 c 1
 253 34 181 -10 118 -10 c 0
 59 -10 26 36 26 112 c 0
 26 272 137 435 279 435 c 0
 309 435 338 422 353 397 c 1
 359 420 l 1
 488 434 l 1
 465 338 l 2
 442 238 422 128 422 92 c 0
 422 81 426 75 435 75 c 0
192 68 m 0
 241 68 340 255 340 353 c 0
 340 378 324 398 295 398 c 0
 244 398 200 333 176 241 c 0
 166 203 160 165 160 131 c 0
 160 89 173 68 192 68 c 0
EndSplineSet
EndChar
StartChar: aacute
Encoding: 225 225 112
Width: 511
GlyphClass: 2
Flags: MW
HStem: -10 78<88.5 216.5> 398 37<269.5 294 208 309.5>
VStem: 26 134<110 148 110 192> 294 128<20.5 110>
LayerCount: 2
Back
Fore
SplineSet
251 487 m 0
 244 487 241 490 241 496 c 0
 241 504 246 510 261 524 c 2
 370 629 l 2
 388 647 393 653 408 653 c 0
 432 653 471 631 471 617 c 0
 471 610 466 605 455 599 c 2
 276 496 l 2
 271 492 259 487 251 487 c 0
435 75 m 0
 446 75 460 79 473 88 c 1
 485 60 l 1
 442 19 376 -10 330 -10 c 0
 299 -10 294 5 294 36 c 0
 294 61 302 110 311 165 c 1
 253 34 181 -10 118 -10 c 0
 59 -10 26 36 26 112 c 0
 26 272 137 435 279 435 c 0
 309 435 338 422 353 397 c 1
 359 420 l 1
 488 434 l 1
 465 338 l 2
 442 238 422 128 422 92 c 0
 422 81 426 75 435 75 c 0
192 68 m 0
 241 68 340 255 340 353 c 0
 340 378 324 398 295 398 c 0
 244 398 200 333 176 241 c 0
 166 203 160 165 160 131 c 0
 160 89 173 68 192 68 c 0
EndSplineSet
EndChar
StartChar: acircumflex
Encoding: 226 226 114
Width: 511
GlyphClass: 2
Flags: MW
HStem: -10 78<88.5 216.5> 398 37<269.5 294 208 309.5> 570 60<298 322>
VStem: 26 134<110 148 110 192> 294 128<20.5 110>
LayerCount: 2
Back
Fore
SplineSet
170 492 m 0
 161 492 159 496 159 499 c 0
 159 508 197 535 245 582 c 1
 298 630 l 2
 311 642 324 648 334 648 c 0
 344 648 355 642 364 630 c 2
 403 582 l 1
 437 536 467 510 467 501 c 0
 467 498 465 492 453 492 c 0
 442 492 429 499 422 504 c 2
 322 570 l 1
 204 504 l 2
 196 499 182 492 170 492 c 0
435 75 m 0
 446 75 460 79 473 88 c 1
 485 60 l 1
 442 19 376 -10 330 -10 c 0
 299 -10 294 5 294 36 c 0
 294 61 302 110 311 165 c 1
 253 34 181 -10 118 -10 c 0
 59 -10 26 36 26 112 c 0
 26 272 137 435 279 435 c 0
 309 435 338 422 353 397 c 1
 359 420 l 1
 488 434 l 1
 465 338 l 2
 442 238 422 128 422 92 c 0
 422 81 426 75 435 75 c 0
192 68 m 0
 241 68 340 255 340 353 c 0
 340 378 324 398 295 398 c 0
 244 398 200 333 176 241 c 0
 166 203 160 165 160 131 c 0
 160 89 173 68 192 68 c 0
EndSplineSet
EndChar
StartChar: atilde
Encoding: 227 227 120
Width: 511
GlyphClass: 2
Flags: MW
HStem: -10 78<88.5 216.5> 398 37<269.5 294 208 309.5> 525 61<386 414.5 386 415> 565 60<228.5 257>
VStem: 26 134<110 148 110 192> 172 28<526 526> 294 128<20.5 110> 443 28<624 624>
LayerCount: 2
Back
Fore
SplineSet
238 565 m 0xdd
 219 565 203 550 200 526 c 1
 172 526 l 1
 180 583 205 625 250 625 c 0xdd
 298 625 367 586 405 586 c 0
 424 586 440 601 443 624 c 1
 471 624 l 1
 463 567 437 525 393 525 c 0xe9
 344 525 276 565 238 565 c 0xdd
435 75 m 0xdb
 446 75 460 79 473 88 c 1
 485 60 l 1
 442 19 376 -10 330 -10 c 0
 299 -10 294 5 294 36 c 0
 294 61 302 110 311 165 c 1
 253 34 181 -10 118 -10 c 0
 59 -10 26 36 26 112 c 0
 26 272 137 435 279 435 c 0
 309 435 338 422 353 397 c 1
 359 420 l 1
 488 434 l 1
 465 338 l 2
 442 238 422 128 422 92 c 0
 422 81 426 75 435 75 c 0xdb
192 68 m 0
 241 68 340 255 340 353 c 0
 340 378 324 398 295 398 c 0
 244 398 200 333 176 241 c 0
 166 203 160 165 160 131 c 0
 160 89 173 68 192 68 c 0
EndSplineSet
EndChar
StartChar: adieresis
Encoding: 228 228 115
Width: 511
GlyphClass: 2
Flags: MW
HStem: -10 78<88.5 216.5> 398 37<269.5 294 208 309.5> 532 125<213 245 407 439>
VStem: 26 134<110 148 110 192> 151 156<581 607> 294 128<20.5 110> 345 156<581 607>
LayerCount: 2
Back
Fore
SplineSet
220 532 m 0xea
 179 532 151 553 151 585 c 0
 151 629 189 657 237 657 c 0
 279 657 307 636 307 604 c 0
 307 558 270 532 220 532 c 0xea
414 532 m 0
 373 532 345 553 345 585 c 0
 345 629 383 657 431 657 c 0
 473 657 501 636 501 604 c 0
 501 558 464 532 414 532 c 0
488 434 m 1
 465 338 l 2
 442 238 422 128 422 92 c 0
 422 81 426 75 435 75 c 0
 446 75 460 79 473 88 c 1
 485 60 l 1
 442 19 376 -10 330 -10 c 0
 299 -10 294 5 294 36 c 0
 294 61 302 110 311 165 c 1
 253 34 181 -10 118 -10 c 0
 59 -10 26 36 26 112 c 0xf4
 26 272 137 435 279 435 c 0
 309 435 338 422 353 397 c 1
 359 420 l 1
 488 434 l 1
192 68 m 0
 241 68 340 255 340 353 c 0
 340 378 324 398 295 398 c 0
 244 398 200 333 176 241 c 0
 166 203 160 165 160 131 c 0
 160 89 173 68 192 68 c 0
EndSplineSet
EndChar
StartChar: aring
Encoding: 229 229 119
Width: 511
GlyphClass: 2
Flags: MW
HStem: -10 78<88.5 216.5> 398 37<269.5 294 208 309.5> 492 41<308 330.5 308 340> 616 42<317 339>
VStem: 26 134<110 148 110 192> 237 50<557.5 582 557.5 590.5> 294 128<20.5 110> 361 51<567 591.5>
LayerCount: 2
Back
Fore
SplineSet
312 492 m 0xfd
 266 492 237 521 237 564 c 0
 237 617 282 658 335 658 c 0
 382 658 412 628 412 586 c 0
 412 531 368 492 312 492 c 0xfd
329 616 m 0
 305 616 287 596 287 568 c 0
 287 547 298 533 318 533 c 0
 343 533 361 553 361 581 c 0
 361 602 349 616 329 616 c 0
435 75 m 0xfa
 446 75 460 79 473 88 c 1
 485 60 l 1
 442 19 376 -10 330 -10 c 0
 299 -10 294 5 294 36 c 0
 294 61 302 110 311 165 c 1
 253 34 181 -10 118 -10 c 0
 59 -10 26 36 26 112 c 0
 26 272 137 435 279 435 c 0
 309 435 338 422 353 397 c 1
 359 420 l 1
 488 434 l 1
 465 338 l 2
 442 238 422 128 422 92 c 0
 422 81 426 75 435 75 c 0xfa
192 68 m 0
 241 68 340 255 340 353 c 0
 340 378 324 398 295 398 c 0
 244 398 200 333 176 241 c 0
 166 203 160 165 160 131 c 0
 160 89 173 68 192 68 c 0
EndSplineSet
EndChar
StartChar: ae
Encoding: 230 230 121
Width: 636
GlyphClass: 2
Flags: MW
HStem: -10 78<74.5 188.5> -9 71<439.5 445.5> 378 37<295.5 332.5> 400 35<485.5 514.5>
VStem: 12 131<111 146.5 111 186> 251 134<155 168 168 183 131.5 202.5> 540 106<320 367>
AnchorPoint: "Anchor-0" 402 0 basechar 0
LayerCount: 2
Back
Fore
SplineSet
646 341 m 0x5e
 646 275 575 202 385 183 c 1
 385 168 l 2
 385 95 417 62 462 62 c 0
 499 62 544 80 584 112 c 1
 606 92 l 1
 560 32 483 -9 408 -9 c 0
 332 -9 280 29 260 94 c 1
 212 18 156 -10 104 -10 c 0
 45 -10 12 37 12 110 c 0
 12 262 153 415 329 415 c 0x6e
 350 415 371 410 388 401 c 1
 424 423 465 435 506 435 c 0
 590 435 646 397 646 341 c 0x5e
501 400 m 0
 465 400 437 371 415 319 c 0
 401 286 392 251 388 216 c 1
 488 233 540 285 540 355 c 0
 540 379 528 400 501 400 c 0
251 158 m 0xae
 251 247 293 325 353 376 c 1
 345 377 337 378 328 378 c 0
 263 378 198 324 169 248 c 1
 150 207 143 164 143 129 c 0
 143 93 155 68 178 68 c 0
 199 68 226 98 252 139 c 1
 251 145 251 152 251 158 c 0xae
EndSplineSet
EndChar
StartChar: ccedilla
Encoding: 231 231 126
Width: 416
GlyphClass: 2
Flags: MW
HStem: -214 35<127.5 133.5 112.5 164.5> -9 21G<165 165> -9 71<165 248.5> 400 35<249.5 280>
VStem: 18 134<132.5 194 132.5 236.5> 118 61<-67.5 -63.5> 176 89<-142.5 -122.5> 310 105<350.5 367 321 374>
AnchorPoint: "Anchor-0" 188 0 basechar 0
LayerCount: 2
Back
Fore
SplineSet
342 268 m 0xd9
 322 268 294 275 294 306 c 0
 294 330 310 339 310 362 c 0
 310 386 292 400 268 400 c 0
 231 400 203 369 181 316 c 0
 161 269 152 219 152 169 c 0
 152 96 182 62 229 62 c 0xb9
 268 62 314 82 351 112 c 1
 373 92 l 1
 334 41 272 4 209 -6 c 1
 187 -36 l 2
 182 -44 179 -52 179 -56 c 0xb5
 179 -79 265 -63 265 -116 c 0
 265 -181 193 -214 136 -214 c 0
 119 -214 90 -213 69 -198 c 1
 87 -165 l 1
 94 -175 105 -179 120 -179 c 0
 147 -179 176 -155 176 -130 c 0
 176 -115 161 -102 148 -94 c 2xdb
 127 -80 l 2
 121 -75 118 -71 118 -66 c 0
 118 -61 120 -57 126 -52 c 1xd5
 165 -9 l 1
 71 -4 18 58 18 158 c 0
 18 315 144 435 278 435 c 0
 356 435 415 395 415 339 c 0
 415 303 390 268 342 268 c 0xd9
EndSplineSet
EndChar
StartChar: egrave
Encoding: 232 232 137
Width: 408
GlyphClass: 2
Flags: MW
HStem: -9 71<206.5 212.5> 400 35<250 281.5>
VStem: 18 134<131.5 168 168 183 131.5 235.5> 307 106<320 367>
AnchorPoint: "Anchor-0" 169 0 basechar 0
LayerCount: 2
Back
Fore
SplineSet
167 599 m 2
 159 604 156 609 157 616 c 0
 158 630 205 653 230 653 c 0
 245 653 247 648 261 629 c 2
 342 523 l 2
 351 511 354 505 353 497 c 0
 353 491 348 487 339 487 c 0
 331 487 322 492 317 496 c 2
 167 599 l 2
413 341 m 0
 413 275 342 202 152 183 c 1
 152 168 l 2
 152 95 184 62 229 62 c 0
 266 62 311 80 351 112 c 1
 373 92 l 1
 327 32 250 -9 175 -9 c 0
 77 -9 18 54 18 158 c 0
 18 313 144 435 273 435 c 0
 357 435 413 397 413 341 c 0
268 400 m 0
 232 400 204 371 182 319 c 0
 168 286 159 251 155 216 c 1
 255 233 307 285 307 355 c 0
 307 379 295 400 268 400 c 0
EndSplineSet
EndChar
StartChar: eacute
Encoding: 233 233 132
Width: 408
GlyphClass: 2
Flags: MW
HStem: -9 71<206.5 212.5> 400 35<250 281.5>
VStem: 18 134<131.5 168 168 183 131.5 235.5> 307 106<320 367>
AnchorPoint: "Anchor-0" 169 0 basechar 0
LayerCount: 2
Back
Fore
SplineSet
378 653 m 0
 402 653 441 631 441 617 c 0
 441 610 436 605 425 599 c 2
 246 496 l 2
 241 492 229 487 221 487 c 0
 214 487 211 490 211 496 c 0
 211 504 216 510 231 524 c 2
 340 629 l 2
 358 647 363 653 378 653 c 0
273 435 m 0
 357 435 413 397 413 341 c 0
 413 275 342 202 152 183 c 1
 152 168 l 2
 152 95 184 62 229 62 c 0
 266 62 311 80 351 112 c 1
 373 92 l 1
 327 32 250 -9 175 -9 c 0
 77 -9 18 54 18 158 c 0
 18 313 144 435 273 435 c 0
155 216 m 1
 255 233 307 285 307 355 c 0
 307 379 295 400 268 400 c 0
 232 400 204 371 182 319 c 0
 168 286 159 251 155 216 c 1
EndSplineSet
EndChar
StartChar: ecircumflex
Encoding: 234 234 134
Width: 408
GlyphClass: 2
Flags: MW
HStem: -9 71<206.5 212.5> 400 35<250 281.5> 570 60<268 292>
VStem: 18 134<131.5 168 168 183 131.5 235.5> 307 106<320 367>
AnchorPoint: "Anchor-0" 169 0 basechar 0
LayerCount: 2
Back
Fore
SplineSet
373 582 m 1
 407 536 437 510 437 501 c 0
 437 498 435 492 423 492 c 0
 412 492 399 499 392 504 c 2
 292 570 l 1
 174 504 l 2
 166 499 152 492 140 492 c 0
 131 492 129 496 129 499 c 0
 129 508 167 535 215 582 c 1
 268 630 l 2
 281 642 294 648 304 648 c 0
 314 648 325 642 334 630 c 2
 373 582 l 1
273 435 m 0
 357 435 413 397 413 341 c 0
 413 275 342 202 152 183 c 1
 152 168 l 2
 152 95 184 62 229 62 c 0
 266 62 311 80 351 112 c 1
 373 92 l 1
 327 32 250 -9 175 -9 c 0
 77 -9 18 54 18 158 c 0
 18 313 144 435 273 435 c 0
155 216 m 1
 255 233 307 285 307 355 c 0
 307 379 295 400 268 400 c 0
 232 400 204 371 182 319 c 0
 168 286 159 251 155 216 c 1
EndSplineSet
EndChar
StartChar: edieresis
Encoding: 235 235 135
Width: 408
GlyphClass: 2
Flags: MW
HStem: -9 71<206.5 212.5> 400 35<250 281.5> 532 125<183 215 377 409>
VStem: 18 134<131.5 168 168 183 131.5 235.5> 121 156<581 607> 307 106<320 367> 315 156<581 607>
AnchorPoint: "Anchor-0" 169 0 basechar 0
LayerCount: 2
Back
Fore
SplineSet
190 532 m 0xea
 149 532 121 553 121 585 c 0
 121 629 159 657 207 657 c 0
 249 657 277 636 277 604 c 0
 277 558 240 532 190 532 c 0xea
401 657 m 0
 443 657 471 636 471 604 c 0
 471 558 434 532 384 532 c 0
 343 532 315 553 315 585 c 0
 315 629 353 657 401 657 c 0
273 435 m 0xf4
 357 435 413 397 413 341 c 0
 413 275 342 202 152 183 c 1
 152 168 l 2
 152 95 184 62 229 62 c 0
 266 62 311 80 351 112 c 1
 373 92 l 1
 327 32 250 -9 175 -9 c 0
 77 -9 18 54 18 158 c 0
 18 313 144 435 273 435 c 0xf4
155 216 m 1
 255 233 307 285 307 355 c 0
 307 379 295 400 268 400 c 0
 232 400 204 371 182 319 c 0
 168 286 159 251 155 216 c 1
EndSplineSet
EndChar
StartChar: igrave
Encoding: 236 236 151
Width: 275
GlyphClass: 2
Flags: MW
HStem: -10 21G<84.5 118> 411 20G<164 197.5>
VStem: 37 208<405 497> 50 130<20.5 113> 88 139<335 415>
LayerCount: 2
Back
Fore
SplineSet
122 653 m 0xe0
 137 653 139 648 153 629 c 2
 234 523 l 2
 243 511 246 505 245 497 c 0
 245 491 240 487 231 487 c 0
 223 487 214 492 209 496 c 2
 59 599 l 2
 51 604 48 609 49 616 c 0
 50 630 97 653 122 653 c 0xe0
244 60 m 1xd0
 189 16 137 -10 99 -10 c 0
 70 -10 50 5 50 36 c 0xd0
 50 68 65 146 76 223 c 0
 84 283 88 324 88 346 c 0
 88 367 72 371 58 371 c 0
 53 371 46 370 42 369 c 1
 37 405 l 1
 88 421 142 431 186 431 c 0
 209 431 227 428 227 402 c 0xc8
 227 388 209 310 195 230 c 0
 186 176 180 124 180 102 c 0
 180 91 181 75 197 75 c 0
 202 75 216 77 233 88 c 1
 244 60 l 1xd0
EndSplineSet
EndChar
StartChar: iacute
Encoding: 237 237 147
Width: 275
GlyphClass: 2
Flags: MW
HStem: -10 21G<84.5 118> 411 20G<164 197.5>
VStem: 37 296<405 624> 50 130<20.5 113> 88 139<335 415>
LayerCount: 2
Back
Fore
SplineSet
333 617 m 0xe0
 333 610 328 605 317 599 c 2
 138 496 l 2
 133 492 121 487 113 487 c 0
 106 487 103 490 103 496 c 0
 103 504 108 510 123 524 c 2
 232 629 l 2
 250 647 255 653 270 653 c 0
 294 653 333 631 333 617 c 0xe0
244 60 m 1xd0
 189 16 137 -10 99 -10 c 0
 70 -10 50 5 50 36 c 0xd0
 50 68 65 146 76 223 c 0
 84 283 88 324 88 346 c 0
 88 367 72 371 58 371 c 0
 53 371 46 370 42 369 c 1
 37 405 l 1
 88 421 142 431 186 431 c 0
 209 431 227 428 227 402 c 0xc8
 227 388 209 310 195 230 c 0
 186 176 180 124 180 102 c 0
 180 91 181 75 197 75 c 0
 202 75 216 77 233 88 c 1
 244 60 l 1xd0
EndSplineSet
EndChar
StartChar: icircumflex
Encoding: 238 238 148
Width: 275
GlyphClass: 2
Flags: MW
HStem: -10 21G<84.5 118> 411 20G<164 197.5>
VStem: 37 270<405 507> 50 130<20.5 113> 88 139<335 415>
LayerCount: 2
Back
Fore
SplineSet
196 659 m 0xe0
 203 659 209 654 217 644 c 1
 294 528 l 2
 302 517 307 509 307 505 c 0
 307 498 302 493 294 493 c 0
 289 493 279 498 270 504 c 2
 183 569 l 1
 78 504 l 2
 67 498 55 493 50 493 c 0
 44 493 40 497 40 502 c 0
 40 507 48 516 59 528 c 2
 171 644 l 1
 180 655 189 659 196 659 c 0xe0
244 60 m 1xd0
 189 16 137 -10 99 -10 c 0
 70 -10 50 5 50 36 c 0xd0
 50 68 65 146 76 223 c 0
 84 283 88 324 88 346 c 0
 88 367 72 371 58 371 c 0
 53 371 46 370 42 369 c 1
 37 405 l 1
 88 421 142 431 186 431 c 0
 209 431 227 428 227 402 c 0xc8
 227 388 209 310 195 230 c 0
 186 176 180 124 180 102 c 0
 180 91 181 75 197 75 c 0
 202 75 216 77 233 88 c 1
 244 60 l 1xd0
EndSplineSet
EndChar
StartChar: idieresis
Encoding: 239 239 149
Width: 275
GlyphClass: 2
Flags: MW
HStem: -10 21G<84.5 118> 411 20G<164 197.5> 532 125<75 107 269 301>
VStem: 13 156<581 607> 50 130<20.5 113> 88 139<335 415> 207 156<581 607>
LayerCount: 2
Back
Fore
SplineSet
99 657 m 0xf2
 141 657 169 636 169 604 c 0
 169 558 132 532 82 532 c 0
 41 532 13 553 13 585 c 0
 13 629 51 657 99 657 c 0xf2
293 657 m 0
 335 657 363 636 363 604 c 0
 363 558 326 532 276 532 c 0
 235 532 207 553 207 585 c 0
 207 629 245 657 293 657 c 0
244 60 m 1xe8
 189 16 137 -10 99 -10 c 0
 70 -10 50 5 50 36 c 0xe8
 50 68 65 146 76 223 c 0
 84 283 88 324 88 346 c 0
 88 367 72 371 58 371 c 0
 53 371 46 370 42 369 c 1
 37 405 l 1
 88 421 142 431 186 431 c 0
 209 431 227 428 227 402 c 0xe4
 227 388 209 310 195 230 c 0
 186 176 180 124 180 102 c 0
 180 91 181 75 197 75 c 0
 202 75 216 77 233 88 c 1
 244 60 l 1xe8
EndSplineSet
EndChar
StartChar: eth
Encoding: 240 240 128
Width: 462
GlyphClass: 2
Flags: MW
HStem: -10 43<185 222 185 265.5> 394 41<271 274 271 277.5> 578 29<116 139>
VStem: 18 131<112 156.5 97.5 231.5> 313 131<269.5 329>
LayerCount: 2
Back
Fore
SplineSet
313 552 m 1
 390 498 444 405 444 268 c 0
 444 122 352 -10 179 -10 c 0
 64 -10 18 67 18 157 c 0
 18 306 114 436 271 435 c 0
 277 435 284 434 290 433 c 1
 278 464 259 492 238 512 c 1
 128 453 l 1
 115 483 l 1
 212 535 l 1
 178 560 144 575 116 578 c 1
 139 607 l 1
 187 606 237 594 281 571 c 1
 372 620 l 1
 384 590 l 1
 313 552 l 1
290 144 m 1
 305 190 313 246 313 293 c 0
 313 365 293 394 262 394 c 0
 218 394 190 343 171 281 c 0
 157 235 149 180 149 133 c 0
 149 62 170 33 200 33 c 0
 244 33 272 82 290 144 c 1
EndSplineSet
EndChar
StartChar: ntilde
Encoding: 241 241 170
Width: 524
GlyphClass: 2
Flags: MW
HStem: -10 21G<332.5 362.5> 0 21G<36 159 36 36> 350 85<296.5 419.5> 411 20G<144.5 181> 525 61<392 420.5 392 421> 565 60<234.5 263>
VStem: 178 28<526 526> 352 129<314.5 327> 449 28<624 624>
AnchorPoint: "Anchor-0" 247 0 basechar 0
LayerCount: 2
Back
Fore
SplineSet
244 565 m 0x57
 225 565 209 550 206 526 c 1
 178 526 l 1
 186 583 211 625 256 625 c 0x57
 304 625 373 586 411 586 c 0
 430 586 446 601 449 624 c 1
 477 624 l 1
 469 567 443 525 399 525 c 0x5a80
 350 525 282 565 244 565 c 0x57
488 88 m 1
 500 60 l 1
 445 16 381 -10 344 -10 c 0
 321 -10 302 7 302 35 c 0
 302 87 352 266 352 316 c 0
 352 338 341 350 322 350 c 0xa7
 271 350 201 227 174 124 c 1
 159 0 l 1
 36 0 l 1
 53 101 82 277 82 339 c 0
 82 359 73 371 53 371 c 0
 48 371 41 370 37 369 c 1
 33 405 l 1
 74 418 120 431 169 431 c 0
 193 431 218 427 218 405 c 0x57
 218 390 204 317 193 253 c 1
 234 340 302 435 392 435 c 0
 447 435 481 398 481 345 c 0x67
 481 284 433 140 432 98 c 0
 432 91 434 75 451 75 c 0
 457 75 471 77 488 88 c 1
EndSplineSet
EndChar
StartChar: oacute
Encoding: 243 243 172
Width: 462
GlyphClass: 2
Flags: MW
HStem: -10 43<185 224.5 185 267.5> 393 42<238.5 278>
VStem: 18 131<111 155.5 97.5 229.5> 313 131<270.5 314.5 196 327.5>
LayerCount: 2
Back
Fore
SplineSet
447 617 m 0
 447 610 442 605 431 599 c 2
 252 496 l 2
 247 492 235 487 227 487 c 0
 220 487 217 490 217 496 c 0
 217 504 222 510 237 524 c 2
 346 629 l 2
 364 647 369 653 384 653 c 0
 408 653 447 631 447 617 c 0
282 435 m 0
 396 435 444 362 444 267 c 0
 444 125 355 -10 180 -10 c 0
 66 -10 18 64 18 158 c 0
 18 301 107 435 282 435 c 0
262 393 m 0
 215 393 187 340 169 278 c 0
 156 231 149 178 149 133 c 0
 149 62 169 33 201 33 c 0
 248 33 277 87 295 152 c 0
 307 197 313 249 313 292 c 0
 313 363 294 393 262 393 c 0
EndSplineSet
EndChar
StartChar: ocircumflex
Encoding: 244 244 173
Width: 462
GlyphClass: 2
Flags: MW
HStem: -10 43<185 224.5 185 267.5> 393 42<238.5 278> 570 60<274 298>
VStem: 18 131<111 155.5 97.5 229.5> 313 131<270.5 314.5 196 327.5>
LayerCount: 2
Back
Fore
SplineSet
146 492 m 0
 137 492 135 496 135 499 c 0
 135 508 173 535 221 582 c 1
 274 630 l 2
 287 642 300 648 310 648 c 0
 320 648 331 642 340 630 c 2
 379 582 l 1
 413 536 443 510 443 501 c 0
 443 498 441 492 429 492 c 0
 418 492 405 499 398 504 c 2
 298 570 l 1
 180 504 l 2
 172 499 158 492 146 492 c 0
282 435 m 0
 396 435 444 362 444 267 c 0
 444 125 355 -10 180 -10 c 0
 66 -10 18 64 18 158 c 0
 18 301 107 435 282 435 c 0
262 393 m 0
 215 393 187 340 169 278 c 0
 156 231 149 178 149 133 c 0
 149 62 169 33 201 33 c 0
 248 33 277 87 295 152 c 0
 307 197 313 249 313 292 c 0
 313 363 294 393 262 393 c 0
EndSplineSet
EndChar
StartChar: otilde
Encoding: 245 245 179
Width: 462
GlyphClass: 2
Flags: MW
HStem: -10 43<185 224.5 185 267.5> 393 42<238.5 278> 525 61<362 390.5 362 391> 565 60<204.5 233>
VStem: 18 131<111 155.5 97.5 229.5> 148 28<526 526> 313 131<270.5 314.5 196 327.5> 419 28<624 624>
LayerCount: 2
Back
Fore
SplineSet
226 625 m 0xd6
 274 625 343 586 381 586 c 0
 400 586 416 601 419 624 c 1
 447 624 l 1
 439 567 413 525 369 525 c 0xe9
 320 525 252 565 214 565 c 0
 195 565 179 550 176 526 c 1
 148 526 l 1
 156 583 181 625 226 625 c 0xd6
282 435 m 0xda
 396 435 444 362 444 267 c 0
 444 125 355 -10 180 -10 c 0
 66 -10 18 64 18 158 c 0
 18 301 107 435 282 435 c 0xda
262 393 m 0
 215 393 187 340 169 278 c 0
 156 231 149 178 149 133 c 0
 149 62 169 33 201 33 c 0
 248 33 277 87 295 152 c 0
 307 197 313 249 313 292 c 0
 313 363 294 393 262 393 c 0
EndSplineSet
EndChar
StartChar: odieresis
Encoding: 246 246 174
Width: 462
GlyphClass: 2
Flags: MW
HStem: -10 43<185 224.5 185 267.5> 393 42<238.5 278> 532 125<189 221 383 415>
VStem: 18 131<111 155.5 97.5 229.5> 127 156<581 607> 313 131<270.5 314.5 196 327.5> 321 156<581 607>
LayerCount: 2
Back
Fore
SplineSet
213 657 m 0xea
 255 657 283 636 283 604 c 0
 283 558 246 532 196 532 c 0
 155 532 127 553 127 585 c 0
 127 629 165 657 213 657 c 0xea
407 657 m 0
 449 657 477 636 477 604 c 0
 477 558 440 532 390 532 c 0
 349 532 321 553 321 585 c 0
 321 629 359 657 407 657 c 0
282 435 m 0xd4
 396 435 444 362 444 267 c 0
 444 125 355 -10 180 -10 c 0
 66 -10 18 64 18 158 c 0
 18 301 107 435 282 435 c 0xd4
262 393 m 0
 215 393 187 340 169 278 c 0
 156 231 149 178 149 133 c 0
 149 62 169 33 201 33 c 0
 248 33 277 87 295 152 c 0
 307 197 313 249 313 292 c 0
 313 363 294 393 262 393 c 0
EndSplineSet
EndChar
StartChar: divide
Encoding: 247 247 314
Width: 450
Flags: MW
HStem: 34 125<196 226.5> 242 56<31 442 23 449> 376 125<244 275>
VStem: 134 155<82.5 110> 182 155<424.5 452>
LayerCount: 2
Back
Fore
SplineSet
268 501 m 0x68
 309 501 337 480 337 446 c 0
 337 403 300 376 250 376 c 0
 209 376 182 396 182 431 c 0
 182 473 220 501 268 501 c 0x68
449 298 m 1
 442 242 l 1
 23 242 l 1
 31 298 l 1
 449 298 l 1
220 159 m 0xd0
 261 159 289 138 289 104 c 0
 289 61 251 34 202 34 c 0
 161 34 134 54 134 89 c 0
 134 131 172 159 220 159 c 0xd0
EndSplineSet
EndChar
StartChar: oslash
Encoding: 248 248 178
Width: 459
GlyphClass: 2
Flags: MW
HStem: -10 43<191.5 224.5 191.5 267.5> 1 21G<113 113> 393 42<238.5 272.5>
VStem: 18 131<129 133 124 229.5> 313 131<292 293 293 293>
LayerCount: 2
Back
Fore
SplineSet
389 403 m 1xb8
 427 373 444 324 444 267 c 0
 444 125 355 -10 180 -10 c 0xb8
 154 -10 132 -6 113 1 c 1
 54 -85 l 1
 18 -67 l 1
 77 19 l 1x78
 36 49 18 100 18 158 c 0
 18 301 107 435 282 435 c 0
 310 435 334 431 355 422 c 1
 411 504 l 1
 443 482 l 1
 389 403 l 1xb8
149 133 m 2
 149 124 l 1
 306 352 l 1
 298 380 283 393 262 393 c 0
 215 393 187 340 169 278 c 0
 156 231 149 178 149 133 c 2
295 152 m 0
 307 197 313 249 313 292 c 2
 313 293 l 1
 158 67 l 1
 167 43 182 33 201 33 c 0
 248 33 277 87 295 152 c 0
EndSplineSet
EndChar
StartChar: ugrave
Encoding: 249 249 202
Width: 525
GlyphClass: 2
Flags: MW
HStem: -10 93<98 221> 411 20G<157.5 193.5> 413 20G<494 494>
VStem: 44 125<48 149> 304 132<20.5 113>
LayerCount: 2
Back
Fore
SplineSet
170 599 m 2xb8
 162 604 159 609 160 616 c 0
 161 630 208 653 233 653 c 0
 248 653 250 648 264 629 c 2
 345 523 l 2
 354 511 357 505 356 497 c 0
 356 491 351 487 342 487 c 0
 334 487 325 492 320 496 c 2
 170 599 l 2xb8
487 88 m 1
 498 60 l 1
 434 7 375 -10 336 -10 c 0
 311 -10 304 5 304 36 c 0
 304 63 311 109 319 165 c 1
 247 34 188 -10 126 -10 c 0
 70 -10 44 26 44 70 c 0
 44 131 93 302 94 342 c 0
 95 366 78 371 57 371 c 0
 49 371 41 370 37 369 c 1
 33 405 l 1
 84 418 132 431 183 431 c 0
 204 431 224 426 224 405 c 0xd8
 224 377 169 176 169 122 c 0
 169 100 177 83 196 83 c 0
 246 83 319 211 338 295 c 1
 357 416 l 1
 494 433 l 1
 455 229 436 134 436 92 c 0
 436 81 440 75 449 75 c 0
 457 75 470 77 487 88 c 1
EndSplineSet
EndChar
StartChar: uacute
Encoding: 250 250 199
Width: 525
GlyphClass: 2
Flags: MW
HStem: -10 93<98 221> 411 20G<157.5 193.5> 413 20G<494 494>
VStem: 44 125<48 149> 304 132<20.5 113>
LayerCount: 2
Back
Fore
SplineSet
224 487 m 0xb8
 217 487 214 490 214 496 c 0
 214 504 219 510 234 524 c 2
 343 629 l 2
 361 647 366 653 381 653 c 0
 405 653 444 631 444 617 c 0
 444 610 439 605 428 599 c 2
 249 496 l 2
 244 492 232 487 224 487 c 0xb8
487 88 m 1
 498 60 l 1
 434 7 375 -10 336 -10 c 0
 311 -10 304 5 304 36 c 0
 304 63 311 109 319 165 c 1
 247 34 188 -10 126 -10 c 0
 70 -10 44 26 44 70 c 0
 44 131 93 302 94 342 c 0
 95 366 78 371 57 371 c 0
 49 371 41 370 37 369 c 1
 33 405 l 1
 84 418 132 431 183 431 c 0
 204 431 224 426 224 405 c 0xd8
 224 377 169 176 169 122 c 0
 169 100 177 83 196 83 c 0
 246 83 319 211 338 295 c 1
 357 416 l 1
 494 433 l 1
 455 229 436 134 436 92 c 0
 436 81 440 75 449 75 c 0
 457 75 470 77 487 88 c 1
EndSplineSet
EndChar
StartChar: ucircumflex
Encoding: 251 251 200
Width: 525
GlyphClass: 2
Flags: MW
HStem: -10 93<98 221> 411 20G<157.5 193.5> 413 20G<494 494> 570 60<271 295>
VStem: 44 125<48 149> 304 132<20.5 113>
LayerCount: 2
Back
Fore
SplineSet
143 492 m 0xbc
 134 492 132 496 132 499 c 0
 132 508 170 535 218 582 c 1
 271 630 l 2
 284 642 297 648 307 648 c 0
 317 648 328 642 337 630 c 2
 376 582 l 1
 410 536 440 510 440 501 c 0
 440 498 438 492 426 492 c 0
 415 492 402 499 395 504 c 2
 295 570 l 1
 177 504 l 2
 169 499 155 492 143 492 c 0xbc
487 88 m 1
 498 60 l 1
 434 7 375 -10 336 -10 c 0
 311 -10 304 5 304 36 c 0
 304 63 311 109 319 165 c 1
 247 34 188 -10 126 -10 c 0
 70 -10 44 26 44 70 c 0
 44 131 93 302 94 342 c 0
 95 366 78 371 57 371 c 0
 49 371 41 370 37 369 c 1
 33 405 l 1
 84 418 132 431 183 431 c 0
 204 431 224 426 224 405 c 0xdc
 224 377 169 176 169 122 c 0
 169 100 177 83 196 83 c 0
 246 83 319 211 338 295 c 1
 357 416 l 1
 494 433 l 1
 455 229 436 134 436 92 c 0
 436 81 440 75 449 75 c 0
 457 75 470 77 487 88 c 1
EndSplineSet
EndChar
StartChar: udieresis
Encoding: 252 252 201
Width: 525
GlyphClass: 2
Flags: MW
HStem: -10 93<98 221> 411 20G<157.5 193.5> 413 20G<494 494> 532 125<186 218 380 412>
VStem: 44 125<48 149> 124 156<581 607> 304 132<20.5 113> 318 156<581 607>
LayerCount: 2
Back
Fore
SplineSet
193 532 m 0xb5
 152 532 124 553 124 585 c 0
 124 629 162 657 210 657 c 0
 252 657 280 636 280 604 c 0
 280 558 243 532 193 532 c 0xb5
387 532 m 0
 346 532 318 553 318 585 c 0
 318 629 356 657 404 657 c 0
 446 657 474 636 474 604 c 0
 474 558 437 532 387 532 c 0
487 88 m 1xba
 498 60 l 1
 434 7 375 -10 336 -10 c 0
 311 -10 304 5 304 36 c 0
 304 63 311 109 319 165 c 1
 247 34 188 -10 126 -10 c 0
 70 -10 44 26 44 70 c 0
 44 131 93 302 94 342 c 0
 95 366 78 371 57 371 c 0
 49 371 41 370 37 369 c 1
 33 405 l 1
 84 418 132 431 183 431 c 0
 204 431 224 426 224 405 c 0xda
 224 377 169 176 169 122 c 0
 169 100 177 83 196 83 c 0
 246 83 319 211 338 295 c 1
 357 416 l 1
 494 433 l 1
 455 229 436 134 436 92 c 0
 436 81 440 75 449 75 c 0
 457 75 470 77 487 88 c 1xba
EndSplineSet
EndChar
StartChar: yacute
Encoding: 253 253 215
Width: 417
GlyphClass: 2
Flags: MW
HStem: -239 131<-64 -30 -71 -1.5> 325 111<308 371> 412 20G<103.5 134.5> 416 20G<328 371>
VStem: 352 67<277.5 384.5>
LayerCount: 2
Back
Fore
SplineSet
180 487 m 0x98
 173 487 170 490 170 496 c 0
 170 504 175 510 190 524 c 2
 299 629 l 2
 317 647 322 653 337 653 c 0
 361 653 400 631 400 617 c 0
 400 610 395 605 384 599 c 2
 205 496 l 2
 200 492 188 487 180 487 c 0x98
349 436 m 0
 393 436 419 408 419 361 c 0x98
 419 286 343 147 260 26 c 1
 152 -135 36 -239 -39 -239 c 0
 -89 -239 -113 -208 -113 -169 c 0
 -113 -134 -87 -108 -55 -108 c 0
 -5 -108 -7 -156 24 -157 c 0
 54 -157 106 -111 166 -36 c 1
 62 342 l 2
 55 367 47 375 32 375 c 0
 27 375 19 374 9 372 c 1
 3 406 l 1
 40 419 88 432 119 432 c 0
 150 432 171 422 185 365 c 2xa8
 253 87 l 1
 307 171 352 255 352 300 c 0
 352 320 339 324 321 325 c 1xc8
 295 325 281 344 281 376 c 0
 281 412 307 436 349 436 c 0
EndSplineSet
Substitution2: "Single Substitution lookup 23 subtable" yacute.ss01
Substitution2: "'ss01' Style Set 1 lookup 16 subtable" yacute.ss01
Substitution2: "'salt' Stylistic Alternatives lookup 15 subtable" yacute.ss01
Substitution2: "'aalt' Access All Alternates lookup 0 subtable" yacute.ss01
EndChar
StartChar: thorn
Encoding: 254 254 182
Width: 495
GlyphClass: 2
Flags: MW
HStem: -239 31<-7 -7 135 138> -10 38<217 239.5 204 304> 358 77<290.5 408.5>
VStem: 349 133<271.5 312>
LayerCount: 2
Back
Fore
SplineSet
380 435 m 0
 437 435 482 388 482 311 c 0
 482 151 375 -10 233 -10 c 0
 201 -10 170 3 156 30 c 1
 143 -65 130 -163 129 -196 c 0
 129 -204 132 -208 138 -208 c 2
 201 -206 l 1
 196 -239 l 1
 -43 -239 l 1
 -38 -206 l 1
 -7 -208 l 1
 1 -207 5 -201 7 -188 c 0
 21 -91 116 582 116 644 c 0
 116 660 103 668 83 668 c 0
 76 668 67 668 59 666 c 1
 54 698 l 1
 114 721 169 730 211 730 c 0
 237 730 255 726 255 701 c 0
 255 685 237 596 225 520 c 0
 210 425 191 312 179 220 c 1
 231 381 314 435 380 435 c 0
326 163 m 1
 341 206 349 253 349 290 c 0
 349 334 334 358 314 358 c 0
 267 358 168 174 168 78 c 0
 168 44 191 28 217 28 c 0
 262 28 302 82 326 163 c 1
EndSplineSet
EndChar
StartChar: ydieresis
Encoding: 255 255 217
Width: 417
GlyphClass: 2
Flags: MW
HStem: -239 131<-64 -30 -71 -1.5> 325 111<308 371> 412 20G<103.5 134.5> 416 20G<328 371> 532 125<142 174 336 368>
VStem: 80 156<581 607> 274 156<581 607> 352 67<277.5 384.5>
LayerCount: 2
Back
Fore
SplineSet
149 532 m 0x9d
 108 532 80 553 80 585 c 0
 80 629 118 657 166 657 c 0
 208 657 236 636 236 604 c 0
 236 558 199 532 149 532 c 0x9d
343 532 m 0x9e
 302 532 274 553 274 585 c 0
 274 629 312 657 360 657 c 0
 402 657 430 636 430 604 c 0
 430 558 393 532 343 532 c 0x9e
349 436 m 0x9d
 393 436 419 408 419 361 c 0x9d
 419 286 343 147 260 26 c 1
 152 -135 36 -239 -39 -239 c 0
 -89 -239 -113 -208 -113 -169 c 0
 -113 -134 -87 -108 -55 -108 c 0
 -5 -108 -7 -156 24 -157 c 0
 54 -157 106 -111 166 -36 c 1
 62 342 l 2
 55 367 47 375 32 375 c 0
 27 375 19 374 9 372 c 1
 3 406 l 1
 40 419 88 432 119 432 c 0
 150 432 171 422 185 365 c 2xad
 253 87 l 1
 307 171 352 255 352 300 c 0
 352 320 339 324 321 325 c 1xcd
 295 325 281 344 281 376 c 0
 281 412 307 436 349 436 c 0x9d
EndSplineSet
Substitution2: "Single Substitution lookup 23 subtable" ydieresis.ss01
Substitution2: "'ss01' Style Set 1 lookup 16 subtable" ydieresis.ss01
Substitution2: "'salt' Stylistic Alternatives lookup 15 subtable" ydieresis.ss01
Substitution2: "'aalt' Access All Alternates lookup 0 subtable" ydieresis.ss01
EndChar
StartChar: amacron
Encoding: 257 257 117
Width: 511
GlyphClass: 2
Flags: MW
HStem: -10 78<88.5 216.5> 398 37<269.5 294 208 309.5> 560 47<207 440 200 447>
VStem: 26 134<110 148 110 192> 294 128<20.5 110>
LayerCount: 2
Back
Fore
SplineSet
447 607 m 1
 440 560 l 1
 200 560 l 1
 207 607 l 1
 447 607 l 1
435 75 m 0
 446 75 460 79 473 88 c 1
 485 60 l 1
 442 19 376 -10 330 -10 c 0
 299 -10 294 5 294 36 c 0
 294 61 302 110 311 165 c 1
 253 34 181 -10 118 -10 c 0
 59 -10 26 36 26 112 c 0
 26 272 137 435 279 435 c 0
 309 435 338 422 353 397 c 1
 359 420 l 1
 488 434 l 1
 465 338 l 2
 442 238 422 128 422 92 c 0
 422 81 426 75 435 75 c 0
192 68 m 0
 241 68 340 255 340 353 c 0
 340 378 324 398 295 398 c 0
 244 398 200 333 176 241 c 0
 166 203 160 165 160 131 c 0
 160 89 173 68 192 68 c 0
EndSplineSet
EndChar
StartChar: Abreve
Encoding: 258 258 4
Width: 608
GlyphClass: 2
Flags: MW
HStem: 0 35<-10 5 -10 132 575 580> 186 35<156 345 156 355 137 345> 587 20G<330 379 379 379> 659 65<340 394.5 340 399>
VStem: -48 654<0 37>
LayerCount: 2
Back
Fore
SplineSet
359 659 m 0
 279 659 236 713 245 790 c 1
 292 790 l 1
 296 758 312 724 368 724 c 0
 421 724 452 758 464 790 c 1
 511 790 l 1
 498 713 439 659 359 659 c 0
580 35 m 1
 606 37 l 1
 601 0 l 1
 302 0 l 1
 307 37 l 1
 354 35 l 1
 377 33 385 46 386 63 c 0
 386 74 383 86 380 98 c 2
 355 186 l 1
 137 186 l 1
 93 104 l 2
 82 84 73 63 73 49 c 0
 73 39 78 33 91 34 c 2
 137 37 l 1
 132 0 l 1
 -48 0 l 1
 -43 37 l 1
 -10 35 l 1
 20 35 43 76 62 112 c 2
 330 607 l 1
 379 607 l 1
 521 110 l 2
 534 64 544 35 575 35 c 2
 580 35 l 1
156 221 m 1
 345 221 l 1
 280 451 l 1
 156 221 l 1
EndSplineSet
EndChar
StartChar: Aogonek
Encoding: 260 260 9
Width: 608
GlyphClass: 2
Flags: MW
HStem: -159 58<492.5 566.5> 0 35<-10 5 -10 132 575 580> 186 35<156 345 156 355 137 345> 587 20G<330 379 379 379>
VStem: 439 72<-117 -49.5>
LayerCount: 2
Back
Fore
SplineSet
626 -79 m 1
 636 -99 l 1
 598 -137 554 -159 511 -159 c 0
 474 -159 439 -138 439 -96 c 0
 439 -61 461 -26 502 0 c 1
 302 0 l 1
 307 37 l 1
 354 35 l 1
 377 33 385 46 386 63 c 0
 386 74 383 86 380 98 c 2
 355 186 l 1
 137 186 l 1
 93 104 l 2
 82 84 73 63 73 49 c 0
 73 39 78 33 91 34 c 2
 137 37 l 1
 132 0 l 1
 -48 0 l 1
 -43 37 l 1
 -10 35 l 1
 20 35 43 76 62 112 c 2
 330 607 l 1
 379 607 l 1
 521 110 l 2
 534 64 544 35 575 35 c 2
 580 35 l 1
 606 37 l 1
 601 0 l 1
 542 0 l 1
 522 -16 511 -38 511 -61 c 0
 511 -83 524 -101 555 -101 c 0
 578 -101 602 -93 626 -79 c 1
156 221 m 1
 345 221 l 1
 280 451 l 1
 156 221 l 1
EndSplineSet
EndChar
StartChar: aogonek
Encoding: 261 261 118
Width: 511
GlyphClass: 2
Flags: MW
HStem: -159 58<345.5 419.5> -10 78<88.5 216.5> 398 37<269.5 294 208 309.5>
VStem: 26 134<110 148 110 192> 292 72<-117 -46.5> 294 128<20.5 110>
LayerCount: 2
Back
Fore
SplineSet
479 -79 m 1xf8
 489 -99 l 1
 451 -137 407 -159 364 -159 c 0
 327 -159 292 -138 292 -96 c 0
 292 -65 309 -34 341 -9 c 1
 337 -10 334 -10 330 -10 c 0
 299 -10 294 5 294 36 c 0
 294 61 302 110 311 165 c 1xf8
 253 34 181 -10 118 -10 c 0
 59 -10 26 36 26 112 c 0
 26 272 137 435 279 435 c 0
 309 435 338 422 353 397 c 1
 359 420 l 1
 488 434 l 1
 465 338 l 2
 442 238 422 128 422 92 c 0
 422 81 426 75 435 75 c 0
 446 75 460 79 473 88 c 1
 485 60 l 1xf4
 464 40 437 22 409 10 c 1
 381 -6 364 -32 364 -61 c 0
 364 -83 377 -101 408 -101 c 0
 431 -101 455 -93 479 -79 c 1xf8
192 68 m 0
 241 68 340 255 340 353 c 0
 340 378 324 398 295 398 c 0
 244 398 200 333 176 241 c 0
 166 203 160 165 160 131 c 0
 160 89 173 68 192 68 c 0
EndSplineSet
EndChar
StartChar: Cacute
Encoding: 262 262 15
Width: 593
GlyphClass: 2
Flags: MW
HStem: -10 35<288.5 354> 35 132<522 531 531 537> 433 131<560 582 550 599> 575 32<335.5 440>
VStem: 38 150<170 340.5 170 361>
AnchorPoint: "Anchor-0" 307 0 basechar 0
LayerCount: 2
Back
Fore
SplineSet
561 790 m 0
 561 783 556 778 545 772 c 2
 366 669 l 2
 361 665 349 660 341 660 c 0
 334 660 331 663 331 669 c 0
 331 677 336 683 351 697 c 2
 460 802 l 2
 478 820 483 826 498 826 c 0
 522 826 561 804 561 790 c 0
38 251 m 0
 38 471 174 607 391 607 c 0x98
 505 607 521 564 599 564 c 1
 587 519 581 469 581 450 c 0
 581 442 582 434 582 433 c 1xb8
 550 433 l 1
 543 511 480 575 400 575 c 0
 271 575 188 443 188 238 c 0
 188 102 243 25 334 25 c 0x98
 418 25 494 87 522 167 c 1
 558 167 l 1xd8
 543 107 537 80 537 49 c 2
 537 35 l 1
 531 35 l 2
 467 35 401 -10 307 -10 c 0
 137 -10 38 89 38 251 c 0
EndSplineSet
EndChar
StartChar: cacute
Encoding: 263 263 124
Width: 416
GlyphClass: 2
Flags: MW
HStem: -9 71<205.5 213> 400 35<249.5 280>
VStem: 18 134<132.5 194 132.5 236.5> 310 105<350.5 367 321 374>
AnchorPoint: "Anchor-0" 188 0 basechar 0
LayerCount: 2
Back
Fore
SplineSet
426 617 m 0
 426 610 421 605 410 599 c 2
 231 496 l 2
 226 492 214 487 206 487 c 0
 199 487 196 490 196 496 c 0
 196 504 201 510 216 524 c 2
 325 629 l 2
 343 647 348 653 363 653 c 0
 387 653 426 631 426 617 c 0
278 435 m 0
 356 435 415 395 415 339 c 0
 415 303 390 268 342 268 c 0
 322 268 294 275 294 306 c 0
 294 330 310 339 310 362 c 0
 310 386 292 400 268 400 c 0
 231 400 203 369 181 316 c 0
 161 269 152 219 152 169 c 0
 152 96 182 62 229 62 c 0
 268 62 314 82 351 112 c 1
 373 92 l 1
 327 32 250 -9 176 -9 c 0
 75 -9 18 54 18 158 c 0
 18 315 144 435 278 435 c 0
EndSplineSet
EndChar
StartChar: Ccaron
Encoding: 268 268 16
Width: 593
GlyphClass: 2
Flags: MW
HStem: -10 35<288.5 354> 35 132<522 531 531 537> 433 131<560 582 550 599> 575 32<335.5 440> 686 60<369 411 411 435>
VStem: 38 150<170 340.5 170 361>
AnchorPoint: "Anchor-0" 307 0 basechar 0
LayerCount: 2
Back
Fore
SplineSet
563 824 m 0
 572 824 574 820 574 817 c 0
 574 808 536 781 488 734 c 1
 435 686 l 2
 422 674 409 668 399 668 c 0
 389 668 378 674 369 686 c 2
 330 734 l 1
 296 780 266 806 266 815 c 0
 266 818 268 824 280 824 c 0
 291 824 304 817 311 812 c 2
 411 746 l 1
 529 812 l 2
 537 817 551 824 563 824 c 0
38 251 m 0
 38 471 174 607 391 607 c 0x9c
 505 607 521 564 599 564 c 1
 587 519 581 469 581 450 c 0
 581 442 582 434 582 433 c 1xbc
 550 433 l 1
 543 511 480 575 400 575 c 0
 271 575 188 443 188 238 c 0
 188 102 243 25 334 25 c 0x9c
 418 25 494 87 522 167 c 1
 558 167 l 1xdc
 543 107 537 80 537 49 c 2
 537 35 l 1
 531 35 l 2
 467 35 401 -10 307 -10 c 0
 137 -10 38 89 38 251 c 0
EndSplineSet
EndChar
StartChar: ccaron
Encoding: 269 269 125
Width: 416
GlyphClass: 2
Flags: MW
HStem: -9 71<205.5 213> 400 35<249.5 280> 519 60<237 279 279 303>
VStem: 18 134<132.5 194 132.5 236.5> 310 105<350.5 367 321 374>
AnchorPoint: "Anchor-0" 188 0 basechar 0
LayerCount: 2
Back
Fore
SplineSet
431 657 m 0
 440 657 442 653 442 650 c 0
 442 641 404 614 356 567 c 1
 303 519 l 2
 290 507 277 501 267 501 c 0
 257 501 246 507 237 519 c 2
 198 567 l 1
 164 613 134 639 134 648 c 0
 134 651 136 657 148 657 c 0
 159 657 172 650 179 645 c 2
 279 579 l 1
 397 645 l 2
 405 650 419 657 431 657 c 0
278 435 m 0
 356 435 415 395 415 339 c 0
 415 303 390 268 342 268 c 0
 322 268 294 275 294 306 c 0
 294 330 310 339 310 362 c 0
 310 386 292 400 268 400 c 0
 231 400 203 369 181 316 c 0
 161 269 152 219 152 169 c 0
 152 96 182 62 229 62 c 0
 268 62 314 82 351 112 c 1
 373 92 l 1
 327 32 250 -9 176 -9 c 0
 75 -9 18 54 18 158 c 0
 18 315 144 435 278 435 c 0
EndSplineSet
EndChar
StartChar: Dcaron
Encoding: 270 270 20
Width: 636
GlyphClass: 2
Flags: MW
HStem: 0 36<216 238 238 262> 562 35<123 129.5 286.5 290 290 313> 686 60<323 365 365 389>
VStem: 476 144<333.5 423 247.5 432.5>
LayerCount: 2
Back
Fore
SplineSet
517 824 m 0
 526 824 528 820 528 817 c 0
 528 808 490 781 442 734 c 1
 389 686 l 2
 376 674 363 668 353 668 c 0
 343 668 332 674 323 686 c 2
 284 734 l 1
 250 780 220 806 220 815 c 0
 220 818 222 824 234 824 c 0
 245 824 258 817 265 812 c 2
 365 746 l 1
 483 812 l 2
 491 817 505 824 517 824 c 0
334 597 m 2
 528 597 620 506 620 340 c 0
 620 155 509 0 262 0 c 2
 8 0 l 1
 13 37 l 1
 52 35 l 2
 63 34 68 45 70 57 c 2
 138 541 l 2
 139 550 136 562 123 562 c 2
 87 560 l 1
 92 597 l 1
 334 597 l 2
313 562 m 2
 290 562 l 2
 283 562 278 558 277 549 c 2
 206 49 l 2
 205 40 208 36 216 36 c 2
 238 36 l 2
 365 36 424 107 453 202 c 0
 469 251 476 307 476 360 c 0
 476 505 428 562 313 562 c 2
EndSplineSet
EndChar
StartChar: dcaron
Encoding: 271 271 129
Width: 511
GlyphClass: 2
Flags: MW
HStem: -10 78<85.5 204.5> 398 37<252.5 277.5 190.5 290.5>
VStem: 12 134<113.5 152.5 113.5 194> 291 131<22 102> 516 131<559 588 541.5 588.5>
LayerCount: 2
Back
Fore
SplineSet
464 730 m 0
 490 730 508 726 508 701 c 0
 508 686 498 634 486 567 c 0
 462 424 424 189 422 102 c 0
 422 91 425 75 441 75 c 0
 445 75 458 77 472 86 c 1
 485 59 l 1
 432 14 376 -10 339 -10 c 0
 309 -10 291 7 291 37 c 0
 291 82 296 125 304 173 c 1
 251 37 175 -10 114 -10 c 0
 57 -10 12 38 12 114 c 0
 12 274 120 435 261 435 c 0
 294 435 326 421 339 393 c 1
 355 494 370 613 370 644 c 0
 370 660 357 668 336 668 c 0
 329 668 320 668 312 666 c 1
 307 698 l 1
 366 721 420 730 464 730 c 0
586 631 m 0
 623 631 647 606 647 570 c 0
 647 513 590 461 540 439 c 1
 523 461 l 1
 543 474 567 494 567 515 c 1
 568 530 559 534 549 534 c 0
 528 534 516 548 516 570 c 0
 516 607 548 631 586 631 c 0
181 68 m 0
 228 68 326 251 326 348 c 0
 326 381 304 398 277 398 c 0
 228 398 186 334 162 244 c 0
 152 207 146 169 146 136 c 0
 146 91 161 68 181 68 c 0
EndSplineSet
EndChar
StartChar: dcroat
Encoding: 273 273 130
Width: 511
GlyphClass: 2
Flags: MW
HStem: -10 78<85.5 204.5> 398 37<252.5 277.5 190.5 290.5> 551 47<280 361 272 367 492 539>
VStem: 12 134<113.5 152.5 113.5 194> 291 131<22 102>
LayerCount: 2
Back
Fore
SplineSet
539 551 m 1
 483 551 l 1
 459 407 424 186 422 102 c 0
 422 91 425 75 441 75 c 0
 445 75 458 77 472 86 c 1
 485 59 l 1
 432 14 376 -10 339 -10 c 0
 309 -10 291 7 291 37 c 0
 291 82 296 125 304 173 c 1
 251 37 175 -10 114 -10 c 0
 57 -10 12 38 12 114 c 0
 12 274 120 435 261 435 c 0
 294 435 326 421 339 393 c 1
 347 446 356 504 361 551 c 1
 272 551 l 1
 280 598 l 1
 367 598 l 1
 369 619 370 635 370 644 c 0
 370 660 357 668 336 668 c 0
 329 668 320 668 312 666 c 1
 307 698 l 1
 366 721 420 730 464 730 c 0
 490 730 508 726 508 701 c 0
 508 688 501 650 492 598 c 1
 547 598 l 1
 539 551 l 1
181 68 m 0
 228 68 326 251 326 348 c 0
 326 381 304 398 277 398 c 0
 228 398 186 334 162 244 c 0
 152 207 146 169 146 136 c 0
 146 91 161 68 181 68 c 0
EndSplineSet
EndChar
StartChar: Emacron
Encoding: 274 274 29
Width: 566
GlyphClass: 2
Flags: MW
HStem: 0 36<216 325 325 370> 290 35<246 311 240 316> 406 20G<405 440 440 440> 443 154<490 525 490 490> 562 35<122 127.5 286.5 290 290 367> 677 47<234 467 227 474>
VStem: 405 35<426 426> 492.13 32.87
AnchorPoint: "Anchor-0" 230 0 basechar 0
LayerCount: 2
Back
Fore
SplineSet
474 724 m 1xef
 467 677 l 1
 227 677 l 1
 234 724 l 1
 474 724 l 1xef
547 598 m 1
 525 443 l 1
 490 443 l 1xf7
 502 527 464 562 367 562 c 2
 290 562 l 2
 283 562 278 557 277 548 c 2
 246 325 l 1
 316 325 l 2
 359 325 396 362 405 426 c 1
 440 426 l 1
 407 191 l 1
 372 191 l 1
 379 248 351 290 311 290 c 2
 240 290 l 1
 206 49 l 2
 205 40 208 36 216 36 c 2
 325 36 l 2
 415 36 469 87 482 179 c 1
 517 179 l 1
 492 -3 l 1
 477 -1 440 0 397 0 c 2
 8 0 l 1
 14 38 l 1
 49 35 l 1
 61 35 68 42 70 57 c 2
 138 541 l 2
 139 553 133 562 122 562 c 2
 87 560 l 1
 92 597 l 1
 529 597 l 2
 537 597 543 597 547 598 c 1
EndSplineSet
EndChar
StartChar: emacron
Encoding: 275 275 138
Width: 408
GlyphClass: 2
Flags: MW
HStem: -9 71<206.5 212.5> 400 35<250 281.5> 560 47<177 410 170 417>
VStem: 18 134<131.5 168 168 183 131.5 235.5> 307 106<320 367>
AnchorPoint: "Anchor-0" 169 0 basechar 0
LayerCount: 2
Back
Fore
SplineSet
417 607 m 1
 410 560 l 1
 170 560 l 1
 177 607 l 1
 417 607 l 1
273 435 m 0
 357 435 413 397 413 341 c 0
 413 275 342 202 152 183 c 1
 152 168 l 2
 152 95 184 62 229 62 c 0
 266 62 311 80 351 112 c 1
 373 92 l 1
 327 32 250 -9 175 -9 c 0
 77 -9 18 54 18 158 c 0
 18 313 144 435 273 435 c 0
155 216 m 1
 255 233 307 285 307 355 c 0
 307 379 295 400 268 400 c 0
 232 400 204 371 182 319 c 0
 168 286 159 251 155 216 c 1
EndSplineSet
EndChar
StartChar: Edotaccent
Encoding: 278 278 27
Width: 566
GlyphClass: 2
Flags: MW
HStem: 0 36<216 325 325 370> 290 35<246 311 240 316> 406 20G<405 440 440 440> 443 154<490 525 490 490> 562 35<122 127.5 286.5 290 290 367> 679 125<341 373>
VStem: 279 156<728 754> 405 35<426 426> 492.13 32.87
AnchorPoint: "Anchor-0" 230 0 basechar 0
LayerCount: 2
Back
Fore
SplineSet
365 804 m 0xee80
 407 804 435 783 435 751 c 0
 435 705 398 679 348 679 c 0
 307 679 279 700 279 732 c 0
 279 776 317 804 365 804 c 0xee80
547 598 m 1
 525 443 l 1
 490 443 l 1xf580
 502 527 464 562 367 562 c 2
 290 562 l 2
 283 562 278 557 277 548 c 2
 246 325 l 1
 316 325 l 2
 359 325 396 362 405 426 c 1
 440 426 l 1
 407 191 l 1
 372 191 l 1xed80
 379 248 351 290 311 290 c 2
 240 290 l 1
 206 49 l 2
 205 40 208 36 216 36 c 2
 325 36 l 2
 415 36 469 87 482 179 c 1
 517 179 l 1
 492 -3 l 1
 477 -1 440 0 397 0 c 2
 8 0 l 1
 14 38 l 1
 49 35 l 1
 61 35 68 42 70 57 c 2
 138 541 l 2
 139 553 133 562 122 562 c 2
 87 560 l 1
 92 597 l 1
 529 597 l 2
 537 597 543 597 547 598 c 1
EndSplineSet
EndChar
StartChar: edotaccent
Encoding: 279 279 136
Width: 408
GlyphClass: 2
Flags: MW
HStem: -9 71<206.5 212.5> 400 35<250 281.5> 532 125<278 310>
VStem: 18 134<131.5 168 168 183 131.5 235.5> 216 156<581 607> 307 106<320 367>
AnchorPoint: "Anchor-0" 169 0 basechar 0
LayerCount: 2
Back
Fore
SplineSet
285 532 m 0xf8
 244 532 216 553 216 585 c 0
 216 629 254 657 302 657 c 0
 344 657 372 636 372 604 c 0
 372 558 335 532 285 532 c 0xf8
413 341 m 0xf4
 413 275 342 202 152 183 c 1
 152 168 l 2
 152 95 184 62 229 62 c 0
 266 62 311 80 351 112 c 1
 373 92 l 1
 327 32 250 -9 175 -9 c 0
 77 -9 18 54 18 158 c 0
 18 313 144 435 273 435 c 0
 357 435 413 397 413 341 c 0xf4
268 400 m 0
 232 400 204 371 182 319 c 0
 168 286 159 251 155 216 c 1
 255 233 307 285 307 355 c 0
 307 379 295 400 268 400 c 0
EndSplineSet
EndChar
StartChar: Eogonek
Encoding: 280 280 30
Width: 566
GlyphClass: 2
Flags: MW
HStem: -159 58<379.5 453.5> -3 39 0 36<216 325 325 370> 290 35<246 311 240 316> 406 20G<405 440 440 440> 443 154<490 525 490 490> 562 35<122 127.5 286.5 290 290 367>
VStem: 326 72<-117 -49.5> 405 35<426 426> 492.13 32.87
AnchorPoint: "Anchor-0" 230 0 basechar 0
LayerCount: 2
Back
Fore
SplineSet
525 443 m 1xbd40
 490 443 l 1xbd40
 502 527 464 562 367 562 c 2
 290 562 l 2
 283 562 278 557 277 548 c 2
 246 325 l 1
 316 325 l 2
 359 325 396 362 405 426 c 1
 440 426 l 1
 407 191 l 1
 372 191 l 1
 379 248 351 290 311 290 c 2
 240 290 l 1
 206 49 l 2
 205 40 208 36 216 36 c 2
 325 36 l 2xbac0
 415 36 469 87 482 179 c 1
 517 179 l 1
 492 -3 l 1xdb40
 481 -2 458 -1 429 0 c 1
 409 -16 398 -38 398 -61 c 0
 398 -83 411 -101 442 -101 c 0
 465 -101 489 -93 513 -79 c 1
 523 -99 l 1
 485 -137 441 -159 398 -159 c 0
 361 -159 326 -138 326 -96 c 0
 326 -61 348 -26 389 0 c 1
 8 0 l 1
 14 38 l 1
 49 35 l 1
 61 35 68 42 70 57 c 2
 138 541 l 2
 139 553 133 562 122 562 c 2
 87 560 l 1
 92 597 l 1
 529 597 l 2
 537 597 543 597 547 598 c 1xbb40
 525 443 l 1xbd40
EndSplineSet
EndChar
StartChar: eogonek
Encoding: 281 281 139
Width: 408
GlyphClass: 2
Flags: MW
HStem: -159 58<202.5 276.5> -9 71<126 247.5> 400 35<250 281.5>
VStem: 18 134<131.5 168 168 183 131.5 235.5> 149 72<-117 -46.5> 307 106<320 367>
AnchorPoint: "Anchor-0" 169 0 basechar 0
LayerCount: 2
Back
Fore
SplineSet
413 341 m 0xf4
 413 275 342 202 152 183 c 1
 152 168 l 2
 152 95 184 62 229 62 c 0xf4
 266 62 311 80 351 112 c 1
 373 92 l 1
 347 58 310 29 269 12 c 1
 239 -5 221 -32 221 -61 c 0
 221 -83 234 -101 265 -101 c 0
 288 -101 312 -93 336 -79 c 1
 346 -99 l 1
 308 -137 264 -159 221 -159 c 0
 184 -159 149 -138 149 -96 c 0
 149 -64 167 -32 201 -7 c 1xec
 192 -8 184 -9 175 -9 c 0
 77 -9 18 54 18 158 c 0
 18 313 144 435 273 435 c 0
 357 435 413 397 413 341 c 0xf4
268 400 m 0
 232 400 204 371 182 319 c 0
 168 286 159 251 155 216 c 1
 255 233 307 285 307 355 c 0
 307 379 295 400 268 400 c 0
EndSplineSet
EndChar
StartChar: Ecaron
Encoding: 282 282 24
Width: 566
GlyphClass: 2
Flags: MW
HStem: 0 36<216 325 325 370> 290 35<246 311 240 316> 406 20G<405 440 440 440> 443 154<490 525 490 490> 562 35<122 127.5 286.5 290 290 367> 686 60<316 358 358 382>
VStem: 405 35<426 426> 492.13 32.87
AnchorPoint: "Anchor-0" 230 0 basechar 0
LayerCount: 2
Back
Fore
SplineSet
510 824 m 0xef
 519 824 521 820 521 817 c 0
 521 808 483 781 435 734 c 1
 382 686 l 2
 369 674 356 668 346 668 c 0
 336 668 325 674 316 686 c 2
 277 734 l 1
 243 780 213 806 213 815 c 0
 213 818 215 824 227 824 c 0
 238 824 251 817 258 812 c 2
 358 746 l 1
 476 812 l 2
 484 817 498 824 510 824 c 0xef
547 598 m 1
 525 443 l 1
 490 443 l 1xf7
 502 527 464 562 367 562 c 2
 290 562 l 2
 283 562 278 557 277 548 c 2
 246 325 l 1
 316 325 l 2
 359 325 396 362 405 426 c 1
 440 426 l 1
 407 191 l 1
 372 191 l 1
 379 248 351 290 311 290 c 2
 240 290 l 1
 206 49 l 2
 205 40 208 36 216 36 c 2
 325 36 l 2
 415 36 469 87 482 179 c 1
 517 179 l 1
 492 -3 l 1
 477 -1 440 0 397 0 c 2
 8 0 l 1
 14 38 l 1
 49 35 l 1
 61 35 68 42 70 57 c 2
 138 541 l 2
 139 553 133 562 122 562 c 2
 87 560 l 1
 92 597 l 1
 529 597 l 2
 537 597 543 597 547 598 c 1
EndSplineSet
EndChar
StartChar: ecaron
Encoding: 283 283 133
Width: 408
GlyphClass: 2
Flags: MW
HStem: -9 71<206.5 212.5> 400 35<250 281.5> 519 60<252 294 294 318>
VStem: 18 134<131.5 168 168 183 131.5 235.5> 307 106<320 367>
AnchorPoint: "Anchor-0" 169 0 basechar 0
LayerCount: 2
Back
Fore
SplineSet
446 657 m 0
 455 657 457 653 457 650 c 0
 457 641 419 614 371 567 c 1
 318 519 l 2
 305 507 292 501 282 501 c 0
 272 501 261 507 252 519 c 2
 213 567 l 1
 179 613 149 639 149 648 c 0
 149 651 151 657 163 657 c 0
 174 657 187 650 194 645 c 2
 294 579 l 1
 412 645 l 2
 420 650 434 657 446 657 c 0
273 435 m 0
 357 435 413 397 413 341 c 0
 413 275 342 202 152 183 c 1
 152 168 l 2
 152 95 184 62 229 62 c 0
 266 62 311 80 351 112 c 1
 373 92 l 1
 327 32 250 -9 175 -9 c 0
 77 -9 18 54 18 158 c 0
 18 313 144 435 273 435 c 0
155 216 m 1
 255 233 307 285 307 355 c 0
 307 379 295 400 268 400 c 0
 232 400 204 371 182 319 c 0
 168 286 159 251 155 216 c 1
EndSplineSet
EndChar
StartChar: Gbreve
Encoding: 286 286 33
Width: 646
GlyphClass: 2
Flags: MW
HStem: -10 35<274 335.5 274 367> 238 34<424 430.5 593.5 599> 426 138<587.5 591 540 611> 575 32<335.5 451.5> 659 65<365 419.5 365 424>
VStem: 38 147<159.5 324 149.5 361> 545 46
AnchorPoint: "Anchor-0" 300 0 basechar 0
LayerCount: 2
Back
Fore
SplineSet
536 790 m 1
 523 713 464 659 384 659 c 0
 304 659 261 713 270 790 c 1
 317 790 l 1
 321 758 337 724 393 724 c 0
 446 724 477 758 489 790 c 1
 536 790 l 1
397 607 m 0
 508 607 564 564 611 564 c 1
 599 518 594 479 591 426 c 1
 540 426 l 1xfe
 543 433 544 437 545 449 c 0
 551 530 500 575 403 575 c 0
 268 575 185 434 185 214 c 0
 185 85 232 25 316 25 c 0
 355 25 386 35 419 68 c 1
 439 216 l 2
 441 231 437 238 424 238 c 2
 365 236 l 1
 370 272 l 1
 636 272 l 1
 632 236 l 1
 599 238 l 2
 588 238 579 228 577 217 c 2
 552 35 l 1
 547 36 540 37 533 37 c 0
 484 37 431 -10 303 -10 c 0
 138 -10 38 75 38 244 c 0
 38 478 173 607 397 607 c 0
EndSplineSet
EndChar
StartChar: gbreve
Encoding: 287 287 142
Width: 481
GlyphClass: 2
Flags: MW
HStem: -245 33<130 214 130 238.5> 127 31<202.5 236 202.5 276.5> 405 30<247 280> 410 20G 449 61<419 491> 511 65<254 308.5 254 313>
VStem: -31 94<-163.5 -127> 20 104<18.5 104> 42 131<222 238.5 200 293> 308 132<323.5 341.5 269.5 361.5> 322 115<-141 -108>
LayerCount: 2
Back
Fore
SplineSet
273 511 m 0xe4a0
 193 511 150 565 159 642 c 1
 206 642 l 1
 210 610 226 576 282 576 c 0
 335 576 366 610 378 642 c 1
 425 642 l 1
 412 565 353 511 273 511 c 0xe4a0
475 510 m 0xe8a0
 507 510 530 495 530 465 c 0
 530 446 517 414 480 414 c 0
 441 414 451 449 425 449 c 0
 413 449 391 440 372 420 c 1
 419 401 440 363 440 320 c 0
 440 219 356 127 197 127 c 0
 176 127 158 129 141 132 c 1
 131 122 124 110 124 98 c 0xe940
 124 64 187 57 257 43 c 0
 342 26 437 4 437 -90 c 0
 437 -192 319 -245 158 -245 c 0
 32 -245 -31 -212 -31 -152 c 0xe620
 -31 -102 17 -62 91 -36 c 1
 50 -22 20 -1 20 38 c 0
 20 68 39 95 78 125 c 2xe520
 104 145 l 1
 61 165 42 201 42 243 c 0
 42 343 125 435 286 435 c 0xe4a0
 307 435 325 433 341 430 c 1xd4a0
 379 473 428 510 475 510 c 0xe8a0
294 237 m 0xe4c0
 305 268 308 308 308 339 c 0
 308 384 293 405 267 405 c 0
 227 405 203 371 188 326 c 0
 178 294 173 254 173 223 c 0
 173 177 188 158 217 158 c 0
 255 158 279 191 294 237 c 0xe4c0
322 -130 m 0xe620
 322 -86 262 -72 196 -59 c 0
 174 -55 151 -51 129 -46 c 1
 96 -62 63 -102 63 -144 c 0
 63 -183 92 -212 168 -212 c 0
 260 -212 322 -173 322 -130 c 0xe620
EndSplineSet
EndChar
StartChar: Gcommaaccent
Encoding: 290 290 34
Width: 646
GlyphClass: 2
Flags: MW
HStem: -10 35<274 335.5 274 367> 238 34<424 430.5 593.5 599> 426 138<587.5 591 540 611> 575 32<335.5 451.5>
VStem: 38 147<159.5 324 149.5 361> 227 141<-110 -84.5 -135 -84> 545 46
AnchorPoint: "Anchor-0" 300 0 basechar 0
LayerCount: 2
Back
Fore
SplineSet
397 607 m 0
 508 607 564 564 611 564 c 1
 599 518 594 479 591 426 c 1
 540 426 l 1xfe
 543 433 544 437 545 449 c 0
 551 530 500 575 403 575 c 0
 268 575 185 434 185 214 c 0
 185 85 232 25 316 25 c 0
 355 25 386 35 419 68 c 1
 439 216 l 2
 441 231 437 238 424 238 c 2
 365 236 l 1
 370 272 l 1
 636 272 l 1
 632 236 l 1
 599 238 l 2
 588 238 579 228 577 217 c 2
 552 35 l 1
 547 36 540 37 533 37 c 0
 484 37 431 -10 303 -10 c 0
 138 -10 38 75 38 244 c 0
 38 478 173 607 397 607 c 0
298 -34 m 0
 343 -34 368 -67 368 -102 c 0
 368 -168 307 -224 248 -251 c 1
 231 -229 l 1
 258 -213 286 -187 286 -166 c 1
 287 -146 275 -141 262 -141 c 0
 239 -141 227 -121 227 -99 c 0
 227 -69 250 -34 298 -34 c 0
EndSplineSet
EndChar
StartChar: gcommaaccent
Encoding: 291 291 143
Width: 481
GlyphClass: 2
Flags: MW
HStem: -245 33<130 214 130 238.5> 127 31<202.5 236 202.5 276.5> 405 30<247 280> 410 20G 449 61<419 491> 486 107<237.5 307.5>
VStem: -31 94<-163.5 -127> 20 104<18.5 104> 42 131<222 238.5 200 293> 190 141<536.5 562 536 587> 308 132<323.5 341.5 269.5 361.5> 322 115<-141 -108>
LayerCount: 2
Back
Fore
SplineSet
260 486 m 0xe4c0
 215 486 190 519 190 554 c 0
 190 620 251 676 310 703 c 1
 327 681 l 1
 300 665 272 639 272 618 c 1
 271 598 283 593 296 593 c 0
 319 593 331 573 331 551 c 0
 331 521 308 486 260 486 c 0xe4c0
475 510 m 0xe890
 507 510 530 495 530 465 c 0
 530 446 517 414 480 414 c 0
 441 414 451 449 425 449 c 0
 413 449 391 440 372 420 c 1
 419 401 440 363 440 320 c 0
 440 219 356 127 197 127 c 0
 176 127 158 129 141 132 c 1
 131 122 124 110 124 98 c 0xe920
 124 64 187 57 257 43 c 0
 342 26 437 4 437 -90 c 0
 437 -192 319 -245 158 -245 c 0
 32 -245 -31 -212 -31 -152 c 0xe210
 -31 -102 17 -62 91 -36 c 1
 50 -22 20 -1 20 38 c 0
 20 68 39 95 78 125 c 2xe110
 104 145 l 1
 61 165 42 201 42 243 c 0
 42 343 125 435 286 435 c 0xe090
 307 435 325 433 341 430 c 1xd090
 379 473 428 510 475 510 c 0xe890
294 237 m 0xe0a0
 305 268 308 308 308 339 c 0
 308 384 293 405 267 405 c 0
 227 405 203 371 188 326 c 0
 178 294 173 254 173 223 c 0
 173 177 188 158 217 158 c 0
 255 158 279 191 294 237 c 0xe0a0
322 -130 m 0xe210
 322 -86 262 -72 196 -59 c 0
 174 -55 151 -51 129 -46 c 1
 96 -62 63 -102 63 -144 c 0
 63 -183 92 -212 168 -212 c 0
 260 -212 322 -173 322 -130 c 0xe210
EndSplineSet
EndChar
StartChar: Imacron
Encoding: 298 298 43
Width: 323
GlyphClass: 2
Flags: MW
HStem: 0 36 562 35<123 129 292.5 298> 677 47<103 336 96 343>
VStem: 8 335
LayerCount: 2
Back
Fore
SplineSet
343 724 m 1
 336 677 l 1
 96 677 l 1
 103 724 l 1
 343 724 l 1
338 597 m 1
 333 560 l 1
 298 562 l 2
 287 562 277 553 276 541 c 2
 207 57 l 2
 205 42 211 34 224 35 c 2
 259 37 l 1
 254 0 l 1
 8 0 l 1
 13 37 l 1
 48 35 l 2
 61 34 68 42 70 57 c 2
 138 541 l 2
 139 552 135 562 123 562 c 2
 87 560 l 1
 92 597 l 1
 338 597 l 1
EndSplineSet
EndChar
StartChar: imacron
Encoding: 299 299 153
Width: 275
GlyphClass: 2
Flags: MW
HStem: -10 21G<84.5 118> 411 20G<164 197.5> 560 47<69 302 62 309>
VStem: 37 272<405 607> 50 130<20.5 113> 88 139<335 415>
LayerCount: 2
Back
Fore
SplineSet
309 607 m 1xf0
 302 560 l 1
 62 560 l 1
 69 607 l 1
 309 607 l 1xf0
244 60 m 1xe8
 189 16 137 -10 99 -10 c 0
 70 -10 50 5 50 36 c 0xe8
 50 68 65 146 76 223 c 0
 84 283 88 324 88 346 c 0
 88 367 72 371 58 371 c 0
 53 371 46 370 42 369 c 1
 37 405 l 1
 88 421 142 431 186 431 c 0
 209 431 227 428 227 402 c 0xe4
 227 388 209 310 195 230 c 0
 186 176 180 124 180 102 c 0
 180 91 181 75 197 75 c 0
 202 75 216 77 233 88 c 1
 244 60 l 1xe8
EndSplineSet
EndChar
StartChar: Iogonek
Encoding: 302 302 44
Width: 323
GlyphClass: 2
Flags: MW
HStem: -159 58<147.5 221.5> 0 36 562 35<123 129 292.5 298>
VStem: 94 72<-117 -49.5>
LayerCount: 2
Back
Fore
SplineSet
92 597 m 1
 338 597 l 1
 333 560 l 1
 298 562 l 2
 287 562 277 553 276 541 c 2
 207 57 l 2
 205 42 211 34 224 35 c 2
 259 37 l 1
 254 0 l 1
 197 0 l 1
 177 -16 166 -38 166 -61 c 0
 166 -83 179 -101 210 -101 c 0
 233 -101 257 -93 281 -79 c 1
 291 -99 l 1
 253 -137 209 -159 166 -159 c 0
 129 -159 94 -138 94 -96 c 0
 94 -61 116 -26 157 0 c 1
 8 0 l 1
 13 37 l 1
 48 35 l 2
 61 34 68 42 70 57 c 2
 138 541 l 2
 139 552 135 562 123 562 c 2
 87 560 l 1
 92 597 l 1
EndSplineSet
EndChar
StartChar: iogonek
Encoding: 303 303 154
Width: 275
GlyphClass: 2
Flags: MW
HStem: -160 58<103.5 177.5> -10 21G<84.5 99 99 100> 411 20G<164 197.5> 532 125<170 202>
VStem: 50 72<-118 -46.5 -73 52> 88 139<335 415> 108 156<581 607>
LayerCount: 2
Back
Fore
SplineSet
177 532 m 0xf2
 136 532 108 553 108 585 c 0
 108 629 146 657 194 657 c 0
 236 657 264 636 264 604 c 0
 264 558 227 532 177 532 c 0xf2
166 -102 m 0xf8
 189 -102 213 -94 237 -80 c 1
 247 -100 l 1
 209 -138 165 -160 122 -160 c 0
 85 -160 50 -139 50 -97 c 0
 50 -66 67 -35 100 -10 c 1
 99 -10 l 2
 70 -10 50 5 50 36 c 0xf8
 50 68 65 146 76 223 c 0
 84 283 88 324 88 346 c 0
 88 367 72 371 58 371 c 0
 53 371 46 370 42 369 c 1
 37 405 l 1
 88 421 142 431 186 431 c 0
 209 431 227 428 227 402 c 0xf4
 227 388 209 310 195 230 c 0
 186 176 180 124 180 102 c 0
 180 91 181 75 197 75 c 0
 202 75 216 77 233 88 c 1
 244 60 l 1
 220 41 196 25 174 13 c 1
 175 13 l 1
 142 -3 122 -31 122 -62 c 0
 122 -84 135 -102 166 -102 c 0xf8
EndSplineSet
EndChar
StartChar: Idotaccent
Encoding: 304 304 41
Width: 323
GlyphClass: 2
Flags: MW
HStem: 0 36 562 35<123 129 292.5 298> 679 125<210 242>
VStem: 148 156<728 754>
LayerCount: 2
Back
Fore
SplineSet
234 804 m 0
 276 804 304 783 304 751 c 0
 304 705 267 679 217 679 c 0
 176 679 148 700 148 732 c 0
 148 776 186 804 234 804 c 0
338 597 m 1
 333 560 l 1
 298 562 l 2
 287 562 277 553 276 541 c 2
 207 57 l 2
 205 42 211 34 224 35 c 2
 259 37 l 1
 254 0 l 1
 8 0 l 1
 13 37 l 1
 48 35 l 2
 61 34 68 42 70 57 c 2
 138 541 l 2
 139 552 135 562 123 562 c 2
 87 560 l 1
 92 597 l 1
 338 597 l 1
EndSplineSet
EndChar
StartChar: IJ
Encoding: 306 306 37
Width: 778
GlyphClass: 2
Flags: MW
HStem: -10 34<439.5 476 415 529.5> 0 36 5 167<346.5 365.5> 562 35<123 129 292.5 298 584 589 753 759>
VStem: 340 41.34
LayerCount: 2
Back
Fore
SplineSet
338 597 m 1x58
 333 560 l 1
 298 562 l 2
 287 562 277 553 276 541 c 2
 207 57 l 2
 205 42 211 34 224 35 c 2
 259 37 l 1
 254 0 l 1
 8 0 l 1
 13 37 l 1
 48 35 l 2
 61 34 68 42 70 57 c 2
 138 541 l 2
 139 552 135 562 123 562 c 2
 87 560 l 1
 92 597 l 1
 338 597 l 1x58
798 597 m 1
 793 560 l 1
 759 562 l 2
 747 562 738 553 737 542 c 2
 686 179 l 2
 668 51 593 -10 466 -10 c 0
 413 -10 379 5 352 5 c 0x98
 341 5 325 5 316 -2 c 1x58
 340 172 l 1x38
 384 172 l 1
 376 116 382 24 448 24 c 0x98
 504 24 531 64 548 179 c 2
 599 541 l 2
 600 553 594 562 584 562 c 2
 514 560 l 1
 519 597 l 1
 798 597 l 1
EndSplineSet
Position2: "'cpsp' Capital Spacing lookup 0 per glyph data 2" dx=5 dy=0 dh=10 dv=0
EndChar
StartChar: ij
Encoding: 307 307 152
Width: 539
GlyphClass: 2
Flags: MW
HStem: -245 34<247 272.5 247 303> -10 21G<84.5 118> 371 60 411 20G<164 197.5 439 472.5> 532 125<162 194 438 470>
VStem: 50 130<20.5 113> 88 139<335 415> 100 156<581 607> 119 107<-183.5 -169.5 -193 -143> 376 156<581 607>
LayerCount: 2
Back
Fore
SplineSet
186 657 m 0xd940
 228 657 256 636 256 604 c 0
 256 558 219 532 169 532 c 0
 128 532 100 553 100 585 c 0
 100 629 138 657 186 657 c 0xd940
462 657 m 0
 504 657 532 636 532 604 c 0
 532 558 495 532 445 532 c 0
 404 532 376 553 376 585 c 0
 376 629 414 657 462 657 c 0
244 60 m 1xd440
 189 16 137 -10 99 -10 c 0
 70 -10 50 5 50 36 c 0xd440
 50 68 65 146 76 223 c 0
 84 283 88 324 88 346 c 0
 88 367 72 371 58 371 c 0
 53 371 46 370 42 369 c 1xe240
 37 405 l 1
 88 421 142 431 186 431 c 0
 209 431 227 428 227 402 c 0xd240
 227 388 209 310 195 230 c 0
 186 176 180 124 180 102 c 0
 180 91 181 75 197 75 c 0
 202 75 216 77 233 88 c 1
 244 60 l 1xd440
461 431 m 0xd0c0
 484 431 502 428 502 402 c 0
 502 384 474 226 454 73 c 0
 431 -110 365 -245 241 -245 c 0
 173 -245 119 -208 119 -159 c 0
 119 -127 141 -91 190 -91 c 0
 218 -91 240 -103 240 -128 c 0
 240 -147 226 -158 226 -181 c 0
 226 -205 241 -211 253 -211 c 0
 292 -211 300 -159 323 36 c 1
 349 224 l 2
 358 285 363 324 363 344 c 0
 363 368 347 371 333 371 c 0
 328 371 321 370 317 369 c 1xe0c0
 312 405 l 1
 363 421 417 431 461 431 c 0xd0c0
EndSplineSet
EndChar
StartChar: Kcommaaccent
Encoding: 310 310 47
Width: 634
GlyphClass: 2
Flags: MW
HStem: 0 36 562 35<123 129 292 298 493 495.5 600 600>
VStem: 220 141<-110 -84.5 -135 -84>
AnchorPoint: "Anchor-0" 293 0 basechar 0
LayerCount: 2
Back
Fore
SplineSet
600 562 m 2
 581 563 564 558 539 533 c 2
 380 373 l 1
 551 48 l 2
 556 39 564 34 573 34 c 0
 583 34 593 35 603 37 c 1
 598 0 l 1
 315 0 l 1
 319 37 l 1
 363 34 l 2
 380 33 389 42 380 59 c 2
 272 265 l 1
 230 223 l 1
 207 57 l 2
 205 42 211 34 224 35 c 2
 269 37 l 1
 264 0 l 1
 8 0 l 1
 13 37 l 1
 48 35 l 2
 61 34 68 42 70 57 c 2
 138 541 l 2
 139 553 135 562 123 562 c 2
 87 560 l 1
 92 597 l 1
 352 597 l 1
 347 560 l 1
 298 562 l 2
 286 562 278 555 275 540 c 2
 238 278 l 1
 484 529 l 1
 498 545 500 551 500 555 c 0
 500 560 498 562 493 562 c 2
 456 560 l 1
 461 597 l 1
 640 597 l 1
 635 560 l 1
 600 562 l 2
291 -34 m 0
 336 -34 361 -67 361 -102 c 0
 361 -168 300 -224 241 -251 c 1
 224 -229 l 1
 251 -213 279 -187 279 -166 c 1
 280 -146 268 -141 255 -141 c 0
 232 -141 220 -121 220 -99 c 0
 220 -69 243 -34 291 -34 c 0
EndSplineSet
EndChar
StartChar: kcommaaccent
Encoding: 311 311 158
Width: 506
GlyphClass: 2
Flags: MW
HStem: -6 21G<338 377> 0 21G<31 155 31 31> 364 71<308 425>
VStem: 183 141<-110 -84.5 -135 -84> 359 124<336 344.5>
AnchorPoint: "Anchor-0" 256 0 basechar 0
LayerCount: 2
Back
Fore
SplineSet
479 91 m 1x78
 494 65 l 1
 446 22 395 -6 359 -6 c 0
 317 -6 299 14 287 45 c 1xb8
 235 196 l 1
 329 237 359 298 359 335 c 0
 359 354 350 364 336 364 c 0
 280 364 205 258 174 154 c 1
 170 123 l 1
 155 0 l 1
 31 0 l 1
 45 86 118 573 118 644 c 0
 118 660 105 668 85 668 c 0
 78 668 70 668 61 666 c 1
 56 698 l 1
 118 722 177 730 208 730 c 0
 239 730 257 726 257 701 c 0
 257 693 252 670 247 640 c 0
 238 589 226 518 218 464 c 2
 189 261 l 1
 232 348 298 435 399 435 c 0
 451 435 483 402 483 362 c 0
 483 310 430 264 352 228 c 1
 400 96 l 2
 405 83 411 74 425 74 c 0
 437 74 455 79 479 91 c 1x78
254 -34 m 0
 299 -34 324 -67 324 -102 c 0
 324 -168 263 -224 204 -251 c 1
 187 -229 l 1
 214 -213 242 -187 242 -166 c 1
 243 -146 231 -141 218 -141 c 0
 195 -141 183 -121 183 -99 c 0
 183 -69 206 -34 254 -34 c 0
EndSplineSet
EndChar
StartChar: Lacute
Encoding: 313 313 49
Width: 510
GlyphClass: 2
Flags: MW
HStem: 0 36<216 298 298 335> 562 35<123 128 292.5 298>
VStem: 8 474<0 171>
AnchorPoint: "Anchor-0" 210 0 basechar 0
LayerCount: 2
Back
Fore
SplineSet
386 790 m 0
 386 783 381 778 370 772 c 2
 191 669 l 2
 186 665 174 660 166 660 c 0
 159 660 156 663 156 669 c 0
 156 677 161 683 176 697 c 2
 285 802 l 2
 303 820 308 826 323 826 c 0
 347 826 386 804 386 790 c 0
352 597 m 1
 347 560 l 1
 298 562 l 2
 287 562 277 553 276 541 c 2
 206 49 l 2
 205 40 208 36 216 36 c 2
 298 36 l 2
 384 36 436 83 448 171 c 1
 482 171 l 1
 458 -3 l 1
 446 -1 405 0 335 0 c 2
 8 0 l 1
 14 38 l 1
 52 35 l 2
 63 35 68 45 70 57 c 2
 138 541 l 2
 139 552 133 562 123 562 c 2
 87 560 l 1
 92 597 l 1
 352 597 l 1
EndSplineSet
EndChar
StartChar: lacute
Encoding: 314 314 160
Width: 261
GlyphClass: 2
Flags: MW
HStem: -10 21G<72.5 107.5>
VStem: 37 131<20.5 102>
AnchorPoint: "Anchor-0" 99 0 basechar 0
LayerCount: 2
Back
Fore
SplineSet
332 841 m 1
 331 835 329 830 316 825 c 2
 140 755 l 2
 131 752 121 748 113 748 c 0
 107 748 103 751 103 757 c 0
 103 764 108 769 124 781 c 2
 235 859 l 1
 256 875 266 881 279 881 c 0
 300 881 332 856 332 841 c 1
116 644 m 0
 116 660 103 668 83 668 c 0
 76 668 68 668 59 666 c 1
 54 698 l 1
 114 720 169 730 212 730 c 0
 237 730 255 726 255 701 c 0
 255 684 242 621 228 539 c 0
 203 387 171 180 168 102 c 0
 168 91 169 75 187 75 c 0
 192 75 211 77 228 88 c 1
 241 60 l 1
 187 16 128 -10 87 -10 c 0
 58 -10 37 5 37 36 c 0
 37 63 61 219 83 370 c 0
 100 488 116 602 116 644 c 0
EndSplineSet
EndChar
StartChar: Lcommaaccent
Encoding: 315 315 51
Width: 510
GlyphClass: 2
Flags: MW
HStem: 0 36<216 298 298 335> 562 35<123 128 292.5 298>
VStem: 137 141<-110 -84.5 -135 -84>
AnchorPoint: "Anchor-0" 210 0 basechar 0
LayerCount: 2
Back
Fore
SplineSet
352 597 m 1
 347 560 l 1
 298 562 l 2
 287 562 277 553 276 541 c 2
 206 49 l 2
 205 40 208 36 216 36 c 2
 298 36 l 2
 384 36 436 83 448 171 c 1
 482 171 l 1
 458 -3 l 1
 446 -1 405 0 335 0 c 2
 8 0 l 1
 14 38 l 1
 52 35 l 2
 63 35 68 45 70 57 c 2
 138 541 l 2
 139 552 133 562 123 562 c 2
 87 560 l 1
 92 597 l 1
 352 597 l 1
208 -34 m 0
 253 -34 278 -67 278 -102 c 0
 278 -168 217 -224 158 -251 c 1
 141 -229 l 1
 168 -213 196 -187 196 -166 c 1
 197 -146 185 -141 172 -141 c 0
 149 -141 137 -121 137 -99 c 0
 137 -69 160 -34 208 -34 c 0
EndSplineSet
EndChar
StartChar: lcommaaccent
Encoding: 316 316 162
Width: 261
GlyphClass: 2
Flags: MW
HStem: -10 21G<72.5 107.5>
VStem: 26 141<-110 -84.5 -135 -84> 37 131<20.5 102>
AnchorPoint: "Anchor-0" 99 0 basechar 0
LayerCount: 2
Back
Fore
SplineSet
116 644 m 0xa0
 116 660 103 668 83 668 c 0
 76 668 68 668 59 666 c 1
 54 698 l 1
 114 720 169 730 212 730 c 0
 237 730 255 726 255 701 c 0
 255 684 242 621 228 539 c 0
 203 387 171 180 168 102 c 0
 168 91 169 75 187 75 c 0
 192 75 211 77 228 88 c 1
 241 60 l 1
 187 16 128 -10 87 -10 c 0
 58 -10 37 5 37 36 c 0
 37 63 61 219 83 370 c 0
 100 488 116 602 116 644 c 0xa0
97 -34 m 0xc0
 142 -34 167 -67 167 -102 c 0
 167 -168 106 -224 47 -251 c 1
 30 -229 l 1
 57 -213 85 -187 85 -166 c 1
 86 -146 74 -141 61 -141 c 0
 38 -141 26 -121 26 -99 c 0
 26 -69 49 -34 97 -34 c 0xc0
EndSplineSet
EndChar
StartChar: Lcaron
Encoding: 317 317 50
Width: 510
GlyphClass: 2
Flags: MW
HStem: 0 36<216 298 298 335> 534 97<408.5 474.5> 562 35<123 128 292.5 298>
VStem: 386 131<559 588 541.5 588.5>
AnchorPoint: "Anchor-0" 210 0 basechar 0
LayerCount: 2
Back
Fore
SplineSet
456 631 m 0xd0
 493 631 517 606 517 570 c 0
 517 513 460 461 410 439 c 1
 393 461 l 1
 413 474 437 494 437 515 c 1
 438 530 429 534 419 534 c 0
 398 534 386 548 386 570 c 0
 386 607 418 631 456 631 c 0xd0
352 597 m 1xb0
 347 560 l 1
 298 562 l 2
 287 562 277 553 276 541 c 2
 206 49 l 2
 205 40 208 36 216 36 c 2
 298 36 l 2
 384 36 436 83 448 171 c 1
 482 171 l 1
 458 -3 l 1
 446 -1 405 0 335 0 c 2
 8 0 l 1
 14 38 l 1
 52 35 l 2
 63 35 68 45 70 57 c 2
 138 541 l 2
 139 552 133 562 123 562 c 2
 87 560 l 1
 92 597 l 1
 352 597 l 1xb0
EndSplineSet
EndChar
StartChar: lcaron
Encoding: 318 318 161
Width: 261
GlyphClass: 2
Flags: MW
HStem: -10 21G<72.5 107.5>
VStem: 37 131<20.5 102> 266 131<559 588 541.5 588.5>
AnchorPoint: "Anchor-0" 99 0 basechar 0
LayerCount: 2
Back
Fore
SplineSet
116 644 m 0
 116 660 103 668 83 668 c 0
 76 668 68 668 59 666 c 1
 54 698 l 1
 114 720 169 730 212 730 c 0
 237 730 255 726 255 701 c 0
 255 684 242 621 228 539 c 0
 203 387 171 180 168 102 c 0
 168 91 169 75 187 75 c 0
 192 75 211 77 228 88 c 1
 241 60 l 1
 187 16 128 -10 87 -10 c 0
 58 -10 37 5 37 36 c 0
 37 63 61 219 83 370 c 0
 100 488 116 602 116 644 c 0
336 631 m 0
 373 631 397 606 397 570 c 0
 397 513 340 461 290 439 c 1
 273 461 l 1
 293 474 317 494 317 515 c 1
 318 530 309 534 299 534 c 0
 278 534 266 548 266 570 c 0
 266 607 298 631 336 631 c 0
EndSplineSet
EndChar
StartChar: Ldot
Encoding: 319 319 52
Width: 510
GlyphClass: 2
Flags: MW
HStem: 0 36<216 298 298 335> 269 150<409 446> 562 35<123 128 292.5 298>
VStem: 8 512<0 373.5> 335 185<327 360.5>
AnchorPoint: "Anchor-0" 210 0 basechar 0
LayerCount: 2
Back
Fore
SplineSet
352 597 m 1xb0
 347 560 l 1
 298 562 l 2
 287 562 277 553 276 541 c 2
 206 49 l 2
 205 40 208 36 216 36 c 2
 298 36 l 2
 384 36 436 83 448 171 c 1
 482 171 l 1
 458 -3 l 1
 446 -1 405 0 335 0 c 2
 8 0 l 1
 14 38 l 1
 52 35 l 2
 63 35 68 45 70 57 c 2
 138 541 l 2
 139 552 133 562 123 562 c 2
 87 560 l 1
 92 597 l 1
 352 597 l 1xb0
335 335 m 0xe8
 335 386 380 419 438 419 c 0
 487 419 520 394 520 353 c 0
 520 301 475 269 417 269 c 0
 368 269 335 293 335 335 c 0xe8
EndSplineSet
Ligature2: "Ligature Substitution lookup 20 subtable" L periodcentered
Position2: "'cpsp' Capital Spacing lookup 0 per glyph data 2" dx=5 dy=0 dh=10 dv=0
EndChar
StartChar: ldot
Encoding: 320 320 163
Width: 304
GlyphClass: 2
Flags: MW
HStem: -10 21G<72.5 107.5> 277 120<259 279>
VStem: 37 131<20.5 102> 216 106<324 349>
AnchorPoint: "Anchor-0" 99 0 basechar 0
LayerCount: 2
Back
Fore
SplineSet
116 644 m 0
 116 660 103 668 83 668 c 0
 76 668 68 668 59 666 c 1
 54 698 l 1
 114 720 169 730 212 730 c 0
 237 730 255 726 255 701 c 0
 255 684 242 621 228 539 c 0
 203 387 171 180 168 102 c 0
 168 91 169 75 187 75 c 0
 192 75 211 77 228 88 c 1
 241 60 l 1
 187 16 128 -10 87 -10 c 0
 58 -10 37 5 37 36 c 0
 37 63 61 219 83 370 c 0
 100 488 116 602 116 644 c 0
216 329 m 0
 216 369 241 397 277 397 c 0
 304 397 322 375 322 344 c 0
 322 304 297 277 261 277 c 0
 235 277 216 299 216 329 c 0
EndSplineSet
Ligature2: "Ligature Substitution lookup 20 subtable" l periodcentered
EndChar
StartChar: Lslash
Encoding: 321 321 53
Width: 498
GlyphClass: 2
Flags: MW
HStem: 0 36<216 298 298 335> 405 20G<321 321> 562 35<123 128 292.5 298>
VStem: 8 474<0 171>
AnchorPoint: "Anchor-0" 210 0 basechar 0
LayerCount: 2
Back
Fore
SplineSet
448 171 m 1
 482 171 l 1
 458 -3 l 1
 446 -1 405 0 335 0 c 2
 8 0 l 1
 14 38 l 1
 52 35 l 2
 63 35 68 45 70 57 c 2
 92 211 l 1
 42 173 l 1
 49 220 l 1
 98 258 l 1
 138 541 l 2
 139 552 133 562 123 562 c 2
 87 560 l 1
 92 597 l 1
 352 597 l 1
 347 560 l 1
 298 562 l 2
 287 562 277 553 276 541 c 2
 252 372 l 1
 321 425 l 1
 314 377 l 1
 245 324 l 1
 206 49 l 2
 205 40 208 36 216 36 c 2
 298 36 l 2
 384 36 436 83 448 171 c 1
EndSplineSet
Position2: "'cpsp' Capital Spacing lookup 0 per glyph data 2" dx=5 dy=0 dh=10 dv=0
EndChar
StartChar: lslash
Encoding: 322 322 164
Width: 264
GlyphClass: 2
Flags: MW
HStem: -10 21G<72.5 107.5>
VStem: 37 131<20.5 102>
AnchorPoint: "Anchor-0" 99 0 basechar 0
LayerCount: 2
Back
Fore
SplineSet
270 468 m 1
 209 422 l 1
 189 294 170 161 168 102 c 0
 168 91 169 75 187 75 c 0
 192 75 211 77 228 88 c 1
 241 60 l 1
 187 16 128 -10 87 -10 c 0
 58 -10 37 5 37 36 c 0
 37 60 57 190 77 326 c 1
 30 290 l 1
 39 346 l 1
 85 381 l 1
 101 495 116 603 116 644 c 0
 116 660 103 668 83 668 c 0
 76 668 68 668 59 666 c 1
 54 698 l 1
 114 720 169 730 212 730 c 0
 237 730 255 726 255 701 c 0
 255 684 242 621 228 539 c 0
 225 519 221 498 218 477 c 1
 279 525 l 1
 270 468 l 1
EndSplineSet
EndChar
StartChar: Nacute
Encoding: 323 323 56
Width: 672
GlyphClass: 2
Flags: MW
HStem: -6 21G<489 550 489 489> 0 27<46 52.5 119.5 126> 569 28<122 122 572 577.5 642 647>
VStem: 3 689<0 597>
AnchorPoint: "Anchor-0" 318 0 basechar 0
LayerCount: 2
Back
Fore
SplineSet
546 790 m 0x70
 546 783 541 778 530 772 c 2
 351 669 l 2
 346 665 334 660 326 660 c 0
 319 660 316 663 316 669 c 0
 316 677 321 683 336 697 c 2
 445 802 l 2
 463 820 468 826 483 826 c 0
 507 826 546 804 546 790 c 0x70
692 597 m 1
 688 567 l 1
 647 569 l 2
 637 569 630 562 628 548 c 2
 550 -6 l 1
 489 -6 l 1xb0
 177 524 l 1
 111 49 l 2
 109 34 113 27 126 27 c 2
 175 29 l 1
 171 0 l 1
 3 0 l 1
 7 29 l 1
 46 27 l 2
 59 27 67 34 69 49 c 2
 139 553 l 1
 138 562 133 570 122 569 c 2
 83 567 l 1
 87 597 l 1
 292 597 l 1
 535 184 l 1
 586 549 l 2
 588 562 583 569 572 569 c 2
 520 567 l 1
 524 597 l 1
 692 597 l 1
EndSplineSet
EndChar
StartChar: Ncommaaccent
Encoding: 325 325 58
Width: 672
GlyphClass: 2
Flags: MW
HStem: -6 21G<489 550 489 489> 0 27<46 52.5 119.5 126> 569 28<122 122 572 577.5 642 647>
VStem: 245 141<-110 -84.5 -135 -84>
AnchorPoint: "Anchor-0" 318 0 basechar 0
LayerCount: 2
Back
Fore
SplineSet
692 597 m 1x70
 688 567 l 1
 647 569 l 2
 637 569 630 562 628 548 c 2
 550 -6 l 1
 489 -6 l 1xb0
 177 524 l 1
 111 49 l 2
 109 34 113 27 126 27 c 2
 175 29 l 1
 171 0 l 1
 3 0 l 1
 7 29 l 1
 46 27 l 2
 59 27 67 34 69 49 c 2
 139 553 l 1
 138 562 133 570 122 569 c 2
 83 567 l 1
 87 597 l 1
 292 597 l 1
 535 184 l 1
 586 549 l 2
 588 562 583 569 572 569 c 2
 520 567 l 1
 524 597 l 1
 692 597 l 1x70
316 -34 m 0
 361 -34 386 -67 386 -102 c 0
 386 -168 325 -224 266 -251 c 1
 249 -229 l 1
 276 -213 304 -187 304 -166 c 1
 305 -146 293 -141 280 -141 c 0
 257 -141 245 -121 245 -99 c 0
 245 -69 268 -34 316 -34 c 0
EndSplineSet
EndChar
StartChar: ncommaaccent
Encoding: 326 326 169
Width: 524
GlyphClass: 2
Flags: MW
HStem: -10 21G<332.5 362.5> 0 21G<36 159 36 36> 350 85<296.5 419.5> 411 20G<144.5 181>
VStem: 174 141<-110 -84.5 -135 -84> 352 129<314.5 327>
AnchorPoint: "Anchor-0" 247 0 basechar 0
LayerCount: 2
Back
Fore
SplineSet
488 88 m 1x5c
 500 60 l 1
 445 16 381 -10 344 -10 c 0
 321 -10 302 7 302 35 c 0
 302 87 352 266 352 316 c 0
 352 338 341 350 322 350 c 0xac
 271 350 201 227 174 124 c 1
 159 0 l 1
 36 0 l 1
 53 101 82 277 82 339 c 0
 82 359 73 371 53 371 c 0
 48 371 41 370 37 369 c 1
 33 405 l 1
 74 418 120 431 169 431 c 0
 193 431 218 427 218 405 c 0x5c
 218 390 204 317 193 253 c 1
 234 340 302 435 392 435 c 0
 447 435 481 398 481 345 c 0x6c
 481 284 433 140 432 98 c 0
 432 91 434 75 451 75 c 0
 457 75 471 77 488 88 c 1x5c
245 -34 m 0
 290 -34 315 -67 315 -102 c 0
 315 -168 254 -224 195 -251 c 1
 178 -229 l 1
 205 -213 233 -187 233 -166 c 1
 234 -146 222 -141 209 -141 c 0
 186 -141 174 -121 174 -99 c 0
 174 -69 197 -34 245 -34 c 0
EndSplineSet
EndChar
StartChar: Ncaron
Encoding: 327 327 57
Width: 672
GlyphClass: 2
Flags: MW
HStem: -6 21G<489 550 489 489> 0 27<46 52.5 119.5 126> 569 28<122 122 572 577.5 642 647> 686 60<354 396 396 420>
VStem: 3 689<0 597>
AnchorPoint: "Anchor-0" 318 0 basechar 0
LayerCount: 2
Back
Fore
SplineSet
548 824 m 0x78
 557 824 559 820 559 817 c 0
 559 808 521 781 473 734 c 1
 420 686 l 2
 407 674 394 668 384 668 c 0
 374 668 363 674 354 686 c 2
 315 734 l 1
 281 780 251 806 251 815 c 0
 251 818 253 824 265 824 c 0
 276 824 289 817 296 812 c 2
 396 746 l 1
 514 812 l 2
 522 817 536 824 548 824 c 0x78
692 597 m 1
 688 567 l 1
 647 569 l 2
 637 569 630 562 628 548 c 2
 550 -6 l 1
 489 -6 l 1xb8
 177 524 l 1
 111 49 l 2
 109 34 113 27 126 27 c 2
 175 29 l 1
 171 0 l 1
 3 0 l 1
 7 29 l 1
 46 27 l 2
 59 27 67 34 69 49 c 2
 139 553 l 1
 138 562 133 570 122 569 c 2
 83 567 l 1
 87 597 l 1
 292 597 l 1
 535 184 l 1
 586 549 l 2
 588 562 583 569 572 569 c 2
 520 567 l 1
 524 597 l 1
 692 597 l 1
EndSplineSet
EndChar
StartChar: ncaron
Encoding: 328 328 168
Width: 524
GlyphClass: 2
Flags: MW
HStem: -10 21G<332.5 362.5> 0 21G<36 159 36 36> 350 85<296.5 419.5> 411 20G<144.5 181> 519 60<288 330 330 354>
VStem: 352 129<314.5 327>
AnchorPoint: "Anchor-0" 247 0 basechar 0
LayerCount: 2
Back
Fore
SplineSet
288 519 m 2x5c
 249 567 l 1
 215 613 185 639 185 648 c 0
 185 651 187 657 199 657 c 0
 210 657 223 650 230 645 c 2
 330 579 l 1
 448 645 l 2
 456 650 470 657 482 657 c 0
 491 657 493 653 493 650 c 0
 493 641 455 614 407 567 c 1
 354 519 l 2
 341 507 328 501 318 501 c 0
 308 501 297 507 288 519 c 2x5c
488 88 m 1
 500 60 l 1
 445 16 381 -10 344 -10 c 0
 321 -10 302 7 302 35 c 0
 302 87 352 266 352 316 c 0
 352 338 341 350 322 350 c 0xac
 271 350 201 227 174 124 c 1
 159 0 l 1
 36 0 l 1
 53 101 82 277 82 339 c 0
 82 359 73 371 53 371 c 0
 48 371 41 370 37 369 c 1
 33 405 l 1
 74 418 120 431 169 431 c 0
 193 431 218 427 218 405 c 0x5c
 218 390 204 317 193 253 c 1
 234 340 302 435 392 435 c 0
 447 435 481 398 481 345 c 0x6c
 481 284 433 140 432 98 c 0
 432 91 434 75 451 75 c 0
 457 75 471 77 488 88 c 1
EndSplineSet
EndChar
StartChar: omacron
Encoding: 333 333 177
Width: 462
GlyphClass: 2
Flags: MW
HStem: -10 43<185 224.5 185 267.5> 393 42<238.5 278> 560 47<183 416 176 423>
VStem: 18 131<111 155.5 97.5 229.5> 313 131<270.5 314.5 196 327.5>
LayerCount: 2
Back
Fore
SplineSet
423 607 m 1
 416 560 l 1
 176 560 l 1
 183 607 l 1
 423 607 l 1
282 435 m 0
 396 435 444 362 444 267 c 0
 444 125 355 -10 180 -10 c 0
 66 -10 18 64 18 158 c 0
 18 301 107 435 282 435 c 0
262 393 m 0
 215 393 187 340 169 278 c 0
 156 231 149 178 149 133 c 0
 149 62 169 33 201 33 c 0
 248 33 277 87 295 152 c 0
 307 197 313 249 313 292 c 0
 313 363 294 393 262 393 c 0
EndSplineSet
EndChar
StartChar: Ohungarumlaut
Encoding: 336 336 65
Width: 677
GlyphClass: 2
Flags: MW
HStem: -10 35<266 363 266 406> 573 34<339 437.5>
VStem: 39 146<188 223.5 188 370> 516 146
LayerCount: 2
Back
Fore
SplineSet
383 826 m 0
 403 826 447 813 447 799 c 0
 447 796 444 791 439 786 c 0
 430 777 412 762 310 677 c 0
 298 667 291 665 284 665 c 0
 277 665 274 669 274 673 c 0
 274 677 277 681 279 685 c 0
 351 793 364 811 369 817 c 0
 376 825 378 826 383 826 c 0
509 826 m 0
 528 826 572 814 572 799 c 0
 572 796 570 792 564 786 c 0
 555 777 536 761 435 677 c 0
 423 667 416 665 409 665 c 0
 402 665 399 669 399 673 c 0
 399 676 401 681 404 685 c 0
 475 789 490 813 494 817 c 0
 501 825 503 826 509 826 c 0
39 254 m 0
 39 486 199 607 393 607 c 0
 551 607 662 531 662 345 c 0
 662 116 504 -10 308 -10 c 0
 152 -10 39 66 39 254 c 0
185 188 m 0
 186 92 214 25 318 25 c 0
 408 25 450 82 478 161 c 1
 504 238 517 335 516 409 c 0
 515 499 489 573 386 573 c 0
 292 573 247 510 220 425 c 0
 197 350 185 259 185 188 c 0
EndSplineSet
EndChar
StartChar: ohungarumlaut
Encoding: 337 337 176
Width: 462
GlyphClass: 2
Flags: MW
HStem: -10 43<185 224.5 185 267.5> 393 42<238.5 278>
VStem: 18 131<111 155.5 97.5 229.5> 313 131<270.5 314.5 196 327.5>
LayerCount: 2
Back
Fore
SplineSet
288 653 m 0
 308 653 352 640 352 626 c 0
 352 623 349 618 344 613 c 0
 335 604 317 589 215 504 c 0
 203 494 196 492 189 492 c 0
 182 492 179 496 179 500 c 0
 179 504 182 508 184 512 c 0
 256 620 269 638 274 644 c 0
 281 652 283 653 288 653 c 0
414 653 m 0
 433 653 477 641 477 626 c 0
 477 623 475 619 469 613 c 0
 460 604 441 588 340 504 c 0
 328 494 321 492 314 492 c 0
 307 492 304 496 304 500 c 0
 304 503 306 508 309 512 c 0
 380 616 395 640 399 644 c 0
 406 652 408 653 414 653 c 0
282 435 m 0
 396 435 444 362 444 267 c 0
 444 125 355 -10 180 -10 c 0
 66 -10 18 64 18 158 c 0
 18 301 107 435 282 435 c 0
262 393 m 0
 215 393 187 340 169 278 c 0
 156 231 149 178 149 133 c 0
 149 62 169 33 201 33 c 0
 248 33 277 87 295 152 c 0
 307 197 313 249 313 292 c 0
 313 363 294 393 262 393 c 0
EndSplineSet
EndChar
StartChar: OE
Encoding: 338 338 69
Width: 887
GlyphClass: 2
Flags: MW
HStem: -10 35<264.5 323> 0 35<543 645 645 690.5> 290 35<572 633 567 638> 406 20G<727 762 762 762> 443 155<813 848 813 813> 562 36<613 617 617 690> 573 34<338.5 414.5 282 417.5>
VStem: 39 145<187 221 187 356> 727 35<426 426> 815.17 32.83
LayerCount: 2
Back
Fore
SplineSet
395 607 m 0xb3c0
 434 607 469 598 502 598 c 2
 870 598 l 1x75c0
 848 443 l 1
 813 443 l 1x79c0
 825 527 788 562 690 562 c 2
 617 562 l 2
 609 562 604 557 603 548 c 2
 572 325 l 1
 638 325 l 2
 681 325 718 362 727 426 c 1
 762 426 l 1
 729 191 l 1
 694 191 l 1
 702 248 673 290 633 290 c 2
 567 290 l 1
 533 48 l 2
 532 39 535 35 543 35 c 2
 645 35 l 2
 736 35 790 87 803 179 c 1
 838 179 l 1
 813 -3 l 1
 798 -1 761 0 718 0 c 2
 415 0 l 1x75c0
 375 -5 336 -10 310 -10 c 0
 135 -10 39 79 39 253 c 0
 39 459 169 607 395 607 c 0xb3c0
389 573 m 0
 288 573 242 507 216 420 c 1
 192 344 184 255 184 187 c 0
 185 95 213 25 316 25 c 0
 367 25 389 50 400 78 c 1
 464 529 l 1
 464 551 446 573 389 573 c 0
EndSplineSet
Position2: "'cpsp' Capital Spacing lookup 0 per glyph data 2" dx=5 dy=0 dh=10 dv=0
EndChar
StartChar: oe
Encoding: 339 339 180
Width: 704
GlyphClass: 2
Flags: MW
HStem: -12 71<506.5 512.5> -10 43<185 215> 393 42<238.5 278> 397 35<550 581.5>
VStem: 18 131<111 155.5 97.5 229.5> 313 139<128.5 327.5> 607 106<317 364>
AnchorPoint: "Anchor-0" 469 -3 basechar 0
LayerCount: 2
Back
Fore
SplineSet
713 338 m 0x5e
 713 272 642 199 452 180 c 1
 452 165 l 2
 452 92 484 59 529 59 c 0
 566 59 611 77 651 109 c 1
 673 89 l 1
 627 29 550 -12 475 -12 c 0xae
 419 -12 375 9 348 46 c 1
 306 12 250 -10 180 -10 c 0
 66 -10 18 64 18 158 c 0
 18 301 107 435 282 435 c 0x6e
 348 435 392 410 417 371 c 1
 462 409 517 432 573 432 c 0
 657 432 713 394 713 338 c 0x5e
568 397 m 0
 532 397 504 368 482 316 c 0
 468 283 459 248 455 213 c 1
 555 230 607 282 607 352 c 0
 607 376 595 397 568 397 c 0
295 152 m 0x6e
 307 197 313 249 313 292 c 0
 313 363 294 393 262 393 c 0
 215 393 187 340 169 278 c 0
 156 231 149 178 149 133 c 0
 149 62 169 33 201 33 c 0
 248 33 277 87 295 152 c 0x6e
EndSplineSet
EndChar
StartChar: racute
Encoding: 341 341 185
Width: 421
GlyphClass: 2
Flags: MW
HStem: 0 21G<36 159 36 36> 268 160<343.5 378.5> 351 77<282 378.5> 411 20G<144.5 181>
VStem: 33 394<331 405> 306 121<289 368.5>
AnchorPoint: "Anchor-0" 98 0 basechar 0
LayerCount: 2
Back
Fore
SplineSet
123 487 m 0x98
 116 487 113 490 113 496 c 0
 113 504 118 510 133 524 c 2
 242 629 l 2
 260 647 265 653 280 653 c 0
 304 653 343 631 343 617 c 0
 343 610 338 605 327 599 c 2
 148 496 l 2
 143 492 131 487 123 487 c 0x98
353 428 m 0xa4
 404 428 427 387 427 350 c 0
 427 312 404 268 353 268 c 0
 334 268 306 274 306 304 c 0xc4
 306 320 313 328 313 339 c 0
 313 346 309 351 303 351 c 0xa4
 261 351 197 226 173 115 c 1
 159 0 l 1
 36 0 l 1
 53 101 82 277 82 339 c 0
 82 359 73 371 53 371 c 0
 48 371 41 370 37 369 c 1
 33 405 l 1
 74 418 120 431 169 431 c 0
 193 431 218 427 218 405 c 0x98
 218 391 206 324 195 263 c 1
 229 349 284 428 353 428 c 0xa4
EndSplineSet
EndChar
StartChar: Rcommaaccent
Encoding: 342 342 76
Width: 587
GlyphClass: 2
Flags: MW
HStem: -10 21G<408 454.5> -10 44 0 35<48 48 218 224> 271 35<243 274 237 305> 562 35<119 127.5 287 291 291 322>
VStem: 193 141<-110 -84.5 -135 -84> 363 131<159 191.5> 404 135<425 499.5>
AnchorPoint: "Anchor-0" 266 0 basechar 0
LayerCount: 2
Back
Fore
SplineSet
350 597 m 2x39
 478 597 539 556 539 470 c 0x39
 539 380 480 320 392 295 c 1
 464 286 494 238 494 170 c 0
 494 148 490 93 490 74 c 0
 490 46 498 34 519 34 c 0
 527 34 534 36 540 40 c 1x5a
 548 17 l 1
 522 4 475 -10 434 -10 c 0
 382 -10 356 10 356 61 c 0
 356 89 363 139 363 163 c 0
 363 220 349 270 274 271 c 1x9a
 237 271 l 1
 207 55 l 2
 206 41 212 35 224 35 c 2
 273 37 l 1
 268 0 l 1
 8 0 l 1
 13 37 l 1
 48 35 l 2
 61 34 68 42 70 57 c 2
 138 539 l 2
 139 552 136 562 119 562 c 1
 87 560 l 1
 92 597 l 1
 350 597 l 2x39
322 562 m 2
 291 562 l 2
 283 562 278 559 277 552 c 2
 243 306 l 1
 305 306 l 2
 360 306 404 370 404 466 c 0
 404 533 376 562 322 562 c 2
264 -34 m 0x3e
 309 -34 334 -67 334 -102 c 0
 334 -168 273 -224 214 -251 c 1
 197 -229 l 1
 224 -213 252 -187 252 -166 c 1
 253 -146 241 -141 228 -141 c 0
 205 -141 193 -121 193 -99 c 0
 193 -69 216 -34 264 -34 c 0x3e
EndSplineSet
EndChar
StartChar: rcommaaccent
Encoding: 343 343 187
Width: 421
GlyphClass: 2
Flags: MW
HStem: 0 21G<36 159 36 36> 268 160<343.5 378.5> 351 77<282 378.5> 411 20G<144.5 181>
VStem: 25 141<-110 -84.5 -135 -84> 306 121<289 368.5>
AnchorPoint: "Anchor-0" 98 0 basechar 0
LayerCount: 2
Back
Fore
SplineSet
353 428 m 0xac
 404 428 427 387 427 350 c 0
 427 312 404 268 353 268 c 0
 334 268 306 274 306 304 c 0xcc
 306 320 313 328 313 339 c 0
 313 346 309 351 303 351 c 0xac
 261 351 197 226 173 115 c 1
 159 0 l 1
 36 0 l 1
 53 101 82 277 82 339 c 0
 82 359 73 371 53 371 c 0
 48 371 41 370 37 369 c 1
 33 405 l 1
 74 418 120 431 169 431 c 0
 193 431 218 427 218 405 c 0x9c
 218 391 206 324 195 263 c 1
 229 349 284 428 353 428 c 0xac
96 -34 m 0x9c
 141 -34 166 -67 166 -102 c 0
 166 -168 105 -224 46 -251 c 1
 29 -229 l 1
 56 -213 84 -187 84 -166 c 1
 85 -146 73 -141 60 -141 c 0
 37 -141 25 -121 25 -99 c 0
 25 -69 48 -34 96 -34 c 0x9c
EndSplineSet
EndChar
StartChar: rcaron
Encoding: 345 345 186
Width: 421
GlyphClass: 2
Flags: MW
HStem: 0 21G<36 159 36 36> 268 160<343.5 378.5> 351 77<282 378.5> 411 20G<144.5 181> 519 60<153 195 195 219>
VStem: 33 394<331 405> 306 121<289 368.5>
AnchorPoint: "Anchor-0" 98 0 basechar 0
LayerCount: 2
Back
Fore
SplineSet
153 519 m 2x9c
 114 567 l 1
 80 613 50 639 50 648 c 0
 50 651 52 657 64 657 c 0
 75 657 88 650 95 645 c 2
 195 579 l 1
 313 645 l 2
 321 650 335 657 347 657 c 0
 356 657 358 653 358 650 c 0
 358 641 320 614 272 567 c 1
 219 519 l 2
 206 507 193 501 183 501 c 0
 173 501 162 507 153 519 c 2x9c
353 428 m 0xaa
 404 428 427 387 427 350 c 0
 427 312 404 268 353 268 c 0
 334 268 306 274 306 304 c 0xca
 306 320 313 328 313 339 c 0
 313 346 309 351 303 351 c 0xaa
 261 351 197 226 173 115 c 1
 159 0 l 1
 36 0 l 1
 53 101 82 277 82 339 c 0
 82 359 73 371 53 371 c 0
 48 371 41 370 37 369 c 1
 33 405 l 1
 74 418 120 431 169 431 c 0
 193 431 218 427 218 405 c 0x9c
 218 391 206 324 195 263 c 1
 229 349 284 428 353 428 c 0xaa
EndSplineSet
EndChar
StartChar: Scedilla
Encoding: 350 350 80
Width: 496
GlyphClass: 2
Flags: MW
HStem: -214 35<173.5 179.5 158.5 210.5> -10 36<210 210> 434 138<458 467.5 458 475 441 467.5> 573 34<283.5 330 228.5 357>
VStem: 39 32<139 203> 75 120<461.5 471> 164 61<-67.5 -63.5> 222 89<-142.5 -122.5> 340 127<138.5 146>
AnchorPoint: "Anchor-0" 234 0 basechar 0
LayerCount: 2
Back
Fore
SplineSet
475 434 m 1xe8
 441 434 l 1
 452 515 400 573 314 573 c 0
 253 573 195 545 195 484 c 0
 195 439 226 412 282 382 c 1xd4
 343 347 l 1
 421 304 467 267 467 189 c 0
 467 88 392 2 253 -9 c 1
 233 -36 l 2
 228 -44 225 -52 225 -56 c 0xda80
 225 -79 311 -63 311 -116 c 0
 311 -181 239 -214 182 -214 c 0
 165 -214 136 -213 115 -198 c 1
 133 -165 l 1
 140 -175 151 -179 166 -179 c 0
 193 -179 222 -155 222 -130 c 0
 222 -115 207 -102 194 -94 c 2xd9
 173 -80 l 2
 167 -75 164 -71 164 -66 c 0
 164 -61 166 -57 172 -52 c 1
 210 -10 l 1
 185 -9 162 -5 132 3 c 0
 94 13 73 18 58 18 c 0
 41 18 17 13 15 12 c 1
 24 40 39 100 39 178 c 0
 39 182 39 199 38 200 c 1
 71 203 l 1xda
 68 84 128 26 218 26 c 0
 286 26 340 65 340 122 c 0
 340 170 306 200 250 229 c 2
 182 265 l 2
 119 298 75 343 75 420 c 0
 75 522 154 607 303 607 c 0xd480
 357 607 385 595 435 578 c 0
 446 574 453 572 463 572 c 0
 472 572 484 573 492 576 c 1
 488 560 473 507 473 459 c 0
 473 449 474 440 475 434 c 1xe8
EndSplineSet
EndChar
StartChar: scedilla
Encoding: 351 351 191
Width: 390
GlyphClass: 2
Flags: MW
HStem: -214 35<95.5 101.5 80.5 132.5> -9 34<133 187.5 175 175> 401 34<200.5 239>
VStem: -2 103<59 71 50.5 100.5> 45 107 86 61<-67.5 -63.5> 144 89<-142.5 -122.5> 244 109<84 133 84 133> 281 99<354.5 368.5 324.5 375.5>
AnchorPoint: "Anchor-0" 156 0 basechar 0
LayerCount: 2
Back
Fore
SplineSet
319 278 m 0xf280
 289 278 268 293 268 315 c 0
 268 336 281 345 281 364 c 0xf280
 281 387 256 401 222 401 c 0
 179 401 153 373 152 341 c 1
 154 258 349 258 352 133 c 1
 244 84 l 1
 242 167 47 164 44 293 c 1
 45 293 l 1xe9
 43 388 133 435 227 435 c 0
 316 435 380 394 380 343 c 0
 380 306 355 278 319 278 c 0xf280
161 25 m 0
 214 25 245 50 244 84 c 1
 353 133 l 1
 355 39 272 -4 175 -9 c 1
 155 -36 l 2
 150 -44 147 -52 147 -56 c 0xe5
 147 -79 233 -63 233 -116 c 0
 233 -181 161 -214 104 -214 c 0
 87 -214 58 -213 37 -198 c 1
 55 -165 l 1
 62 -175 73 -179 88 -179 c 0
 115 -179 144 -155 144 -130 c 0
 144 -115 129 -102 116 -94 c 2xf280
 95 -80 l 2
 89 -75 86 -71 86 -66 c 0
 86 -61 88 -57 94 -52 c 1xe480
 133 -9 l 1
 52 -3 -2 35 -2 83 c 0
 -2 118 22 148 66 148 c 0
 89 148 115 141 115 111 c 0
 115 89 101 80 101 62 c 0
 101 39 123 25 161 25 c 0
EndSplineSet
EndChar
StartChar: Scaron
Encoding: 352 352 79
Width: 496
GlyphClass: 2
Flags: MW
HStem: -10 36<207 252 173 301.5> 434 138<458 467.5 458 475 441 467.5> 573 34<283.5 330 228.5 357> 686 60<288 330 330 354>
VStem: 39 32<139 203> 75 120<461.5 471> 340 127<135 146>
AnchorPoint: "Anchor-0" 234 0 basechar 0
LayerCount: 2
Back
Fore
SplineSet
482 824 m 0
 491 824 493 820 493 817 c 0
 493 808 455 781 407 734 c 1
 354 686 l 2
 341 674 328 668 318 668 c 0
 308 668 297 674 288 686 c 2
 249 734 l 1
 215 780 185 806 185 815 c 0
 185 818 187 824 199 824 c 0
 210 824 223 817 230 812 c 2
 330 746 l 1
 448 812 l 2
 456 817 470 824 482 824 c 0
303 607 m 0
 357 607 385 595 435 578 c 0
 446 574 453 572 463 572 c 0
 472 572 484 573 492 576 c 1
 488 560 473 507 473 459 c 0
 473 449 474 440 475 434 c 1xd8
 441 434 l 1
 452 515 400 573 314 573 c 0
 253 573 195 545 195 484 c 0
 195 439 226 412 282 382 c 1xb4
 343 347 l 1
 421 304 467 267 467 189 c 0
 467 81 381 -10 222 -10 c 0
 192 -10 167 -6 132 3 c 0
 94 13 73 18 58 18 c 0
 41 18 17 13 15 12 c 1
 24 40 39 100 39 178 c 0
 39 182 39 199 38 200 c 1
 71 203 l 1xba
 68 84 128 26 218 26 c 0
 286 26 340 65 340 122 c 0
 340 170 306 200 250 229 c 2
 182 265 l 2
 119 298 75 343 75 420 c 0xb6
 75 522 154 607 303 607 c 0
EndSplineSet
Position2: "'cpsp' Capital Spacing lookup 0 per glyph data 2" dx=5 dy=0 dh=10 dv=0
EndChar
StartChar: scaron
Encoding: 353 353 190
Width: 390
GlyphClass: 2
Flags: MW
HStem: -10 35<142 187.5 142 207.5> 401 34<200.5 239> 519 60<203 245 245 269>
VStem: -2 103<57 71 50.5 100.5> 45 107 244 109<84 133 84 133> 281 99<354.5 368.5 324.5 375.5>
AnchorPoint: "Anchor-0" 156 0 basechar 0
LayerCount: 2
Back
Fore
SplineSet
397 657 m 0xec
 406 657 408 653 408 650 c 0
 408 641 370 614 322 567 c 1
 269 519 l 2
 256 507 243 501 233 501 c 0
 223 501 212 507 203 519 c 2
 164 567 l 1
 130 613 100 639 100 648 c 0
 100 651 102 657 114 657 c 0
 125 657 138 650 145 645 c 2
 245 579 l 1
 363 645 l 2
 371 650 385 657 397 657 c 0xec
227 435 m 0xea
 316 435 380 394 380 343 c 0
 380 306 355 278 319 278 c 0
 289 278 268 293 268 315 c 0
 268 336 281 345 281 364 c 0xea
 281 387 256 401 222 401 c 0
 179 401 153 373 152 341 c 1
 154 258 349 258 352 133 c 1
 244 84 l 1xec
 242 167 47 164 44 293 c 1
 45 293 l 1
 43 388 133 435 227 435 c 0xea
161 25 m 0xf4
 214 25 245 50 244 84 c 1
 353 133 l 1
 355 33 260 -10 155 -10 c 0
 62 -10 -2 31 -2 83 c 0
 -2 118 22 148 66 148 c 0
 89 148 115 141 115 111 c 0
 115 89 101 80 101 62 c 0
 101 39 123 25 161 25 c 0xf4
EndSplineSet
EndChar
StartChar: uni0162
Encoding: 354 354 84
Width: 540
GlyphClass: 2
Flags: MW
HStem: -214 35<174.5 180.5 159.5 211.5> 0 35<158 163.5 158 220 327 333> 444 154<47 532 47 532 523 532 532 545.5 117 557 523 523> 562 36<177 221 221 239 396.5 400 400 419>
VStem: 165 61<-67.5 -63.5> 223 89<-142.5 -122.5> 525.58 31.42
AnchorPoint: "Anchor-0" 235 0 basechar 0
LayerCount: 2
Back
Fore
SplineSet
532 598 m 2xd6
 559 598 575 599 579 600 c 1xd6
 557 444 l 1
 523 444 l 1xe6
 535 524 507 562 419 562 c 2
 400 562 l 2
 393 562 388 558 387 551 c 2
 317 57 l 2
 315 42 321 35 333 35 c 2
 386 37 l 1
 382 0 l 1
 261 0 l 1
 234 -36 l 2
 229 -44 226 -52 226 -56 c 0xda
 226 -79 312 -63 312 -116 c 0
 312 -181 240 -214 183 -214 c 0
 166 -214 137 -213 116 -198 c 1
 134 -165 l 1
 141 -175 152 -179 167 -179 c 0
 194 -179 223 -155 223 -130 c 0
 223 -115 208 -102 195 -94 c 2xd6
 174 -80 l 2
 168 -75 165 -71 165 -66 c 0
 165 -61 167 -57 173 -52 c 1
 220 0 l 1
 99 0 l 1
 104 37 l 1
 158 35 l 2
 169 35 178 47 180 60 c 2
 249 550 l 2
 250 558 247 562 239 562 c 2
 221 562 l 2xda
 133 562 92 524 81 444 c 1
 47 444 l 1xea
 69 600 l 1
 78 599 94 598 117 598 c 2
 532 598 l 2xd6
EndSplineSet
EndChar
StartChar: uni0163
Encoding: 355 355 196
Width: 348
GlyphClass: 2
Flags: MW
HStem: -214 35<93.5 99.5 78.5 130.5> -9 21G<131 131> 387 38<54 109 31 115 244 312> 403 22<341 341>
VStem: 59 134<40 117> 84 61<-67.5 -63.5> 142 89<-142.5 -122.5>
AnchorPoint: "Anchor-0" 154 0 basechar 0
LayerCount: 2
Back
Fore
SplineSet
237 387 m 1xe2
 228 341 219 294 214 262 c 0
 205 210 193 130 193 104 c 0
 193 84 201 70 221 70 c 0
 243 70 269 87 291 106 c 1xe8
 314 84 l 1
 276 40 230 5 176 -6 c 1
 153 -36 l 2
 148 -44 145 -52 145 -56 c 0xe4
 145 -79 231 -63 231 -116 c 0
 231 -181 159 -214 102 -214 c 0
 85 -214 56 -213 35 -198 c 1
 53 -165 l 1
 60 -175 71 -179 86 -179 c 0
 113 -179 142 -155 142 -130 c 0
 142 -115 127 -102 114 -94 c 2xe2
 93 -80 l 2
 87 -75 84 -71 84 -66 c 0
 84 -61 86 -57 92 -52 c 1xe4
 131 -9 l 1
 79 -6 59 23 59 57 c 0
 59 86 69 143 82 226 c 2
 109 387 l 1
 31 387 l 1
 54 425 l 1
 115 425 l 1
 130 517 l 1
 265 540 l 1
 264 532 254 482 244 425 c 1
 341 425 l 1xe8
 341 403 l 1xd2
 312 387 l 1
 237 387 l 1xe2
EndSplineSet
EndChar
StartChar: Tcaron
Encoding: 356 356 83
Width: 540
GlyphClass: 2
Flags: MW
HStem: 0 35<158 163.5 327 333> 444 154<47 532 47 532 523 532 532 545.5 117 557 523 523> 562 36<177 221 221 239 396.5 400 400 419> 686 60<290 332 332 356>
VStem: 525.58 31.42
AnchorPoint: "Anchor-0" 235 0 basechar 0
LayerCount: 2
Back
Fore
SplineSet
484 824 m 0xb8
 493 824 495 820 495 817 c 0
 495 808 457 781 409 734 c 1
 356 686 l 2
 343 674 330 668 320 668 c 0
 310 668 299 674 290 686 c 2
 251 734 l 1
 217 780 187 806 187 815 c 0
 187 818 189 824 201 824 c 0
 212 824 225 817 232 812 c 2
 332 746 l 1
 450 812 l 2
 458 817 472 824 484 824 c 0xb8
579 600 m 1
 557 444 l 1
 523 444 l 1xd8
 535 524 507 562 419 562 c 2
 400 562 l 2
 393 562 388 558 387 551 c 2
 317 57 l 2
 315 42 321 35 333 35 c 2
 386 37 l 1
 382 0 l 1
 99 0 l 1
 104 37 l 1
 158 35 l 2
 169 35 178 47 180 60 c 2
 249 550 l 2
 250 558 247 562 239 562 c 2
 221 562 l 2xb8
 133 562 92 524 81 444 c 1
 47 444 l 1xd8
 69 600 l 1
 78 599 94 598 117 598 c 2
 532 598 l 2
 559 598 575 599 579 600 c 1
EndSplineSet
EndChar
